<?xml version="1.0" encoding="UTF-8" standalone="no"?>
<svg width="13px" height="13px" viewBox="0 0 13 13" version="1.1" xmlns="http://www.w3.org/2000/svg" xmlns:xlink="http://www.w3.org/1999/xlink">
    <!-- Generator: Sketch 41 (35326) - http://www.bohemiancoding.com/sketch -->
    <title>bag</title>
    <desc>Created with Sketch.</desc>
    <defs></defs>
    <g id="Page-1" stroke="none" stroke-width="1" fill="none" fill-rule="evenodd">
        <g id="100-Basic-Element-Icons-Dark" transform="translate(-1707.000000, -337.000000)" fill="#000000">
            <path d="M1718.47927,340.403962 C1718.44573,340.180017 1718.25563,340.023256 1718.032,340.023256 L1715.46018,340.023256 L1715.46018,338.970715 C1715.46018,337.884582 1714.57681,337 1713.49217,337 C1712.40753,337 1711.52417,337.884582 1711.52417,338.970715 L1711.52417,340.023256 L1708.95235,340.023256 C1708.72871,340.023256 1708.53862,340.180017 1708.50507,340.403962 L1707.00671,349.47373 C1706.98435,349.608096 1707.01789,349.742463 1707.10735,349.843239 C1707.1968,349.944014 1707.3198,350 1707.45398,350 L1719.53036,350 L1719.54154,350 C1719.79873,350 1720,349.79845 1720,349.540913 C1720,349.484927 1719.98882,349.440138 1719.97764,349.395349 L1718.47927,340.403962 L1718.47927,340.403962 Z M1712.44108,338.970715 C1712.44108,338.388458 1712.91072,337.918174 1713.49217,337.918174 C1714.07363,337.918174 1714.54327,338.388458 1714.54327,338.970715 L1714.54327,340.023256 L1712.44108,340.023256 L1712.44108,338.970715 L1712.44108,338.970715 Z M1707.99071,349.093023 L1709.34371,340.94143 L1711.52417,340.94143 L1711.52417,343.505599 C1711.52417,343.763135 1711.72544,343.964686 1711.98263,343.964686 C1712.23981,343.964686 1712.44108,343.763135 1712.44108,343.505599 L1712.44108,340.94143 L1714.54327,340.94143 L1714.54327,343.505599 C1714.54327,343.763135 1714.74454,343.964686 1715.00172,343.964686 C1715.2589,343.964686 1715.46018,343.763135 1715.46018,343.505599 L1715.46018,340.94143 L1717.64063,340.94143 L1718.99363,349.093023 L1707.99071,349.093023 L1707.99071,349.093023 Z" id="bag"></path>
        </g>
    </g>
</svg>