<?xml version="1.0" encoding="UTF-8" standalone="no"?>
<svg width="68px" height="66px" viewBox="0 0 68 66" version="1.1" xmlns="http://www.w3.org/2000/svg" xmlns:xlink="http://www.w3.org/1999/xlink">
    <!-- Generator: Sketch 39.1 (31720) - http://www.bohemiancoding.com/sketch -->
    <title>TRUNG</title>
    <desc>Created with Sketch.</desc>
    <defs></defs>
    <g id="Page-1" stroke="none" stroke-width="1" fill="none" fill-rule="evenodd">
        <g id="WEB_Buttons-guideline" transform="translate(-401.000000, -906.000000)">
            <g id="TRUNG" transform="translate(402.000000, 907.000000)">
                <path d="M63.9308718,31.8124912 C63.9308718,49.381614 49.6195897,63.6244211 31.9654359,63.6244211 C14.3107179,63.6244211 0,49.381614 0,31.8124912 C0,14.242807 14.3107179,0 31.9654359,0 C49.6195897,0 63.9308718,14.242807 63.9308718,31.8124912 L63.9308718,31.8124912 Z" id="Stroke-261" stroke="#64D1BF" stroke-width="0.84" stroke-linecap="round"></path>
                <path d="M13.2040615,13.4419088 L21.583241,29.4991719" id="Stroke-263" stroke="#64D1BF" stroke-width="0.84" stroke-linecap="round"></path>
                <path d="M17.6375692,15.004407 L18.2970051,30.3717053" id="Stroke-265" stroke="#64D1BF" stroke-width="0.84" stroke-linecap="round"></path>
                <path d="M25.8076923,21.9435228 L10.9983077,23.0893474" id="Stroke-267" stroke="#64D1BF" stroke-width="0.84" stroke-linecap="round"></path>
                <path d="M23.9379744,27.6403649 L11.9643333,17.4441544" id="Stroke-269" stroke="#64D1BF" stroke-width="0.84" stroke-linecap="round"></path>
                <path d="M12.631159,28.4386246 L23.6097231,16.4605193" id="Stroke-271" stroke="#64D1BF" stroke-width="0.84" stroke-linecap="round"></path>
                <path d="M24.999559,19.0663298 L10.1332,26.4246456" id="Stroke-273" stroke="#64D1BF" stroke-width="0.84" stroke-linecap="round"></path>
                <path d="M25.4110718,25.0438737 L9.0216359,19.5690667" id="Stroke-275" stroke="#64D1BF" stroke-width="0.84" stroke-linecap="round"></path>
                <path d="M20.9764359,15.0153544 L15.0161282,29.8605474" id="Stroke-277" stroke="#64D1BF" stroke-width="0.84" stroke-linecap="round"></path>
                <path d="M20.2388154,26.851986 C22.5634821,25.6500211 23.4801487,22.819986 22.2853795,20.5300211 C21.0906103,18.2400561 18.2368154,17.3586526 15.9121487,18.5600561 C13.5863538,19.7620211 12.6708154,22.5926175 13.8650205,24.8814596 C15.0597897,27.1714246 17.9135846,28.0539509 20.2388154,26.851986" id="Fill-279" fill="#FEFFFF"></path>
                <path d="M20.2388154,26.851986 C22.5634821,25.6500211 23.4801487,22.819986 22.2853795,20.5300211 C21.0906103,18.2400561 18.2368154,17.3586526 15.9121487,18.5600561 C13.5863538,19.7620211 12.6708154,22.5926175 13.8650205,24.8814596 C15.0597897,27.1714246 17.9135846,28.0539509 20.2388154,26.851986 L20.2388154,26.851986 Z" id="Stroke-281" stroke="#64D1BF" stroke-width="0.84"></path>
                <path d="M15.1409641,46.3311158 C14.9074256,46.3311158 14.8278872,46.1789754 14.9610154,45.9931509 L35.8914769,16.8422737 C36.0257333,16.6558877 36.2417846,16.6564491 36.3766051,16.8450807 L46.0272718,30.4097123" id="Stroke-283" stroke="#64D1BF" stroke-width="0.84"></path>
                <g id="Group-288" transform="translate(3.948718, 21.333333)">
                    <path d="M0.0776769231,24.9616281 L15.7901897,0.659031579 C15.9148564,0.467031579 16.1179333,0.467031579 16.2426,0.659031579 L31.9263436,24.4765754" id="Fill-285" fill="#FEFFFF"></path>
                    <path d="M0.0776769231,24.9616281 L15.7901897,0.659031579 C15.9148564,0.467031579 16.1179333,0.467031579 16.2426,0.659031579 L31.9263436,24.4765754" id="Stroke-287" stroke="#64D1BF" stroke-width="0.84" stroke-linecap="round"></path>
                </g>
                <path d="M39.7383744,40.3141614 L47.9787846,27.4608281 C48.1040154,27.2660211 48.3234513,27.2598456 48.4656051,27.4417404 L57.561759,39.6758456" id="Stroke-289" stroke="#64D1BF" stroke-width="0.84" stroke-linecap="round"></path>
                <path d="M40.4154103,8.02739649 C40.4154103,6.62725614 41.5565897,5.49209825 42.9583846,5.49209825 L51.8215641,5.49209825 C53.2256154,5.49209825 54.3639744,6.63062456 54.3639744,8.02739649 C54.3639744,9.42697544 53.2222308,10.5626947 51.8215641,10.5626947 L42.9583846,10.5626947 C41.5548974,10.5626947 40.4154103,9.42416842 40.4154103,8.02739649" id="Fill-291" fill="#FEFFFF"></path>
                <path d="M40.4154103,8.02739649 C40.4154103,6.62725614 41.5565897,5.49209825 42.9583846,5.49209825 L51.8215641,5.49209825 C53.2256154,5.49209825 54.3639744,6.63062456 54.3639744,8.02739649 C54.3639744,9.42697544 53.2222308,10.5626947 51.8215641,10.5626947 L42.9583846,10.5626947 C41.5548974,10.5626947 40.4154103,9.42416842 40.4154103,8.02739649 L40.4154103,8.02739649 Z" id="Stroke-293" stroke="#64D1BF" stroke-width="0.84" stroke-linecap="round"></path>
                <path d="M44.4429333,10.1990175 L43.7028308,11.6378947" id="Stroke-295" stroke="#64D1BF" stroke-width="0.84" stroke-linecap="round"></path>
                <path d="M43.0679333,10.2955228 L42.3278308,11.7344" id="Stroke-297" stroke="#64D1BF" stroke-width="0.84" stroke-linecap="round"></path>
                <path d="M45.818441,10.2955228 L45.0783385,11.7344" id="Stroke-299" stroke="#64D1BF" stroke-width="0.84" stroke-linecap="round"></path>
                <path d="M47.193441,10.2955228 L46.4533385,11.7344" id="Stroke-301" stroke="#64D1BF" stroke-width="0.84" stroke-linecap="round"></path>
                <path d="M48.7645795,10.2955228 L48.0244769,11.7344" id="Stroke-303" stroke="#64D1BF" stroke-width="0.84" stroke-linecap="round"></path>
                <path d="M43.2337231,3.49507368 L48.4409538,3.49507368" id="Stroke-305" stroke="#64D1BF" stroke-width="0.84" stroke-linecap="round"></path>
                <path d="M56.2758308,20.5257544 C56.2758308,19.3967719 57.1936256,18.4822456 58.3269077,18.4822456 L63.7659846,18.4822456 C64.8987026,18.4822456 65.8170615,19.3995789 65.8170615,20.5257544 C65.8170615,21.6541754 64.8987026,22.5692632 63.7659846,22.5692632 L58.3269077,22.5692632 C57.1936256,22.5692632 56.2758308,21.6519298 56.2758308,20.5257544" id="Fill-307" fill="#FEFFFF"></path>
                <path d="M56.2758308,20.5257544 C56.2758308,19.3967719 57.1936256,18.4822456 58.3269077,18.4822456 L63.7659846,18.4822456 C64.8987026,18.4822456 65.8170615,19.3995789 65.8170615,20.5257544 C65.8170615,21.6541754 64.8987026,22.5692632 63.7659846,22.5692632 L58.3269077,22.5692632 C57.1936256,22.5692632 56.2758308,21.6519298 56.2758308,20.5257544 L56.2758308,20.5257544 Z" id="Stroke-309" stroke="#64D1BF" stroke-width="0.84" stroke-linecap="round"></path>
                <path d="M59.9480256,17.0893474 L63.7156667,17.0893474" id="Stroke-311" stroke="#64D1BF" stroke-width="0.84" stroke-linecap="round"></path>
                <path d="M3.86551282,46.8569263 C4.22146154,45.360786 5.86525641,44.1504 7.49551282,44.1504 C8.79802564,44.1504 9.93130769,44.8622596 10.5162821,45.9115228 C10.9861795,45.6740491 11.5203846,45.5393123 12.0850513,45.5393123 C12.6136154,45.5393123 13.1145385,45.6566456 13.5618718,45.8660491 C14.0295128,44.2733474 15.5232564,43.1078737 17.2934103,43.1078737 C19.0635641,43.1078737 20.5584359,44.2739088 21.0249487,45.8677333 C21.3216667,45.7683649 21.6409487,45.7139088 21.9720769,45.7139088 C22.9942308,45.7139088 23.8939744,46.2326456 24.4140769,47.0169263 C24.9082308,46.6351719 25.531,46.4083649 26.2079231,46.4083649 C27.8173077,46.4083649 29.1209487,47.6911719 29.1209487,49.2743298 C29.1209487,50.2169263 28.6510513,51.1376281 28.1574615,51.4885053" id="Stroke-313" stroke="#64D1BF" stroke-width="0.84" stroke-linecap="round" stroke-linejoin="round"></path>
                <path d="M11.0529128,55.9742316 C11.5098359,55.2837053 12.3012718,54.8261614 13.2015795,54.8261614 C13.2619385,54.8261614 13.3217333,54.8278456 13.3809641,54.8317754 C13.7369128,53.3356351 15.1026051,52.2201263 16.7322974,52.2201263 C18.0353744,52.2201263 19.1686564,52.9325474 19.7536308,53.9818105 C20.2235282,53.7437754 20.7577333,53.6096 21.3224,53.6096 C21.8509641,53.6096 22.3513231,53.7269333 22.7992205,53.9363368 C23.2662974,52.3436351 24.7606051,51.1781614 26.5301949,51.1781614 C28.3009128,51.1781614 29.7957846,52.3441965 30.2622974,53.9380211 C30.5590154,53.8380912 30.8782974,53.7841965 31.2088615,53.7841965 C32.2315795,53.7841965 33.1313231,54.3023719 33.6514256,55.087214 C34.1455795,54.7054596 34.7683487,54.4786526 35.4452718,54.4786526 C37.0546564,54.4786526 38.3582974,55.7614596 38.3582974,57.3440561 C38.3582974,58.287214 37.8957333,59.1237053 37.1821436,59.6463719" id="Stroke-315" stroke="#64D1BF" stroke-width="0.84" stroke-linecap="round" stroke-linejoin="round"></path>
                <path d="M37.5938256,46.9550596 C36.7025436,47.0482526 35.7982872,46.0590596 35.7492103,45.2893754 C35.621159,43.3025684 36.8249538,42.7793404 38.272441,42.6272 C38.3339282,42.6210246 38.3959795,42.6165333 38.4563385,42.6142877 C38.6599795,41.0440421 39.9371077,39.7567439 41.6057231,39.581586 C42.9392615,39.4417965 44.1763385,40.0492351 44.8893641,41.0614456 C45.345159,40.7678316 45.8771077,40.5730246 46.4553128,40.5129544 C46.9962872,40.4562526 47.5220308,40.5224982 48.0020821,40.6886737 C48.3095179,39.0078316 49.7118769,37.6548491 51.5243385,37.4662175 C53.3373641,37.2764632 54.9930051,38.3094456 55.6439795,39.8914807 C55.9367487,39.7573053 56.257159,39.6674807 56.5956205,39.6315509 C57.643159,39.5226386 58.6201846,39.9571649 59.2367487,40.704393 C59.7021333,40.2614456 60.3153128,39.9616561 61.0085949,39.8892351 C61.5975179,39.8274807 62.164441,39.9380772 62.6574667,40.1794807" id="Stroke-317" stroke="#64D1BF" stroke-width="0.84" stroke-linecap="round" stroke-linejoin="round"></path>
                <path d="M35.7346,50.6474667 C36.190959,50.354414 36.7223436,50.1590456 37.3005487,50.0989754 C37.8415231,50.0422737 38.3672667,50.1085193 38.8478821,50.2746947 C39.1547538,48.5938526 40.5576769,47.2408702 42.3701385,47.0522386 C44.1831641,46.8624842 45.838241,47.8954667 46.4892154,49.4775018 C46.7819846,49.3433263 47.1023949,49.2535018 47.4408564,49.2175719 C48.4883949,49.1086596 49.4659846,49.543186 50.0825487,50.290414 C50.5479333,49.8474667 51.1611128,49.5476772 51.8538308,49.4752561 C53.5010103,49.3029053 54.9755744,50.4768 55.1459333,52.0975719 C55.2480359,53.0626246 54.8650103,53.9687298 54.1909077,54.5800982" id="Stroke-319" stroke="#64D1BF" stroke-width="0.84" stroke-linecap="round" stroke-linejoin="round"></path>
                <path d="M13.0806923,32.9336702 L14.9157179,32.9336702" id="Stroke-321" stroke="#64D1BF" stroke-width="0.84" stroke-linecap="round"></path>
                <path d="M11.5795026,35.0668912 L14.6651436,35.0668912" id="Stroke-323" stroke="#64D1BF" stroke-width="0.84" stroke-linecap="round"></path>
                <path d="M10.2447231,37.2006737 L15.4987744,37.2006737" id="Stroke-325" stroke="#64D1BF" stroke-width="0.84" stroke-linecap="round"></path>
                <path d="M8.91050769,39.1699649 L13.163841,39.1699649" id="Stroke-327" stroke="#64D1BF" stroke-width="0.84" stroke-linecap="round"></path>
                <path d="M7.82635897,41.4671158 L16.1660513,41.4671158" id="Stroke-329" stroke="#64D1BF" stroke-width="0.84" stroke-linecap="round"></path>
                <path d="M32.5956513,21.7741474 L34.431241,21.7741474" id="Stroke-331" stroke="#64D1BF" stroke-width="0.84" stroke-linecap="round"></path>
                <path d="M31.0945179,23.9078737 L34.1807231,23.9078737" id="Stroke-333" stroke="#64D1BF" stroke-width="0.84" stroke-linecap="round"></path>
                <path d="M29.7602462,26.0410947 L35.0137333,26.0410947" id="Stroke-335" stroke="#64D1BF" stroke-width="0.84" stroke-linecap="round"></path>
                <path d="M28.0921949,28.0104421 L32.3460923,28.0104421" id="Stroke-337" stroke="#64D1BF" stroke-width="0.84" stroke-linecap="round"></path>
                <path d="M26.6747744,30.307593 L35.0139026,30.307593" id="Stroke-339" stroke="#64D1BF" stroke-width="0.84" stroke-linecap="round"></path>
                <path d="M45.9396667,30.9643789 L49.0258718,30.9643789" id="Stroke-341" stroke="#64D1BF" stroke-width="0.84" stroke-linecap="round"></path>
                <path d="M44.6053949,33.0976 L49.8594462,33.0976" id="Stroke-343" stroke="#64D1BF" stroke-width="0.84" stroke-linecap="round"></path>
                <path d="M43.2711795,35.2313825 L47.5245128,35.2313825" id="Stroke-345" stroke="#64D1BF" stroke-width="0.84" stroke-linecap="round"></path>
                <path d="M15.735359,6.15298246 L17.1952564,6.15298246 C18.0504359,6.15298246 18.7487949,5.46077193 18.7487949,4.60687719 C18.7487949,3.75466667 18.0532564,3.05964912 17.1952564,3.05964912 L7.47464103,3.05964912 C6.62058974,3.05964912 5.92223077,3.75242105 5.92223077,4.60687719 C5.92223077,4.98750877 6.061,5.33670175 6.29171795,5.60729825 L3.10679487,5.60729825 C2.30294872,5.60729825 1.64576923,6.25852632 1.64576923,7.06245614 C1.64576923,7.86526316 2.30069231,8.51761404 3.10679487,8.51761404 L14.5953077,8.51761404 C15.4002821,8.51761404 16.0568974,7.86582456 16.0568974,7.06245614 C16.0568974,6.71831579 15.9361795,6.40224561 15.735359,6.15298246" id="Fill-347" fill="#FEFFFF"></path>
                <path d="M3.46669231,8.41504561 L2.36217949,9.69897544" id="Stroke-351" stroke="#64D1BF" stroke-width="0.84" stroke-linecap="round"></path>
                <path d="M15.735359,6.15298246 L17.1952564,6.15298246 C18.0504359,6.15298246 18.7487949,5.46077193 18.7487949,4.60687719 C18.7487949,3.75466667 18.0532564,3.05964912 17.1952564,3.05964912 L7.47464103,3.05964912 C6.62058974,3.05964912 5.92223077,3.75242105 5.92223077,4.60687719 C5.92223077,4.98750877 6.061,5.33670175 6.29171795,5.60729825 L3.10679487,5.60729825 C2.30294872,5.60729825 1.64576923,6.25852632 1.64576923,7.06245614 C1.64576923,7.86526316 2.30069231,8.51761404 3.10679487,8.51761404 L14.5953077,8.51761404 C15.4002821,8.51761404 16.0568974,7.86582456 16.0568974,7.06245614 C16.0568974,6.71831579 15.9361795,6.40224561 15.735359,6.15298246 L15.735359,6.15298246 Z" id="Stroke-349" stroke="#64D1BF" stroke-width="0.84" stroke-linecap="round" stroke-linejoin="round"></path>
                <path d="M5.20914872,8.41504561 L4.10350769,9.69897544" id="Stroke-353" stroke="#64D1BF" stroke-width="0.84" stroke-linecap="round"></path>
                <path d="M6.95154872,8.41504561 L5.84590769,9.69897544" id="Stroke-355" stroke="#64D1BF" stroke-width="0.84" stroke-linecap="round"></path>
                <path d="M8.53481538,8.41504561 L7.42973846,9.69897544" id="Stroke-357" stroke="#64D1BF" stroke-width="0.84" stroke-linecap="round"></path>
                <path d="M10.1185897,8.41504561 L9.01294872,9.69897544" id="Stroke-359" stroke="#64D1BF" stroke-width="0.84" stroke-linecap="round"></path>
                <path d="M10.9685795,11.4221474 L16.9734513,11.4221474" id="Stroke-361" stroke="#64D1BF" stroke-width="0.84" stroke-linecap="round"></path>
                <path d="M16.2757692,46.6113123 C16.2757692,47.1923649 15.8019231,47.6639439 15.2180769,47.6639439 C14.6342308,47.6639439 14.1603846,47.1923649 14.1603846,46.6113123 C14.1603846,46.0302596 14.6342308,45.5586807 15.2180769,45.5586807 C15.8019231,45.5586807 16.2757692,46.0302596 16.2757692,46.6113123" id="Fill-363" fill="#FFFFFF"></path>
            </g>
        </g>
    </g>
</svg>