<?xml version="1.0" encoding="UTF-8" standalone="no"?>
<svg width="66px" height="71px" viewBox="0 0 66 71" version="1.1" xmlns="http://www.w3.org/2000/svg" xmlns:xlink="http://www.w3.org/1999/xlink">
    <!-- Generator: Sketch 39.1 (31720) - http://www.bohemiancoding.com/sketch -->
    <title>Group 7</title>
    <desc>Created with Sketch.</desc>
    <defs>
        <path d="M63.6249825,32.28736 C63.6249825,49.81256 49.3821754,64.01976 31.8124912,64.01976 C14.2422456,64.01976 0,49.81256 0,32.28736 C0,14.7616 14.2422456,0.5544 31.8124912,0.5544 C49.3821754,0.5544 63.6249825,14.7616 63.6249825,32.28736 L63.6249825,32.28736 Z" id="path-1"></path>
        <path d="M15.1393684,6.84992 C10.1153684,7.49 5.376,6.06256 2.03452632,3.31016 C0.473263158,5.71928 -0.267789474,8.53552 0.102736842,11.4352 C1.03017544,18.6984 8.37501754,22.02704 16.770807,20.9608 C25.1682807,19.89288 31.4385965,14.83216 30.5111579,7.57064 C30.1518596,4.7544 28.794386,2.27472 26.7800702,0.35672 C24.2200702,3.74808 20.0617544,6.22328 15.1393684,6.84992 L15.1393684,6.84992 Z" id="path-3"></path>
        <path d="M15.1393684,6.84992 C10.1159298,7.48944 5.3765614,6.06256 2.03452632,3.31016 C0.473824561,5.71872 -0.267789474,8.53496 0.103298246,11.43576 C1.03017544,18.69784 8.37501754,22.0276 16.7702456,20.96024 C25.1688421,19.89232 31.4391579,14.83216 30.5117193,7.57008 C30.1518596,4.75384 28.7949474,2.27416 26.7800702,0.35616 C24.2200702,3.74808 20.0623158,6.22384 15.1393684,6.84992 L15.1393684,6.84992 Z" id="path-5"></path>
        <path d="M13.5472281,0.67984 C5.23115789,1.73768 -0.149333333,3.66128 0.10554386,5.67168 C0.36322807,7.6804 6.76435088,8.44536 14.4140351,7.47376 C22.0659649,6.50048 28.069614,4.15912 27.8119298,2.14984 C27.6418246,0.8204 25.0952982,0.14448 20.9841404,0.14336 C18.8788772,0.14336 16.3637895,0.32088 13.5472281,0.67984 L13.5472281,0.67984 Z" id="path-7"></path>
        <path d="M13.5472281,0.67984 C5.2317193,1.73768 -0.149894737,3.66072 0.106105263,5.67168 C0.36322807,7.6804 6.76435088,8.44592 14.4140351,7.4732 C22.0659649,6.50104 28.069614,4.15968 27.8124912,2.14928 C27.642386,0.8204 25.0952982,0.14392 20.9847018,0.14392 C18.8788772,0.14392 16.3637895,0.32144 13.5472281,0.67984 L13.5472281,0.67984 Z" id="path-9"></path>
    </defs>
    <g id="Page-1" stroke="none" stroke-width="1" fill="none" fill-rule="evenodd">
        <g id="WEB_Buttons-guideline" transform="translate(-238.000000, -904.000000)">
            <g id="Group-7" transform="translate(239.000000, 904.000000)">
                <g id="trung" transform="translate(0.000000, 5.600000)">
                    <mask id="mask-2" fill="white">
                        <use xlink:href="#path-1"></use>
                    </mask>
                    <use id="Stroke-231-Copy-2" stroke="#3EBBED" stroke-width="0.84" stroke-linecap="round" stroke-linejoin="round" xlink:href="#path-1"></use>
                    <g id="Group-155" mask="url(#mask-2)">
                        <g transform="translate(8.421053, 26.874400)">
                            <mask id="mask-4" fill="white">
                                <use xlink:href="#path-3"></use>
                            </mask>
                            <g id="Clip-154" stroke="none" fill="none"></g>
                            <polygon id="Stroke-153" stroke="#3EBBED" stroke-width="0.84" stroke-linecap="round" stroke-linejoin="round" fill="none" mask="url(#mask-4)" points="-4.85361404 0.61908 32.592 -4.14148 35.9418947 22.09004 -1.50259649 26.84948"></polygon>
                        </g>
                    </g>
                    <g id="Group-158" mask="url(#mask-2)">
                        <g transform="translate(8.421053, 26.874400)">
                            <mask id="mask-6" fill="white">
                                <use xlink:href="#path-5"></use>
                            </mask>
                            <g id="Clip-157" stroke="none" fill="none"></g>
                            <polygon id="Stroke-156" stroke="#3EBBED" stroke-width="0.84" stroke-linecap="round" stroke-linejoin="round" fill="none" mask="url(#mask-6)" points="31.5537404 3979.5 1044.86799 3850.69552 492.751214 -471.09384 -520.561347 -342.28768"></polygon>
                        </g>
                    </g>
                    <g id="Group-163" mask="url(#mask-2)" stroke-linecap="round" stroke="#3EBBED" stroke-width="0.84" stroke-linejoin="round">
                        <g transform="translate(8.421053, 26.874400)">
                            <path d="M26.7801263,0.355992 C28.7955649,2.273992 30.1519158,4.754232 30.511214,7.569912 C31.439214,14.831992 25.1683368,19.892712 16.7703018,20.960072 C8.37507368,22.027432 1.03023158,18.698232 0.102792982,11.435032 C-0.267733333,8.534792 0.474442105,5.718552 2.03402105,3.309992 C5.37661754,6.061832 10.115986,7.488712 15.139986,6.849752 C20.0618105,6.223672 24.2201263,3.747912 26.7801263,0.355992 L26.7801263,0.355992 Z" id="Stroke-159"></path>
                            <path d="M26.7801263,0.355992 C28.7955649,2.273992 30.1519158,4.754232 30.511214,7.569912 C31.439214,14.831992 25.1683368,19.892712 16.7703018,20.960072 C8.37507368,22.027432 1.03023158,18.698232 0.102792982,11.435032 C-0.267733333,8.534792 0.474442105,5.718552 2.03402105,3.309992 C5.37661754,6.061832 10.115986,7.488712 15.139986,6.849752 C20.0618105,6.223672 24.2201263,3.747912 26.7801263,0.355992 L26.7801263,0.355992 Z" id="Stroke-161"></path>
                        </g>
                    </g>
                    <g id="Group-166" mask="url(#mask-2)">
                        <g transform="translate(8.982456, 26.314400)">
                            <mask id="mask-8" fill="white">
                                <use xlink:href="#path-7"></use>
                            </mask>
                            <g id="Clip-165" stroke="none" fill="none"></g>
                            <polygon id="Stroke-164" stroke="#3EBBED" stroke-width="0.84" stroke-linecap="round" stroke-linejoin="round" fill="none" mask="url(#mask-8)" points="-4.27301053 -0.621824 30.470007 -5.038544 32.2339368 8.773856 -2.50795789 13.190576"></polygon>
                        </g>
                    </g>
                    <g id="Group-169" mask="url(#mask-2)">
                        <g transform="translate(8.982456, 26.314400)">
                            <mask id="mask-10" fill="white">
                                <use xlink:href="#path-9"></use>
                            </mask>
                            <g id="Clip-168" stroke="none" fill="none"></g>
                            <polygon id="Stroke-167" stroke="#3EBBED" stroke-width="0.84" stroke-linecap="round" stroke-linejoin="round" fill="none" mask="url(#mask-10)" points="30.9923368 3980.06 1044.30658 3851.25552 492.189811 -470.53384 -521.122751 -341.72768"></polygon>
                        </g>
                    </g>
                    <path d="M23.3963789,33.787432 C31.0488702,32.815272 37.0513965,30.473352 36.7942737,28.464072 C36.5377123,26.454232 30.8456421,25.936232 22.5290105,26.994072 C14.2146246,28.051352 8.83301053,29.974392 9.08901053,31.985352 C9.34613333,33.994632 15.7472561,34.759592 23.3963789,33.787432 L23.3963789,33.787432 Z" id="Stroke-170" stroke="#3EBBED" stroke-width="0.84" stroke-linecap="round" stroke-linejoin="round" mask="url(#mask-2)"></path>
                    <path d="M23.3963789,33.787432 C31.0488702,32.815272 37.0513965,30.473352 36.7942737,28.464072 C36.5377123,26.454232 30.8456421,25.936232 22.5290105,26.994072 C14.2146246,28.051352 8.83301053,29.974392 9.08901053,31.985352 C9.34613333,33.994632 15.7472561,34.759592 23.3963789,33.787432" id="Fill-172" fill="#FFFFFF" mask="url(#mask-2)"></path>
                    <path d="M23.3963789,33.787432 C31.0488702,32.815272 37.0513965,30.473352 36.7942737,28.464072 C36.5377123,26.454232 30.8456421,25.936232 22.5290105,26.994072 C14.2146246,28.051352 8.83301053,29.974392 9.08901053,31.985352 C9.34613333,33.994632 15.7472561,34.759592 23.3963789,33.787432 L23.3963789,33.787432 Z" id="Stroke-174" stroke="#3EBBED" stroke-width="0.84" stroke-linecap="round" stroke-linejoin="round" mask="url(#mask-2)"></path>
                    <path d="M32.3706386,34.648768 L35.6806737,34.121248" id="Stroke-176" stroke="#3EBBED" stroke-width="0.84" stroke-linecap="round" stroke-linejoin="round" mask="url(#mask-2)"></path>
                    <path d="M31.5427368,39.35792 L34.8785965,38.93456" id="Stroke-178" stroke="#3EBBED" stroke-width="0.84" stroke-linecap="round" stroke-linejoin="round" mask="url(#mask-2)"></path>
                    <path d="M17.1989895,39.04236 L22.4778667,38.37092" id="Stroke-180" stroke="#3EBBED" stroke-width="0.84" stroke-linecap="round" stroke-linejoin="round" mask="url(#mask-2)"></path>
                    <path d="M19.4320281,45.33088 L23.0227649,44.87504" id="Stroke-182" stroke="#3EBBED" stroke-width="0.84" stroke-linecap="round" stroke-linejoin="round" mask="url(#mask-2)"></path>
                    <path d="M11.3009965,37.651096 L14.5419789,37.239496" id="Stroke-184" stroke="#3EBBED" stroke-width="0.84" stroke-linecap="round" stroke-linejoin="round" mask="url(#mask-2)"></path>
                    <path d="M15.4830035,42.395248 L19.0726175,41.939968" id="Stroke-186" stroke="#3EBBED" stroke-width="0.84" stroke-linecap="round" stroke-linejoin="round" mask="url(#mask-2)"></path>
                    <path d="M30.3004632,21.264544 L21.6290246,31.772944" id="Stroke-188" stroke="#3EBBED" stroke-width="0.84" stroke-linecap="round" stroke-linejoin="round" mask="url(#mask-2)"></path>
                    <path d="M29.3015579,19.927992 L32.1669614,21.849912" id="Stroke-190" stroke="#3EBBED" stroke-width="0.84" stroke-linecap="round" stroke-linejoin="round" mask="url(#mask-2)"></path>
                    <path d="M9.90680702,30.927288 C9.90680702,30.927288 13.0467368,32.634728 19.4910877,32.186168 C25.9343158,31.737608 31.7661754,30.834888 36.178807,27.220088" id="Stroke-192" stroke="#3EBBED" stroke-width="0.84" stroke-linecap="round" stroke-linejoin="round" mask="url(#mask-2)"></path>
                    <path d="M-1.81305263,58.16328 C1.35663158,58.18848 1.37852632,55.21376 4.46287719,55.23168 C7.54722807,55.24792 7.6645614,58.23832 10.8836491,58.26352 C14.1049825,58.28984 14.64,55.31176 18.0595088,55.33864 C21.4784561,55.36608 20.9355789,58.34304 24.3348772,58.37048 C27.7347368,58.39792 28.3006316,55.41984 31.6572632,55.44616 C35.0133333,55.47304 34.6849123,58.4528 38.0494035,58.47912 C41.4150175,58.50488 41.1298246,55.5212 44.6161404,55.54808 C48.1035789,55.5772 48.2158596,58.5284 51.6437895,58.55528 C55.0717193,58.58272 55.7869474,55.71384 58.2739649,55.65672 C60.8749474,55.59904 61.9887719,57.83456 63.0341053,58.6768 C63.8138947,59.30624 64.757614,58.68968 64.757614,58.68968 L64.8654035,45.07216 C64.8654035,45.07216 63.9222456,45.68872 63.1424561,45.05872 C62.0971228,44.21592 60.9832982,41.97984 58.3834386,42.03808 C55.8947368,42.09408 55.1806316,44.96464 51.7515789,44.9372 C48.3247719,44.90976 48.2113684,41.95856 44.7250526,41.93112 C41.2381754,41.90312 41.5222456,44.88792 38.157193,44.86048 C34.7927018,44.8336 35.1205614,41.85384 31.765614,41.82752 C28.4089825,41.80064 27.8425263,44.77872 24.4432281,44.7524 C21.0439298,44.72552 21.5873684,41.748 18.1678596,41.72112 C14.7477895,41.69368 14.2133333,44.6712 10.9931228,44.64544 C7.77235088,44.62024 7.65614035,41.62928 4.57122807,41.61248 C1.48687719,41.59624 1.46554386,44.56984 -1.70526316,44.5452" id="Fill-194" fill="#FFFFFF" mask="url(#mask-2)"></path>
                    <path d="M-1.81305263,44.532432 C1.35663158,44.557632 1.37852632,41.583472 4.46287719,41.600832 C7.54722807,41.617072 7.6645614,44.608032 10.8836491,44.633232 C14.1049825,44.658992 14.6394386,41.680912 18.0595088,41.708352 C21.4784561,41.734672 20.9355789,44.712752 24.3348772,44.739632 C27.7347368,44.767072 28.301193,41.789552 31.6572632,41.815312 C35.0133333,41.842192 34.6849123,44.821952 38.0494035,44.848272 C41.4150175,44.874592 41.1298246,41.890912 44.6161404,41.917232 C48.1035789,41.946352 48.2164211,44.897552 51.6437895,44.924432" id="Stroke-197" stroke="#3EBBED" stroke-width="0.84" stroke-linecap="round" stroke-linejoin="round" mask="url(#mask-2)"></path>
                    <path d="M51.5240982,44.99236 C54.6943439,45.01756 54.7162386,42.04396 57.8005895,42.05964 C60.8855018,42.07588 61.0017123,45.06796 64.2213614,45.09372 C67.4421333,45.11892 67.9771509,42.14028 71.3966596,42.16828 C74.8161684,42.19516 74.2727298,45.17324 77.6720281,45.19956" id="Stroke-200" stroke="#3EBBED" stroke-width="0.84" stroke-linecap="round" stroke-linejoin="round" mask="url(#mask-2)"></path>
                    <path d="M27.6244772,48.438208 C27.6244772,48.438208 24.4435649,49.931728 22.2619509,48.052928 C21.2441263,47.175968 20.1033544,44.973488 17.5029333,45.031728 C15.014793,45.087728 14.3001263,47.956608 10.8716351,47.930288 C7.44426667,47.901728 7.33142456,44.951648 3.84342456,44.923648 C0.358231579,44.896208 0.642863158,47.881008 -2.72275088,47.854688 C-6.08836491,47.827248 -5.75994386,44.846928 -9.11601404,44.820608 C-12.4715228,44.795408 -13.0385404,47.771808 -16.4367158,47.745488" id="Stroke-203" stroke="#3EBBED" stroke-width="0.84" stroke-linecap="round" stroke-linejoin="round" mask="url(#mask-2)"></path>
                    <path d="M61.6507509,48.350176 C60.3191018,47.500096 59.8890667,45.947216 57.4188912,45.973536 C53.9982596,46.007696 53.5188211,48.995296 50.2980491,49.029456 C47.0772772,49.063056 46.9066105,46.074336 43.8216982,46.114656 C40.7379088,46.153856 40.771593,49.126896 37.6013474,49.159936 L38.0134175,49.149856 C38.0134175,49.149856 36.1793123,49.379456 35.5084351,48.893376" id="Stroke-206" stroke="#3EBBED" stroke-width="0.84" stroke-linecap="round" stroke-linejoin="round" mask="url(#mask-2)"></path>
                    <path d="M52.4199298,51.798208 C47.5542456,53.664688 47.0439298,49.815808 43.6249825,49.788928 C40.2043509,49.760928 39.6698947,52.739568 36.4496842,52.714368 C33.2283509,52.689168 33.1127018,49.697648 30.0277895,49.681408 C26.9434386,49.664608 26.9221053,52.637648 23.7524211,52.613008 L24.1650526,52.609648 C24.1650526,52.609648 22.3629474,52.754688 21.6645614,52.307808 C19.8821053,51.167648 19.5054035,49.228928 16.9049825,49.287728 C14.7497544,49.335888 12.4435088,53.874128 7.00182456,50.866368 C6.31915789,50.488928 5.56350877,50.049328 4.79438596,49.394128" id="Stroke-208" stroke="#3EBBED" stroke-width="0.84" stroke-linecap="round" stroke-linejoin="round" mask="url(#mask-2)"></path>
                    <path d="M10.2269754,55.524112 C13.6549053,55.550992 14.3701333,52.681552 16.8582737,52.626112 C19.4581333,52.567872 20.5438877,54.838672 21.6172912,55.646752 C22.2797474,56.144592 24.1177825,55.948592 24.1177825,55.948592 L23.7051509,55.951952 C26.8748351,55.976592 26.8961684,53.003552 29.9810807,53.019792 C33.065993,53.036592 33.1816421,56.027552 36.402414,56.052752 C39.6226246,56.077952 40.1570807,53.099872 43.5777123,53.127872 C46.9966596,53.154752 46.4526596,56.132832 49.8530807,56.159152 L49.5662035,61.761392 L10.0810105,61.761392 L10.2269754,55.524112 Z" id="Fill-210" fill="#FFFFFF" mask="url(#mask-2)"></path>
                    <path d="M52.7050667,60.715032 C52.7050667,60.715032 45.0452772,46.678632 36.2722246,46.329192 C27.5002947,45.981992 21.8885053,51.597112 21.8885053,51.597112 C21.6993123,51.772392 21.6729263,52.080392 21.8503298,52.287032 C21.8503298,52.287032 26.5391719,59.843672 35.4542596,58.867032 C49.3523649,57.344952 53.1059088,48.593272 53.1059088,48.593272 L52.7050667,60.715032 Z" id="Fill-212" fill="#FFFFFF" mask="url(#mask-2)"></path>
                    <path d="M52.7050667,60.715032 C52.7050667,60.715032 45.0452772,46.678632 36.2722246,46.329192 C27.5002947,45.981992 21.8885053,51.597112 21.8885053,51.597112 C21.6993123,51.772392 21.6729263,52.080392 21.8503298,52.287032 C21.8503298,52.287032 26.5391719,59.843672 35.4542596,58.867032 C49.3523649,57.344952 53.1059088,48.593272 53.1059088,48.593272 L52.7050667,60.715032 L52.7050667,60.715032 Z" id="Stroke-214" stroke="#3EBBED" stroke-width="0.84" stroke-linecap="round" stroke-linejoin="round" mask="url(#mask-2)"></path>
                    <path d="M33.3815579,46.733064 C33.3815579,46.733064 34.4819088,48.297144 34.4016281,52.662344 C34.3471719,55.828584 32.9021193,58.727144 32.9021193,58.727144" id="Stroke-216" stroke="#3EBBED" stroke-width="0.84" stroke-linecap="round" stroke-linejoin="round" mask="url(#mask-2)"></path>
                    <path d="M28.3568842,53.262776 C27.6433404,53.233096 27.0881123,52.632216 27.1189895,51.917656 C27.1464982,51.204776 27.7460772,50.649256 28.4590596,50.675016 C29.1748491,50.706936 29.7267088,51.307256 29.6980772,52.021256 C29.6705684,52.734136 29.0704281,53.290776 28.3568842,53.262776 L28.3568842,53.262776 Z" id="Stroke-218" stroke="#3EBBED" stroke-width="0.84" stroke-linecap="round" stroke-linejoin="round" mask="url(#mask-2)"></path>
                    <path d="M16.4144842,53.74292 C19.4993965,53.75916 19.6150456,56.75068 22.8358175,56.77588 C26.0565895,56.80108 26.5910456,53.823 30.0116772,53.85044 C33.4306246,53.87732 32.8866246,56.85596 36.2864842,56.88172 L36.2219228,56.8218 C39.650414,56.84868 40.3650807,53.97924 42.8532211,53.9238 C45.4536421,53.86556 46.5388351,56.13636 47.6122386,56.94444 C48.2746947,57.44228 50.1127298,57.24628 50.1127298,57.24628 L49.7000982,57.24964 C52.8703439,57.27428 52.8916772,54.30124 55.9760281,54.31748 C59.0609404,54.33428 59.1765895,57.32524 62.3973614,57.35044" id="Stroke-220" stroke="#3EBBED" stroke-width="0.84" stroke-linecap="round" stroke-linejoin="round" mask="url(#mask-2)"></path>
                    <path d="M16.3678877,54.207216 C19.4528,54.223456 19.5684491,57.214976 22.7892211,57.240176 C26.009993,57.265376 26.5444491,54.287296 29.9650807,54.314736 C33.3840281,54.341616 32.8400281,57.320256 36.2398877,57.346016 L36.1753263,57.286096 C39.6038175,57.312976 40.3184842,54.443536 42.8066246,54.388096 C45.4070456,54.329856 46.4922386,56.600656 47.5656421,57.408736 C48.2280982,57.906576 50.0661333,57.710576 50.0661333,57.710576 L49.6535018,57.713936 C52.8237474,57.738576 52.8450807,54.765536 55.9294316,54.781776 C59.0143439,54.798576 59.129993,57.789536 62.3507649,57.814736 L62.3507649,68.968256 C62.3507649,68.968256 13.9156772,68.034736 13.9156772,68.968256" id="Fill-222" fill="#FFFFFF" mask="url(#mask-2)"></path>
                    <path d="M52.1387228,59.731224 C47.2730386,61.597704 46.7627228,57.748824 43.3437754,57.721944 C39.9231439,57.693944 39.3886877,60.672584 36.1684772,60.647384 C32.9471439,60.622184 32.8314947,57.630664 29.7465825,57.614424 C26.6622316,57.597624 26.6408982,60.570664 23.471214,60.546024 L23.8838456,60.542664 C23.8838456,60.542664 22.0817404,60.687704 21.3833544,60.240824 C19.6008982,59.100664 19.2241965,57.161944 16.6237754,57.220744 C14.4685474,57.268904 12.1623018,61.807144 6.72061754,58.799384 C6.03795088,58.421944 5.28230175,57.982344 4.51317895,57.327144" id="Stroke-225" stroke="#3EBBED" stroke-width="0.84" stroke-linecap="round" stroke-linejoin="round" mask="url(#mask-2)"></path>
                    <path d="M52.0926316,63.793408 C47.2269474,65.659888 46.7166316,61.811008 43.2976842,61.784128 C39.8770526,61.756128 39.3425965,64.734768 36.122386,64.709568 C32.9010526,64.684368 32.7854035,61.692848 29.7004912,61.676608 C26.6161404,61.659808 26.594807,64.632848 23.4251228,64.608208 L23.8377544,64.604848 C23.8377544,64.604848 22.0356491,64.749888 21.3372632,64.303008 C19.554807,63.162848 19.1781053,61.224128 16.5776842,61.282928 C14.4224561,61.331088 12.1162105,65.869328 6.67452632,62.861568 C5.99185965,62.484128 5.23621053,62.044528 4.46708772,61.389328" id="Stroke-227" stroke="#3EBBED" stroke-width="0.84" stroke-linecap="round" stroke-linejoin="round" mask="url(#mask-2)"></path>
                    <path d="M19.2960561,16.051728 C19.2960561,16.051728 18.7947228,15.541568 17.9627228,15.804208 C17.1301614,16.065728 16.9982316,16.664928 16.9982316,16.664928 C16.9982316,16.664928 16.6765474,16.108288 16.0017404,15.847888 C15.5790035,15.684368 14.854793,15.783488 14.7335298,16.081968" id="Stroke-233" stroke="#3EBBED" stroke-width="0.84" stroke-linecap="round" stroke-linejoin="round" mask="url(#mask-2)"></path>
                    <path d="M5.95615439,10.583552 C5.87025965,10.367392 5.82366316,10.133872 5.82366316,9.890832 C5.82366316,8.787072 6.78422456,7.892752 7.96822456,7.892752 C8.04457544,7.892752 8.11980351,7.895552 8.19334737,7.903392 C8.53692632,7.281792 9.20555789,6.858992 9.97355789,6.858992 C11.0694175,6.858992 11.9620491,7.716912 11.9991018,8.789872 C12.3623298,8.447152 12.8546807,8.237152 13.3969965,8.237152 C14.5158737,8.237152 15.4231018,9.131472 15.4231018,10.235232 C15.4231018,10.344992 15.4141193,10.453072 15.3967158,10.556672 C15.8632421,10.356752 16.3202246,10.279472 16.6974877,10.661392 C17.6181895,11.593792 16.5807158,12.493712 16.5807158,12.493712 C16.4740491,12.605712 16.2579088,12.696992 16.1063298,12.696992 L5.71475088,12.696992 C5.55980351,12.696992 5.34254035,12.608512 5.24204912,12.490912 C5.24204912,12.490912 4.71769825,12.079872 4.97369825,11.369232 C5.12359298,10.953712 5.38408421,10.744272 5.95615439,10.583552" id="Fill-235" fill="#FFFFFF" mask="url(#mask-2)"></path>
                    <path d="M29.8629614,3.852576 C31.2861193,3.021536 31.7649965,1.197616 30.9329965,-0.220864 C30.0998737,-1.641584 28.2713825,-2.118144 26.8482246,-1.288224 C25.4250667,-0.456624 24.9456281,1.366176 25.7793123,2.786896 C26.6107509,4.205376 28.4392421,4.682496 29.8629614,3.852576" id="Fill-247" fill="#FFFFFF" mask="url(#mask-2)"></path>
                    <path d="M41.2445193,4.71996 C41.167607,4.529 41.1266246,4.32124 41.1266246,4.10676 C41.1266246,3.12844 41.9855719,2.33604 43.0460632,2.33604 C43.1123088,2.33604 43.1808,2.3394 43.2453614,2.34556 C43.5518877,1.7934 44.1525895,1.41988 44.8403088,1.41988 C45.8199579,1.41988 46.6199579,2.18036 46.6519579,3.13068 C46.9764491,2.82772 47.4165895,2.64124 47.9016421,2.64124 C48.9054316,2.64124 49.7155368,3.43476 49.7155368,4.41364 C49.7155368,4.50996 49.7076772,4.60236 49.6936421,4.69756 C50.1107649,4.52004 50.5194667,4.45172 50.855186,4.79052 C51.6793263,5.61596 50.7473965,6.41788 50.7473965,6.41788 C50.6564491,6.517 50.4700632,6.59708 50.3375719,6.59708 L41.0193965,6.59708 C40.8840982,6.59708 40.6988351,6.52036 40.6090105,6.41788 C40.6090105,6.41788 40.1368702,6.04716 40.3653614,5.41884 C40.4989754,5.04756 40.7330807,4.86276 41.2445193,4.71996" id="Fill-253" fill="#FFFFFF" mask="url(#mask-2)"></path>
                    <path d="M38.9489965,19.211584 C38.8181895,18.881744 38.7474526,18.526144 38.7474526,18.152624 C38.7474526,16.468704 40.2076632,15.102304 42.0097684,15.102304 C42.1254175,15.102304 42.2393825,15.107344 42.3522246,15.117984 C42.8743298,14.167664 43.8910316,13.523104 45.0615579,13.523104 C46.7278035,13.523104 48.0852772,14.834064 48.1414175,16.471504 C48.6938386,15.948464 49.4427509,15.628144 50.2685754,15.628144 C51.9701895,15.628144 53.3501193,16.995104 53.3501193,18.680144 C53.3501193,18.846464 53.3360842,19.010544 53.3102596,19.171824 C54.0204351,18.864944 54.7154526,18.748464 55.2886456,19.331424 C56.6910316,20.755504 55.0758737,22.172304 55.0758737,22.172304 C54.9332772,22.320704 54.6536982,22.442224 54.4471018,22.442224 L38.5245754,22.442224 C38.3191018,22.442224 38.0322246,22.322384 37.8974877,22.171744 C37.8974877,22.171744 37.0649263,21.496944 37.4534175,20.413344 C37.6819088,19.777744 38.0793825,19.456304 38.9489965,19.211584 L38.9489965,19.211584 Z" id="Stroke-257" stroke="#3EBBED" stroke-width="0.84" stroke-linejoin="round" mask="url(#mask-2)"></path>
                    <path d="M41.6891509,21.033768 L45.2585544,21.033768" id="Stroke-259" stroke="#3EBBED" stroke-width="0.84" stroke-linecap="round" mask="url(#mask-2)"></path>
                    <path d="M63.6249825,32.28736 C63.6249825,49.81256 49.3821754,64.01976 31.8124912,64.01976 C14.2422456,64.01976 0,49.81256 0,32.28736 C0,14.7616 14.2422456,0.5544 31.8124912,0.5544 C49.3821754,0.5544 63.6249825,14.7616 63.6249825,32.28736 L63.6249825,32.28736 Z" id="Stroke-231-Copy" stroke="#3EBBED" stroke-width="0.84" stroke-linecap="round" stroke-linejoin="round" mask="url(#mask-2)"></path>
                </g>
                <path d="M30.4753404,0.463064 L29.7533754,2.594984 M26.9480421,10.875704 L26.0992,13.380584" id="Stroke-239" stroke="#3EBBED" stroke-width="0.84" stroke-linecap="round"></path>
                <path d="M24.9396772,0.978208 L26.0445193,2.939328 M30.3347649,10.559808 L31.634414,12.865888" id="Stroke-241" stroke="#3EBBED" stroke-width="0.84" stroke-linecap="round"></path>
                <path d="M34.2467368,3.582432 L32.2795789,4.683952 M24.64,8.965152 L22.3275789,10.260992" id="Stroke-243" stroke="#3EBBED" stroke-width="0.84" stroke-linecap="round"></path>
                <path d="M34.8393544,8.378552 L32.6476351,7.847672 M24.1345123,5.780152 L21.5565474,5.155192" id="Stroke-245" stroke="#3EBBED" stroke-width="0.84" stroke-linecap="round"></path>
                <path d="M29.8629614,9.452576 C31.2861193,8.621536 31.7649965,6.797616 30.9329965,5.379136 C30.0998737,3.958416 28.2713825,3.481856 26.8482246,4.311776 C25.4250667,5.143376 24.9456281,6.966176 25.7793123,8.386896 C26.6107509,9.805376 28.4392421,10.282496 29.8629614,9.452576 L29.8629614,9.452576 Z" id="Stroke-249" stroke="#3EBBED" stroke-width="0.84" fill="#FFFFFF"></path>
                <path d="M41.2445193,10.31996 C41.167607,10.129 41.1266246,9.92124 41.1266246,9.70676 C41.1266246,8.72844 41.9855719,7.93604 43.0460632,7.93604 C43.1123088,7.93604 43.1808,7.9394 43.2453614,7.94556 C43.5518877,7.3934 44.1525895,7.01988 44.8403088,7.01988 C45.8199579,7.01988 46.6199579,7.78036 46.6519579,8.73068 C46.9764491,8.42772 47.4165895,8.24124 47.9016421,8.24124 C48.9054316,8.24124 49.7155368,9.03476 49.7155368,10.01364 C49.7155368,10.10996 49.7076772,10.20236 49.6936421,10.29756 C50.1107649,10.12004 50.5194667,10.05172 50.855186,10.39052 C51.6793263,11.21596 50.7473965,12.01788 50.7473965,12.01788 C50.6564491,12.117 50.4700632,12.19708 50.3375719,12.19708 L41.0193965,12.19708 C40.8840982,12.19708 40.6988351,12.12036 40.6090105,12.01788 C40.6090105,12.01788 40.1368702,11.64716 40.3653614,11.01884 C40.4989754,10.64756 40.7330807,10.46276 41.2445193,10.31996 L41.2445193,10.31996 Z" id="Stroke-255" stroke="#3EBBED" stroke-width="0.84" stroke-linejoin="round" fill="#FFFFFF"></path>
                <path d="M5.95615439,16.183552 C5.87025965,15.967392 5.82366316,15.733872 5.82366316,15.490832 C5.82366316,14.387072 6.78422456,13.492752 7.96822456,13.492752 C8.04457544,13.492752 8.11980351,13.495552 8.19334737,13.503392 C8.53692632,12.881792 9.20555789,12.458992 9.97355789,12.458992 C11.0694175,12.458992 11.9620491,13.316912 11.9991018,14.389872 C12.3623298,14.047152 12.8546807,13.837152 13.3969965,13.837152 C14.5158737,13.837152 15.4231018,14.731472 15.4231018,15.835232 C15.4231018,15.944992 15.4141193,16.053072 15.3967158,16.156672 C15.8632421,15.956752 16.3202246,15.879472 16.6974877,16.261392 C17.6181895,17.193792 16.5807158,18.093712 16.5807158,18.093712 C16.4740491,18.205712 16.2579088,18.296992 16.1063298,18.296992 L5.71475088,18.296992 C5.55980351,18.296992 5.34254035,18.208512 5.24204912,18.090912 C5.24204912,18.090912 4.71769825,17.679872 4.97369825,16.969232 C5.12359298,16.553712 5.38408421,16.344272 5.95615439,16.183552 L5.95615439,16.183552 Z" id="Stroke-237" stroke="#3EBBED" stroke-width="0.84" stroke-linejoin="round" fill="#FFFFFF"></path>
            </g>
        </g>
    </g>
</svg>