<?xml version="1.0" encoding="UTF-8"?>
<svg width="89px" height="74px" viewBox="0 0 89 74" version="1.1" xmlns="http://www.w3.org/2000/svg" xmlns:xlink="http://www.w3.org/1999/xlink">
    <!-- Generator: sketchtool 41 (35326) - http://www.bohemiancoding.com/sketch -->
    <title>D522C3DD-6E42-4981-B985-8CB24B000532</title>
    <desc>Created with sketchtool.</desc>
    <defs></defs>
    <g id="Page-1" stroke="none" stroke-width="1" fill="none" fill-rule="evenodd">
        <g id="Home" transform="translate(-870.000000, -3271.000000)">
            <g id="Group-56" transform="translate(870.000000, 3271.000000)">
                <g id="Group-4" transform="translate(0.070871, 0.780960)">
                    <g id="Group-3">
                        <path d="M41.0434322,63.8067041 C41.0434322,63.8067041 53.262442,46.0784592 46.7470341,19" id="Fill-1" fill="#FFFFFF"></path>
                        <path d="M41.0434322,63.8067041 C41.0434322,63.8067041 53.262442,46.0784592 46.7470341,19" id="Stroke-3" stroke="#FEA3A3" stroke-width="1.18725" stroke-linecap="round" stroke-linejoin="round"></path>
                        <path d="M33.1767005,63.8155714 C33.1767005,63.8155714 49.5732461,47.0006633 43.5084832,19.8061224" id="Fill-5" fill="#FFFFFF"></path>
                        <path d="M33.1767005,63.8155714 C33.1767005,63.8155714 49.5732461,47.0006633 43.5084832,19.8061224" id="Stroke-7" stroke="#FEA3A3" stroke-width="1.18725" stroke-linecap="round" stroke-linejoin="round"></path>
                        <path d="M54.4234228,26.2042388 C53.9058663,25.244147 52.5103984,22.3582286 50.2749089,21.103096 C47.9741202,19.8116878 44.7139978,20.2034633 43.6579245,20.431596 C40.1559532,21.1853205 36.1106282,23.1006674 33.1254073,25.5351572 C28.2207127,29.5383613 28.0804404,31.8793409 28.0804404,31.8793409 C28.0804404,31.8793409 26.6269289,28.8313919 28.7971192,23.9745041 C30.9673095,19.121647 36.515322,16.3953409 36.515322,16.3953409 C36.515322,16.3953409 28.6350804,16.5186776 22.5993394,21.6552898 C16.5627923,26.791096 18.1896288,26.8120552 18.1896288,26.8120552 C18.1896288,26.8120552 16.660338,21.0764939 21.918938,15.7810756 C27.1694764,10.4848511 34.1693882,10.4042388 34.1693882,10.4042388 C34.1693882,10.4042388 33.3059878,8.67026944 27.4145499,7.91009597 C21.5231121,7.15314699 15.9460777,9.28050413 15.9460777,9.28050413 C15.9460777,9.28050413 25.2782185,2.06409597 33.2302085,3.37485107 C41.1878417,4.68318781 46.1683155,9.7246776 46.1683155,9.7246776 C46.1683155,9.7246776 45.4790463,6.96854495 50.5562597,2.92503475 C54.652373,-0.333312193 62.9219912,0.261606174 62.9219912,0.261606174 C62.9219912,0.261606174 55.7906749,2.45909597 53.3286537,6.88390209 C50.8601831,11.3127388 51.7219712,10.6976674 59.3821303,9.04511638 C67.0350339,7.39820822 75.0474861,13.6666164 75.0474861,13.6666164 C75.0474861,13.6666164 66.8157576,13.2434021 60.4688377,14.0954735 C55.9599691,14.7016776 52.5821469,16.5227082 52.9771667,17.0184735 C53.9381128,18.2139531 55.8608111,19.9680756 57.3981636,22.7766062 C60.0077126,27.5335347 57.6803206,33.2465245 57.6803206,33.2465245 C57.6803206,33.2465245 56.3469273,29.8051878 54.4234228,26.2042388" id="Fill-9" fill="#FFFFFF"></path>
                        <path d="M54.4234228,26.2042388 C53.9058663,25.244147 52.5103984,22.3582286 50.2749089,21.103096 C47.9741202,19.8116878 44.7139978,20.2034633 43.6579245,20.431596 C40.1559532,21.1853205 36.1106282,23.1006674 33.1254073,25.5351572 C28.2207127,29.5383613 28.0804404,31.8793409 28.0804404,31.8793409 C28.0804404,31.8793409 26.6269289,28.8313919 28.7971192,23.9745041 C30.9673095,19.121647 36.515322,16.3953409 36.515322,16.3953409 C36.515322,16.3953409 28.6350804,16.5186776 22.5993394,21.6552898 C16.5627923,26.791096 18.1896288,26.8120552 18.1896288,26.8120552 C18.1896288,26.8120552 16.660338,21.0764939 21.918938,15.7810756 C27.1694764,10.4848511 34.1693882,10.4042388 34.1693882,10.4042388 C34.1693882,10.4042388 33.3059878,8.67026944 27.4145499,7.91009597 C21.5231121,7.15314699 15.9460777,9.28050413 15.9460777,9.28050413 C15.9460777,9.28050413 25.2782185,2.06409597 33.2302085,3.37485107 C41.1878417,4.68318781 46.1683155,9.7246776 46.1683155,9.7246776 C46.1683155,9.7246776 45.4790463,6.96854495 50.5562597,2.92503475 C54.652373,-0.333312193 62.9219912,0.261606174 62.9219912,0.261606174 C62.9219912,0.261606174 55.7906749,2.45909597 53.3286537,6.88390209 C50.8601831,11.3127388 51.7219712,10.6976674 59.3821303,9.04511638 C67.0350339,7.39820822 75.0474861,13.6666164 75.0474861,13.6666164 C75.0474861,13.6666164 66.8157576,13.2434021 60.4688377,14.0954735 C55.9599691,14.7016776 52.5821469,16.5227082 52.9771667,17.0184735 C53.9381128,18.2139531 55.8608111,19.9680756 57.3981636,22.7766062 C60.0077126,27.5335347 57.6803206,33.2465245 57.6803206,33.2465245 C57.6803206,33.2465245 56.3469273,29.8051878 54.4234228,26.2042388 L54.4234228,26.2042388 Z" id="Stroke-11" stroke="#FEA3A3" stroke-width="1.18725" stroke-linecap="round" stroke-linejoin="round"></path>
                        <path d="M32.4326123,63.5930816 C32.4326123,63.5930816 34.9792806,55.7882041 29.1458865,45.6020408" id="Fill-13" fill="#FFFFFF"></path>
                        <path d="M32.4326123,63.5930816 C32.4326123,63.5930816 34.9792806,55.7882041 29.1458865,45.6020408" id="Stroke-15" stroke="#FEA3A3" stroke-width="1.18725" stroke-linecap="round" stroke-linejoin="round"></path>
                        <path d="M29.3159868,63.6535408 C29.3159868,63.6535408 32.1730278,59.0650918 27.5335608,46.4081633" id="Fill-17" fill="#FFFFFF"></path>
                        <path d="M29.3159868,63.6535408 C29.3159868,63.6535408 32.1730278,59.0650918 27.5335608,46.4081633" id="Stroke-19" stroke="#FEA3A3" stroke-width="1.18725" stroke-linecap="round" stroke-linejoin="round"></path>
                        <path d="M32.2710696,47.6675908 C31.951023,47.3386929 31.0505391,46.3334582 30.0089768,46.0811418 C28.9424234,45.8239888 27.6944833,46.3552235 27.3002697,46.5688459 C25.9967044,47.2717847 24.6173599,48.5099888 23.7225191,49.834448 C22.2520781,52.0117847 22.4753852,52.9726827 22.4753852,52.9726827 C22.4753852,52.9726827 21.5329809,51.9110194 21.8135256,49.6998255 C22.0964887,47.4918561 23.9756542,45.7578867 23.9756542,45.7578867 C23.9756542,45.7578867 20.8590288,46.7091112 19.072572,49.4741112 C17.285309,52.2383051 17.9350763,52.060152 17.9350763,52.060152 C17.9350763,52.060152 16.6403788,49.9198969 18.0955027,47.1790806 C19.5522389,44.4382643 22.3262451,43.607152 22.3262451,43.607152 C22.3262451,43.607152 21.7740236,43.0073969 19.3418304,43.3733765 C16.9080248,43.7425806 14.9450184,45.23955 14.9450184,45.23955 C14.9450184,45.23955 17.7923854,41.2581112 21.1121639,40.8752031 C24.4303301,40.493101 27.0148881,41.9570194 27.0148881,41.9570194 C27.0148881,41.9570194 26.410266,40.9235704 27.9468123,38.7123765 C29.1850784,36.9252031 32.5443588,36.2190398 32.5443588,36.2190398 C32.5443588,36.2190398 29.9718933,37.9239888 29.5220544,39.992499 C29.0714094,42.0634276 29.3398616,41.7143765 32.1880349,40.170652 C35.0345958,38.630152 38.9710888,40.2440092 38.9710888,40.2440092 C38.9710888,40.2440092 35.6464733,41.0146622 33.2255664,42.0843867 C31.5060211,42.8461724 30.3806178,43.9707133 30.5982818,44.1246827 C31.1206753,44.4971112 32.0953261,44.9840092 33.0433736,45.9416827 C34.6508623,47.5619888 34.4098196,50.1367439 34.4098196,50.1367439 C34.4098196,50.1367439 33.4658029,48.8993459 32.2710696,47.6675908" id="Fill-21" fill="#FFFFFF"></path>
                        <path d="M32.2710696,47.6675908 C31.951023,47.3386929 31.0505391,46.3334582 30.0089768,46.0811418 C28.9424234,45.8239888 27.6944833,46.3552235 27.3002697,46.5688459 C25.9967044,47.2717847 24.6173599,48.5099888 23.7225191,49.834448 C22.2520781,52.0117847 22.4753852,52.9726827 22.4753852,52.9726827 C22.4753852,52.9726827 21.5329809,51.9110194 21.8135256,49.6998255 C22.0964887,47.4918561 23.9756542,45.7578867 23.9756542,45.7578867 C23.9756542,45.7578867 20.8590288,46.7091112 19.072572,49.4741112 C17.285309,52.2383051 17.9350763,52.060152 17.9350763,52.060152 C17.9350763,52.060152 16.6403788,49.9198969 18.0955027,47.1790806 C19.5522389,44.4382643 22.3262451,43.607152 22.3262451,43.607152 C22.3262451,43.607152 21.7740236,43.0073969 19.3418304,43.3733765 C16.9080248,43.7425806 14.9450184,45.23955 14.9450184,45.23955 C14.9450184,45.23955 17.7923854,41.2581112 21.1121639,40.8752031 C24.4303301,40.493101 27.0148881,41.9570194 27.0148881,41.9570194 C27.0148881,41.9570194 26.410266,40.9235704 27.9468123,38.7123765 C29.1850784,36.9252031 32.5443588,36.2190398 32.5443588,36.2190398 C32.5443588,36.2190398 29.9718933,37.9239888 29.5220544,39.992499 C29.0714094,42.0634276 29.3398616,41.7143765 32.1880349,40.170652 C35.0345958,38.630152 38.9710888,40.2440092 38.9710888,40.2440092 C38.9710888,40.2440092 35.6464733,41.0146622 33.2255664,42.0843867 C31.5060211,42.8461724 30.3806178,43.9707133 30.5982818,44.1246827 C31.1206753,44.4971112 32.0953261,44.9840092 33.0433736,45.9416827 C34.6508623,47.5619888 34.4098196,50.1367439 34.4098196,50.1367439 C34.4098196,50.1367439 33.4658029,48.8993459 32.2710696,47.6675908 L32.2710696,47.6675908 Z" id="Stroke-23" stroke="#FEA3A3" stroke-width="1.18725" stroke-linecap="round" stroke-linejoin="round"></path>
                        <path d="M0.930187866,67.2190398 L7.99459263,67.239999" id="Stroke-39" stroke="#FEA3A3" stroke-width="1.18725" stroke-linecap="round"></path>
                        <path d="M11.9418404,67.2190398 L17.4850159,67.2359684" id="Stroke-41" stroke="#FEA3A3" stroke-width="1.18725" stroke-linecap="round"></path>
                        <path d="M19.950315,67.2190398 L29.6436167,67.2496724" id="Stroke-43" stroke="#FEA3A3" stroke-width="1.18725" stroke-linecap="round"></path>
                        <path d="M35.9672641,67.2190398 L40.5309518,67.2327439" id="Stroke-45" stroke="#FEA3A3" stroke-width="1.18725" stroke-linecap="round"></path>
                        <path d="M44.976798,68.2190398 L55.0191682,68.2496724" id="Stroke-47" stroke="#FEA3A3" stroke-width="1.18725" stroke-linecap="round"></path>
                        <path d="M60.9937472,68.2190398 L65.4606954,68.2327439" id="Stroke-49" stroke="#FEA3A3" stroke-width="1.18725" stroke-linecap="round"></path>
                        <path d="M17.9481963,72.2190398 L24.1677425,72.2391929" id="Stroke-51" stroke="#FEA3A3" stroke-width="1.18725" stroke-linecap="round"></path>
                        <path d="M28.9598489,72.2190398 L36.0250598,72.2416112" id="Stroke-53" stroke="#FEA3A3" stroke-width="1.18725" stroke-linecap="round"></path>
                        <path d="M39.9715014,72.2190398 L45.5130646,72.2359684" id="Stroke-55" stroke="#FEA3A3" stroke-width="1.18725" stroke-linecap="round"></path>
                        <path d="M47.979976,72.2190398 L57.6732777,72.2496724" id="Stroke-57" stroke="#FEA3A3" stroke-width="1.18725" stroke-linecap="round"></path>
                        <path d="M64.9979845,72.2190398 L69.5640907,72.23355" id="Stroke-59" stroke="#FEA3A3" stroke-width="1.18725" stroke-linecap="round"></path>
                        <path d="M73.0064591,72.2190398 L79.9467147,72.2504786" id="Stroke-61" stroke="#FEA3A3" stroke-width="1.18725" stroke-linecap="round"></path>
                        <path d="M12.9428997,64.1342951 L49.0388399,64.1342951 L49.1259054,64.1294584 C49.1259054,64.1294584 60.8950764,59.137142 72.0225418,62.2294278 C81.3151806,64.811438 87.531502,69.6489788 87.531502,69.6489788" id="Stroke-63" stroke="#FEA3A3" stroke-width="1.18725" stroke-linecap="round" stroke-linejoin="round"></path>
                    </g>
                </g>
                <g id="Group-8" transform="translate(31.245453, 17.587083)"></g>
                <g id="Group-16" transform="translate(27.214639, 43.383001)"></g>
                <g id="Group-20" transform="translate(25.602314, 44.189123)"></g>
            </g>
        </g>
    </g>
</svg>