<?xml version="1.0" encoding="UTF-8"?>
<svg width="35px" height="34px" viewBox="0 0 35 34" version="1.1" xmlns="http://www.w3.org/2000/svg" xmlns:xlink="http://www.w3.org/1999/xlink">
    <!-- Generator: sketchtool 39.1 (31720) - http://www.bohemiancoding.com/sketch -->
    <title>86E8F561-6A97-4C13-9510-71FB9AE8B768</title>
    <desc>Created with sketchtool.</desc>
    <defs></defs>
    <g id="Page-1" stroke="none" stroke-width="1" fill="none" fill-rule="evenodd">
        <g id="web---Listing-individual-product" transform="translate(-925.000000, -406.000000)" stroke="#3EBBED" stroke-width="1.9">
            <g id="Group-49" transform="translate(926.000000, 406.000000)">
                <path d="M28.3389,6.3233 L24.4439,9.7093 M9.3189,22.8583 L4.7409,26.8373" id="Stroke-1" stroke-linecap="round"></path>
                <path d="M16.8135,0.9502 L16.7235,6.1092 M16.3725,26.1472 L16.2665,32.2122" id="Stroke-2" stroke-linecap="round"></path>
                <path d="M32.1709,16.8536 L27.0119,16.7636 M6.9739,16.4136 L0.9089,16.3076" id="Stroke-4" stroke-linecap="round"></path>
                <path d="M27.7891,27.0323 L24.0771,23.4483 M9.6611,9.5263 L5.2981,5.3113" id="Stroke-5" stroke-linecap="round"></path>
                <path d="M16.7197,23.4083 C20.4907,23.4083 23.5477,20.3513 23.5477,16.5823 C23.5477,12.8093 20.4907,9.7543 16.7197,9.7543 C12.9487,9.7543 9.8917,12.8093 9.8917,16.5823 C9.8917,20.3513 12.9487,23.4083 16.7197,23.4083 L16.7197,23.4083 Z" id="Stroke-6"></path>
            </g>
        </g>
    </g>
</svg>