<?xml version="1.0" encoding="UTF-8"?>
<svg width="46px" height="23px" viewBox="0 0 46 23" version="1.1" xmlns="http://www.w3.org/2000/svg" xmlns:xlink="http://www.w3.org/1999/xlink">
    <!-- Generator: sketchtool 39.1 (31720) - http://www.bohemiancoding.com/sketch -->
    <title>9A0D037A-E9BC-4124-95C2-E5D3589B1695</title>
    <desc>Created with sketchtool.</desc>
    <defs></defs>
    <g id="Page-1" stroke="none" stroke-width="1" fill="none" fill-rule="evenodd">
        <g id="web---Listing-individual-product" transform="translate(-944.000000, -452.000000)" stroke="#3EBBED" stroke-width="1.9">
            <g id="Group-50" transform="translate(945.000000, 453.000000)">
                <path d="M4.5205,13.3165 C4.2205,12.5605 4.0595,11.7445 4.0595,10.8905 C4.0595,7.0265 7.3985,3.8935 11.5215,3.8935 C11.7855,3.8935 12.0465,3.9045 12.3035,3.9305 C13.4985,1.7515 15.8245,0.2715 18.4995,0.2715 C22.3135,0.2715 25.4175,3.2785 25.5445,7.0345 C26.8095,5.8345 28.5235,5.0985 30.4115,5.0985 C34.3045,5.0985 37.4595,8.2335 37.4595,12.0985 C37.4595,12.4805 37.4285,12.8555 37.3705,13.2235 C38.9935,12.5235 40.5835,12.2545 41.8945,13.5905 C45.1005,16.8555 41.4055,20.1045 41.4055,20.1045 C41.0795,20.4455 40.4415,20.7225 39.9695,20.7225 L3.5495,20.7225 C3.0805,20.7225 2.4225,20.4495 2.1135,20.1035 C2.1135,20.1035 0.2105,18.5575 1.0995,16.0725 C1.6225,14.6145 2.5315,13.8785 4.5205,13.3165 L4.5205,13.3165 Z" id="Stroke-16" stroke-linejoin="round"></path>
                <path d="M10.7871,15.4952 L18.9531,15.4952" id="Stroke-18" stroke-linecap="round"></path>
            </g>
        </g>
    </g>
</svg>