<?xml version="1.0" encoding="UTF-8"?>
<svg width="38px" height="19px" viewBox="0 0 38 19" version="1.1" xmlns="http://www.w3.org/2000/svg" xmlns:xlink="http://www.w3.org/1999/xlink">
    <!-- Generator: sketchtool 41 (35326) - http://www.bohemiancoding.com/sketch -->
    <title>FC9C4EA1-8352-4757-ADC1-638A65763511</title>
    <desc>Created with sketchtool.</desc>
    <defs>
        <path d="M5.24331477,1.29058699 C5.12618741,1.28047267 5.00528175,1.27844981 4.88437609,1.27844981 C2.99522514,1.27844981 1.45997514,2.38394478 1.45997514,3.74836629 C1.45997514,4.04876153 1.53554118,4.33803103 1.67281948,4.6040376 C0.758470426,4.80328967 0.344116653,5.06221621 0.103564766,5.57602357 C-0.304491838,6.45394638 0.624970426,7.04765685 0.624970426,7.04765685 C0.738319483,7.1447543 0.9725742,7.21960026 1.13881948,7.21960026 L4.25717797,7.21960026 L12.9082299,7.21960026 L18.0190129,7.21960026 C18.1865176,7.21960026 18.4157346,7.14172001 18.5341214,7.04765685 C18.5341214,7.04765685 20.2834751,5.85315588 18.8162346,4.70214648 C18.2142251,4.22778497 17.4850129,4.32488242 16.7381685,4.56964892 C16.7671355,4.44321994 16.7822487,4.30869951 16.7822487,4.17417908 C16.7822487,2.80975757 15.3326402,1.7042626 13.5467629,1.7042626 C12.6840506,1.7042626 11.8969044,1.96318914 11.3175648,2.38596764 C11.2583714,1.05998054 9.83269212,0 8.08333835,0 C6.85916854,0 5.78990911,0.521898814 5.24331477,1.29058699 L5.24331477,1.29058699 Z M6.50148929,7.21960026 L11.0354516,7.21960026 L6.50148929,7.21960026 L6.50148929,7.21960026 Z" id="path-1"></path>
        <path d="M5.24331477,1.29058699 C5.12618741,1.28047267 5.00654118,1.27844981 4.88437609,1.27844981 C2.99522514,1.27844981 1.45997514,2.38394478 1.45997514,3.74937772 C1.45997514,4.04876153 1.53428175,4.33803103 1.67281948,4.6040376 C0.758470426,4.80328967 0.344116653,5.06221621 0.103564766,5.57602357 C-0.304491838,6.45394638 0.624970426,7.04765685 0.624970426,7.04765685 C0.738319483,7.1447543 0.9725742,7.21960026 1.13881948,7.21960026 L4.25717797,7.21960026 L12.9082299,7.21960026 L18.0190129,7.21960026 C18.187777,7.21960026 18.4157346,7.14172001 18.5341214,7.04765685 C18.5341214,7.04765685 20.2834751,5.85315588 18.8162346,4.70214648 C18.2142251,4.2287964 17.4850129,4.32488242 16.7369091,4.56964892 C16.7671355,4.44321994 16.7809893,4.30869951 16.7809893,4.17519051 C16.7809893,2.80975757 15.3326402,1.7042626 13.5467629,1.7042626 C12.6840506,1.7042626 11.8969044,1.96318914 11.3175648,2.38596764 C11.2596308,1.05998054 9.83143269,0 8.08333835,0 C6.85916854,0 5.78990911,0.521898814 5.24331477,1.29058699 L5.24331477,1.29058699 Z M11.0354516,7.21960026 L6.50148929,7.21960026 L11.0354516,7.21960026 L11.0354516,7.21960026 Z" id="path-3"></path>
        <path d="M5.24331477,1.29058699 C5.12618741,1.28047267 5.00528175,1.27844981 4.88437609,1.27844981 C2.99522514,1.27844981 1.45997514,2.38394478 1.45997514,3.74836629 C1.45997514,4.04876153 1.53554118,4.33803103 1.67281948,4.6040376 C0.758470426,4.80328967 0.344116653,5.06221621 0.103564766,5.57602357 C-0.304491838,6.45394638 0.624970426,7.04765685 0.624970426,7.04765685 C0.738319483,7.1447543 0.9725742,7.21960026 1.13881948,7.21960026 L4.25717797,7.21960026 L12.9082299,7.21960026 L18.0190129,7.21960026 C18.1865176,7.21960026 18.4157346,7.14172001 18.5341214,7.04765685 C18.5341214,7.04765685 20.2834751,5.85315588 18.8162346,4.70214648 C18.2142251,4.22778497 17.4850129,4.32488242 16.7381685,4.56964892 C16.7671355,4.44321994 16.7822487,4.30869951 16.7822487,4.17417908 C16.7822487,2.80975757 15.3326402,1.7042626 13.5467629,1.7042626 C12.6840506,1.7042626 11.8969044,1.96318914 11.3175648,2.38596764 C11.2583714,1.05998054 9.83269212,0 8.08333835,0 C6.85916854,0 5.78990911,0.521898814 5.24331477,1.29058699 L5.24331477,1.29058699 Z M6.50148929,7.21960026 L11.0354516,7.21960026 L6.50148929,7.21960026 L6.50148929,7.21960026 Z" id="path-5"></path>
    </defs>
    <g id="Page-1" stroke="none" stroke-width="1" fill="none" fill-rule="evenodd">
        <g id="Home" transform="translate(-482.000000, -3266.000000)">
            <g id="Group-55" transform="translate(483.000000, 3266.262320)">
                <path d="M19.8521843,13.2881911 L15.318222,13.2881911 M13.0726513,13.2881911 L9.95555221,13.2881911 C9.78930693,13.2881911 9.55505221,13.2133452 9.44170315,13.1172591 C9.44170315,13.1172591 8.51224089,12.5225372 8.91903806,11.6446144 C9.16084938,11.1308071 9.57646259,10.8718805 10.4882928,10.6736399 C10.3522739,10.4066219 10.2767079,10.1173524 10.2767079,9.81796858 C10.2767079,8.45354707 11.8106984,7.34704067 13.7011088,7.34704067 C13.8232739,7.34704067 13.9429201,7.35007496 14.0587881,7.35917785 C14.6066418,6.5915011 15.6759013,6.06859086 16.9000711,6.06859086 C18.6494249,6.06859086 20.0751041,7.12958283 20.1342975,8.45556993 C20.7136371,8.03178 21.5007833,7.77285346 22.3634956,7.77285346 C24.149373,7.77285346 25.597722,8.87935986 25.597722,10.2427699 C25.597722,10.3772904 25.5838682,10.5118108 25.5549013,10.6392512 C26.3004862,10.3944847 27.0296984,10.2973873 27.6329673,10.7707373 C29.1002079,11.9217467 27.3508541,13.1172591 27.3508541,13.1172591 C27.2324673,13.2113223 27.0045098,13.2881911 26.8357456,13.2881911 L21.7249626,13.2881911" id="Fill-1" fill="#FFFFFF"></path>
                <g id="Group-5" transform="translate(8.816038, 6.402363)">
                    <mask id="mask-2" fill="white">
                        <use xlink:href="#path-1"></use>
                    </mask>
                    <g id="Clip-4"></g>
                </g>
                <g id="Group-9" transform="translate(8.816038, 6.402363)">
                    <mask id="mask-4" fill="white">
                        <use xlink:href="#path-3"></use>
                    </mask>
                    <g id="Clip-7"></g>
                    <polygon id="Fill-6" fill="#FFFFFF" mask="url(#mask-4)" points="-5.03773585 10.123421 23.019934 10.123421 23.019934 -4.04572724 -5.03773585 -4.04572724"></polygon>
                    <polygon id="Stroke-8" stroke="#FEA3A3" stroke-width="1.18725" stroke-linecap="round" stroke-linejoin="round" mask="url(#mask-4)" points="-5.03773585 10.123421 23.019934 10.123421 23.019934 -4.04572724 -5.03773585 -4.04572724"></polygon>
                </g>
                <g id="Group-12" transform="translate(8.816038, 6.402363)">
                    <mask id="mask-6" fill="white">
                        <use xlink:href="#path-5"></use>
                    </mask>
                    <g id="Clip-11"></g>
                </g>
                <g id="Group-26" transform="translate(1.259434, 0.000000)">
                    <path d="M5.02819902,8.60425041 L1.34309525,8.60425041 C1.14914242,8.60425041 0.872066948,8.51726727 0.738566948,8.40499834 C0.738566948,8.40499834 -0.358400033,7.69396178 0.121444307,6.64915272 C0.406076382,6.03622504 0.899774495,5.72672691 1.97407167,5.48904043 C1.81538299,5.16942798 1.72722261,4.82756403 1.72722261,4.46648287 C1.72722261,2.84212339 3.53702921,1.52220487 5.7725245,1.52220487 C5.91609997,1.52220487 6.05589714,1.52726203 6.19569431,1.53838778 C6.84178393,0.620007699 8.10373676,0 9.55460468,0 C11.6213358,0 13.3039396,1.26327833 13.371949,2.84414625 C14.0596,2.33944178 14.9878028,2.03095507 16.0117226,2.03095507 C18.1212745,2.03095507 19.8315858,3.34885072 19.8315858,4.97422164 C19.8315858,5.13706216 19.8152132,5.29585696 19.7824679,5.44959459 C20.6628122,5.15526793 21.5242651,5.04198757 22.2358452,5.60434366 C23.9726047,6.97786806 21.9033547,8.40499834 21.9033547,8.40499834 C21.7660764,8.51524441 21.4940386,8.60425041 21.2963075,8.60425041 L15.2585811,8.60425041" id="Fill-23" fill="#FFFFFF"></path>
                    <path d="M16.3631047,17.7071367 L12.6780009,17.7071367 C12.4840481,17.7071367 12.2069726,17.6201536 12.0734726,17.5078846 C12.0734726,17.5078846 10.9765056,16.7968481 11.45635,15.752039 C11.740982,15.1391113 12.2346802,14.8296132 13.3089773,14.5919267 C13.1502886,14.2723143 13.0621283,13.9304503 13.0621283,13.5693692 C13.0621283,11.9450097 14.8719349,10.6250912 17.1074302,10.6250912 C17.2510056,10.6250912 17.3908028,10.6301483 17.5306,10.6412741 C18.1766896,9.72289399 19.4386424,9.10288629 20.8895103,9.10288629 C22.9562415,9.10288629 24.6388452,10.3661646 24.7068547,11.9470325 C25.3945056,11.4423281 26.3227085,11.1338414 27.3466283,11.1338414 C29.4561802,11.1338414 31.1664915,12.451737 31.1664915,14.0771079 C31.1664915,14.2399485 31.1501188,14.3987432 31.1173736,14.5524809 C31.9977179,14.2581542 32.8591707,14.1448739 33.5707509,14.7072299 C35.3075103,16.0807543 33.2382603,17.5078846 33.2382603,17.5078846 C33.100982,17.6181307 32.8289443,17.7071367 32.6312132,17.7071367 L26.5934868,17.7071367" id="Stroke-25" stroke="#FEA3A3" stroke-width="1.18725" stroke-linecap="round" stroke-linejoin="round"></path>
                </g>
                <g id="Group-30" transform="translate(0.000000, 9.102886)">
                    <path d="M14.1761887,0 L8.81603774,0" id="Fill-27" fill="#FFFFFF"></path>
                    <path d="M5.36015094,8.09145448 L0,8.09145448" id="Stroke-29" stroke="#FEA3A3" stroke-width="1.18725" stroke-linecap="round" stroke-linejoin="round"></path>
                </g>
                <g id="Group-38" transform="translate(22.669811, 3.034295)">
                    <path d="M0,0 L7.78959906,0" id="Fill-35" fill="#FFFFFF"></path>
                    <path d="M0,0 L7.78959906,0" id="Stroke-37" stroke="#FEA3A3" stroke-width="1.18725" stroke-linecap="round" stroke-linejoin="round"></path>
                </g>
            </g>
        </g>
    </g>
</svg>