<?xml version="1.0" encoding="UTF-8"?>
<svg width="46px" height="21px" viewBox="0 0 46 21" version="1.1" xmlns="http://www.w3.org/2000/svg" xmlns:xlink="http://www.w3.org/1999/xlink">
    <!-- Generator: sketchtool 41 (35326) - http://www.bohemiancoding.com/sketch -->
    <title>14E947F8-88D0-4526-8206-93E931E9160D</title>
    <desc>Created with sketchtool.</desc>
    <defs></defs>
    <g id="Page-1" stroke="none" stroke-width="1" fill="none" fill-rule="evenodd">
        <g id="Home" transform="translate(-527.000000, -3258.000000)">
            <g id="Group-53" transform="translate(528.339623, 3259.182298)">
                <path d="M8.04778273,14.7851102 C12.4419478,14.7851102 16.0048865,11.9288268 16.0048865,8.40398691 C16.0048865,4.88116991 12.4419478,2.02286362 8.04778273,2.02286362 C3.6523582,2.02286362 0.0881600891,4.88116991 0.0881600891,8.40398691 C0.0881600891,11.9288268 3.6523582,14.7851102 8.04778273,14.7851102" id="Fill-43" fill="#FFFFFF"></path>
                <path d="M8.04778273,14.7851102 C12.4419478,14.7851102 16.0048865,11.9288268 16.0048865,8.40398691 C16.0048865,4.88116991 12.4419478,2.02286362 8.04778273,2.02286362 C3.6523582,2.02286362 0.0881600891,4.88116991 0.0881600891,8.40398691 C0.0881600891,11.9288268 3.6523582,14.7851102 8.04778273,14.7851102 L8.04778273,14.7851102 Z" id="Stroke-45" stroke="#FEA3A3" stroke-width="1.18725" stroke-linecap="round" stroke-linejoin="round"></path>
                <g id="Group-50" transform="translate(5.037736, 7.080023)">
                    <path d="M6.97548838,11.9369182 L1.92893649,11.9369182 C1.66193649,11.9369182 1.28284687,11.8165578 1.09896951,11.6597859 C1.09896951,11.6597859 -0.403535209,10.6746513 0.255148754,9.22425811 C0.644313848,8.37364395 1.31685158,7.94378543 2.79416762,7.6150701 C2.57250724,7.17408583 2.45160158,6.69669001 2.45160158,6.19805413 C2.45160158,3.94357263 4.93142706,2.11389248 7.99185158,2.11389248 C8.18706385,2.11389248 8.38101668,2.12097251 8.56993177,2.13614398 C9.45909215,0.863762766 11.1857761,0 13.170644,0 C16.0005921,0 18.3066157,1.75382276 18.3985544,3.94660692 C19.340611,3.24770754 20.6101205,2.81683759 22.010611,2.81683759 C24.8984931,2.81683759 27.2422997,4.64651773 27.2422997,6.9030221 C27.2422997,7.12755996 27.2183705,7.34602923 27.1755497,7.56146421 C28.3783091,7.15183433 29.5596582,6.99405097 30.5344601,7.77487632 C32.9135308,9.68142528 30.0810638,11.6597859 30.0810638,11.6597859 C29.8883705,11.814535 29.5180969,11.9369182 29.2460591,11.9369182 L20.9791346,11.9369182" id="Fill-47" fill="#FFFFFF"></path>
                    <path d="M6.97548838,11.9369182 L1.92893649,11.9369182 C1.66193649,11.9369182 1.28284687,11.8165578 1.09896951,11.6597859 C1.09896951,11.6597859 -0.403535209,10.6746513 0.255148754,9.22425811 C0.644313848,8.37364395 1.31685158,7.94378543 2.79416762,7.6150701 C2.57250724,7.17408583 2.45160158,6.69669001 2.45160158,6.19805413 C2.45160158,3.94357263 4.93142706,2.11389248 7.99185158,2.11389248 C8.18706385,2.11389248 8.38101668,2.12097251 8.56993177,2.13614398 C9.45909215,0.863762766 11.1857761,0 13.170644,0 C16.0005921,0 18.3066157,1.75382276 18.3985544,3.94660692 C19.340611,3.24770754 20.6101205,2.81683759 22.010611,2.81683759 C24.8984931,2.81683759 27.2422997,4.64651773 27.2422997,6.9030221 C27.2422997,7.12755996 27.2183705,7.34602923 27.1755497,7.56146421 C28.3783091,7.15183433 29.5596582,6.99405097 30.5344601,7.77487632 C32.9135308,9.68142528 30.0810638,11.6597859 30.0810638,11.6597859 C29.8883705,11.814535 29.5180969,11.9369182 29.2460591,11.9369182 L20.9791346,11.9369182" id="Stroke-49" stroke="#FEA3A3" stroke-width="1.18725" stroke-linecap="round" stroke-linejoin="round"></path>
                </g>
                <g id="Group-54" transform="translate(2.518868, 5.057159)" fill="#FFFFFF">
                    <path d="M7.42688179,0 L0.0881600891,0" id="Fill-51"></path>
                </g>
                <g id="Group-58" transform="translate(17.632075, 0.000000)">
                    <path d="M0.0881600891,0 L7.88027801,0" id="Fill-55" fill="#FFFFFF"></path>
                    <path d="M0.0881600891,0 L7.88027801,0" id="Stroke-57" stroke="#FEA3A3" stroke-width="1.18725" stroke-linecap="round" stroke-linejoin="round"></path>
                </g>
                <g id="Group-62" transform="translate(35.264151, 6.068591)">
                    <path d="M0.0881600891,0 L7.87901858,0" id="Fill-59" fill="#FFFFFF"></path>
                    <path d="M0.0881600891,0 L7.87901858,0" id="Stroke-61" stroke="#FEA3A3" stroke-width="1.18725" stroke-linecap="round" stroke-linejoin="round"></path>
                </g>
            </g>
        </g>
    </g>
</svg>