<?xml version="1.0" encoding="UTF-8"?>
<svg width="28px" height="20px" viewBox="0 0 28 20" version="1.1" xmlns="http://www.w3.org/2000/svg" xmlns:xlink="http://www.w3.org/1999/xlink">
    <!-- Generator: sketchtool 39.1 (31720) - http://www.bohemiancoding.com/sketch -->
    <title>6446F16A-B7C0-487C-A84B-1201BEAC4262</title>
    <desc>Created with sketchtool.</desc>
    <defs></defs>
    <g id="Page-1" stroke="none" stroke-width="1" fill="none" fill-rule="evenodd" stroke-linejoin="round">
        <g id="web---Listing-individual-product" transform="translate(-966.000000, -420.000000)" stroke="#3EBBED" stroke-width="1.9">
            <g id="Group-51" transform="translate(967.000000, 421.000000)">
                <path d="M25.869,2.48021006 C25.869,2.48021006 25.062,1.11621006 23.123,1.30321006 C21.183,1.49321006 20.576,2.75121006 20.576,2.75121006 C20.576,2.75121006 20.182,1.37121006 18.863,0.477210057 C18.041,-0.0807899426 16.422,-0.202789943 16,0.399210057" id="Stroke-8" stroke-linecap="round"></path>
                <path d="M1.82275951,13.4136992 C1.67577232,13.0438605 1.59358593,12.6408311 1.59358593,12.2219966 C1.59358593,10.3206462 3.25944078,8.77965139 5.31568097,8.77965139 C5.44528258,8.77965139 5.5764647,8.78597342 5.70448581,8.79861748 C6.30033712,7.72703343 7.45884908,7 8.79437787,7 C10.6925673,7 12.2430451,8.47777447 12.3062654,10.3253877 C12.9353074,9.7358584 13.7887814,9.37392219 14.7291833,9.37392219 C16.671627,9.37392219 18.2442319,10.914917 18.2442319,12.8162674 C18.2442319,13.0043478 18.2284268,13.1876867 18.1983972,13.369445 C19.007617,13.0248944 19.8010318,12.8921318 20.4537813,13.5496229 C22.0516744,15.1554184 20.2435738,16.7153793 20.2435738,16.7153793 C20.063396,16.9034597 19.7046208,17.0567689 19.4469981,17.0567689 L1.38811996,17.0567689 C1.12733623,17.0567689 0.770141548,16.9129427 0.596285728,16.7153793 C0.596285728,16.7153793 -0.3219891,15.9915069 0.120552986,14.7697746 C0.379756208,14.0522242 0.833361846,13.6934491 1.82275951,13.4136992 L1.82275951,13.4136992 Z" id="Stroke-10"></path>
            </g>
        </g>
    </g>
</svg>