<?xml version="1.0" encoding="UTF-8" standalone="no"?>
<svg width="25px" height="25px" viewBox="0 0 25 25" version="1.1" xmlns="http://www.w3.org/2000/svg" xmlns:xlink="http://www.w3.org/1999/xlink">
    <!-- Generator: sketchtool 39.1 (31720) - http://www.bohemiancoding.com/sketch -->
    <title>4BB6A981-DE59-4E8D-A0D1-8F546C9C4FEB</title>
    <desc>Created with sketchtool.</desc>
    <defs></defs>
    <g id="Page-1" stroke="none" stroke-width="1" fill="none" fill-rule="evenodd">
        <g id="Navigation" transform="translate(-54.000000, -947.000000)" fill="#8DDDF6">
            <g id="Group-7-Copy-2" transform="translate(54.000000, 947.000000)">
                <path d="M10.636,0.14 C7.959,0.53 5.433,1.845 3.57,3.804 C1.618,5.828 0.398,8.541 0.191,11.347 C-0.048,14.209 0.757,17.143 2.435,19.475 C4.1,21.825 6.617,23.562 9.414,24.266 C12.287,25.007 15.428,24.669 18.069,23.31 C20.758,21.944 22.912,19.56 23.982,16.741 C25.046,13.991 25.069,10.857 24.052,8.093 C23.035,5.283 20.947,2.881 18.312,1.47 C16.527,0.501 14.498,0.002 12.47,0.002 C11.857,0.002 11.243,0.048 10.636,0.14 L10.636,0.14 Z M7.838,16.137 C7.305,16.109 6.797,15.731 6.736,15.18 C6.452,13.248 6.427,11.263 6.774,9.338 C6.971,8.46 8.016,8.485 8.72,8.406 C11.566,8.133 14.452,8.135 17.286,8.545 C17.821,8.604 18.203,9.096 18.246,9.615 C18.512,11.457 18.483,13.337 18.205,15.176 C18.15,15.724 17.65,16.108 17.121,16.136 C15.579,16.335 14.024,16.435 12.469,16.435 C10.92,16.434 9.372,16.335 7.838,16.137 L7.838,16.137 Z" id="Clip-18"></path>
                <path d="M11.2203044,13.9373729 C11.22016,14.2155185 11.40887,14.3207924 11.6423504,14.1721585 L14.1321622,12.5871408 C14.3653962,12.4386638 14.3657674,12.1981145 14.1324413,12.0495086 L11.6442748,10.4647907 C11.411195,10.3163417 11.222128,10.4242296 11.221985,10.6996271 L11.2203044,13.9373729 Z" id="Clip-21"></path>
            </g>
        </g>
    </g>
</svg>