<?xml version="1.0" encoding="UTF-8" standalone="no"?>
<svg width="25px" height="25px" viewBox="0 0 25 25" version="1.1" xmlns="http://www.w3.org/2000/svg" xmlns:xlink="http://www.w3.org/1999/xlink">
    <!-- Generator: sketchtool 39.1 (31720) - http://www.bohemiancoding.com/sketch -->
    <title>13802BF7-EBCE-471B-A5AF-5E37842CE361</title>
    <desc>Created with sketchtool.</desc>
    <defs></defs>
    <g id="Page-1" stroke="none" stroke-width="1" fill="none" fill-rule="evenodd">
        <g id="Navigation" transform="translate(-54.000000, -880.000000)" fill="#8DDDF6">
            <path d="M64.643585,880.137925 C61.9266566,880.535475 59.3638801,881.868078 57.4714618,883.85887 C55.5334064,885.865888 54.3052615,888.547321 54.0567928,891.326113 C54.0212973,891.689182 54.0030425,892.053264 54,892.416333 L54,892.59381 C54.019269,895.188026 54.8610199,897.775142 56.4025396,899.866335 C58.24425,902.408828 61.0788207,904.208958 64.1669309,904.780943 C67.1019033,905.344815 70.2356506,904.810354 72.8116111,903.290132 C75.3459912,901.814532 77.3286695,899.417063 78.296176,896.64537 C78.7535611,895.351305 78.9878315,893.980164 78.9989872,892.608008 L78.9989872,892.391993 C78.9868173,890.905238 78.7129948,889.421525 78.1775195,888.033143 C77.1420645,885.305059 75.1127349,882.97351 72.5580717,881.562817 C70.7163613,880.531419 68.604885,880 66.4944228,880 C65.8757866,880 65.2561363,880.045637 64.643585,880.137925 L64.643585,880.137925 Z M64.7297884,899.11383 C64.7277601,896.91108 64.7287743,894.705287 64.7287743,892.502536 C64.2957289,892.501522 63.8616694,892.501522 63.42761,892.498479 L63.42761,890.157803 C63.8616694,890.154761 64.2977573,890.153747 64.7297884,890.153747 C64.7419583,888.95197 64.5421693,887.530121 65.4843218,886.600138 C66.289563,885.820251 67.402094,885.852704 68.4740587,885.885157 C68.8310422,885.895299 69.1819407,885.90544 69.5166128,885.886171 C69.5237119,886.648818 69.5237119,887.414507 69.5166128,888.178168 C69.3046538,888.203522 69.0784966,888.188309 68.8513253,888.175125 C68.4162517,888.147743 67.9761072,888.120361 67.6221662,888.36173 C67.3665985,888.911404 67.530892,889.565535 67.4933682,890.157803 L69.5713773,890.157803 C69.5014004,890.936677 69.4334518,891.718592 69.3665174,892.498479 C68.7407821,892.501522 68.1150468,892.501522 67.4893115,892.502536 C67.4893115,894.705287 67.4933682,896.91108 67.4882974,899.11383 C67.0278698,899.114844 66.5684563,899.115858 66.1090429,899.115858 C65.6496295,899.115858 65.1892019,899.114844 64.7297884,899.11383 L64.7297884,899.11383 Z" id="Clip-2-Copy-3"></path>
        </g>
    </g>
</svg>