<?xml version="1.0" encoding="UTF-8" standalone="no"?>
<svg width="23px" height="22px" viewBox="0 0 23 22" version="1.1" xmlns="http://www.w3.org/2000/svg" xmlns:xlink="http://www.w3.org/1999/xlink">
    <!-- Generator: sketchtool 39.1 (31720) - http://www.bohemiancoding.com/sketch -->
    <title>59A7C10B-863E-4B6D-B049-F398A55DF788</title>
    <desc>Created with sketchtool.</desc>
    <defs>
        <polygon id="path-1" points="13.104 13.0227 13.104 0.1717 0.2555 0.1717 0.2555 13.0227 13.104 13.0227"></polygon>
    </defs>
    <g id="Page-1" stroke="none" stroke-width="1" fill="none" fill-rule="evenodd">
        <g id="Navigation" transform="translate(-52.000000, -398.000000)">
            <g id="icon_cart_number3-copy-2" transform="translate(53.000000, 393.000000)">
                <g id="Group-19" transform="translate(0.000000, 6.000000)" stroke="#3EBBED" stroke-width="1.4" stroke-linecap="round" stroke-linejoin="round">
                    <path d="M0,0.0862730396 C0,0.0862730396 3.61909412,-0.468825645 4.35518973,1.23707485 C5.09128534,2.94297534 6.43738374,11.1597208 6.43738374,11.1597208 C6.43738374,11.1597208 17.0504092,10.2211172 18.1872907,9.20376893 C19.3241722,8.18642064 22.531994,2.13628332 20.3912295,1.54494903 C18.250465,0.953614734 4.50916109,1.37482156 4.50916109,1.37482156" id="Path-7"></path>
                    <path d="M7.39126442,11.0744757 C7.39126442,11.0744757 5.99017625,11.1827971 4.71888951,11.6465358 C3.44760277,12.1102745 3.25411551,14.9330541 5.69159773,14.9203262 C8.12907995,14.9075983 17.6988057,14.9226391 17.6988057,14.9226391" id="Path-8"></path>
                    <ellipse id="Oval-8" cx="5.76190476" cy="18.4210526" rx="1.57142857" ry="1.57894737"></ellipse>
                    <ellipse id="Oval-8-Copy" cx="15.1904762" cy="18.4210526" rx="1.57142857" ry="1.57894737"></ellipse>
                </g>
                <g id="Group-21" transform="translate(13.000000, 0.000000)">
                    <g id="Group-9-Copy">
                        <mask id="mask-2" fill="white">
                            <use xlink:href="#path-1"></use>
                        </mask>
                        <g id="Clip-8"></g>
                    </g>
                </g>
            </g>
        </g>
    </g>
</svg>