<?xml version="1.0" encoding="UTF-8" standalone="no"?>
<svg width="25px" height="25px" viewBox="0 0 25 25" version="1.1" xmlns="http://www.w3.org/2000/svg" xmlns:xlink="http://www.w3.org/1999/xlink">
    <!-- Generator: sketchtool 39.1 (31720) - http://www.bohemiancoding.com/sketch -->
    <title>45E71F26-4E27-4F7A-BFB9-6CC7D7D278D4</title>
    <desc>Created with sketchtool.</desc>
    <defs></defs>
    <g id="Page-1" stroke="none" stroke-width="1" fill="none" fill-rule="evenodd">
        <g id="Navigation" transform="translate(-54.000000, -914.000000)" fill="#8DDDF6">
            <g id="Group-6-Copy-2" transform="translate(54.000000, 914.000000)">
                <path d="M12.18,0 C11.554,0.008 10.929,0.062 10.312,0.162 C7.34,0.64 4.575,2.268 2.7,4.623 C0.752,7.036 -0.217,10.206 0.041,13.297 C0.236,15.921 1.314,18.466 3.051,20.439 C5.052,22.742 7.932,24.253 10.965,24.572 C13.988,24.921 17.127,24.091 19.578,22.285 C21.712,20.742 23.326,18.494 24.101,15.974 C24.959,13.221 24.809,10.164 23.675,7.51 C22.504,4.726 20.266,2.414 17.527,1.146 C15.945,0.404 14.202,0.019 12.455,0 L12.18,0 L12.18,0 Z M6.32,15.98 C6.314,13.544 6.314,11.109 6.32,8.673 C6.285,7.721 6.898,6.799 7.791,6.468 C8.255,6.293 8.76,6.316 9.248,6.309 C10.285,6.319 11.322,6.318 12.359,6.315 C13.631,6.312 14.903,6.309 16.176,6.328 C17.373,6.358 18.381,7.47 18.331,8.661 C18.337,11.099 18.337,13.536 18.331,15.975 C18.392,17.246 17.248,18.391 15.977,18.328 C13.543,18.333 11.109,18.333 8.675,18.328 C8.642,18.33 8.607,18.331 8.574,18.331 C7.346,18.331 6.262,17.217 6.32,15.98 L6.32,15.98 Z" id="Clip-5"></path>
                <path d="M15.271,7.638 L15.271,9.686 C15.955,9.686 16.639,9.686 17.324,9.689 C17.327,9.006 17.327,8.319 17.327,7.636 C16.641,7.636 15.955,7.636 15.271,7.638 L15.271,7.638 Z" id="Clip-8"></path>
                <path d="M12.324,10.611 C11.58,10.745 10.936,11.297 10.693,12.012 C10.256,13.161 11.072,14.535 12.271,14.744 C13.437,15.018 14.684,14.09 14.779,12.901 C14.945,11.7 13.872,10.573 12.697,10.573 C12.573,10.573 12.449,10.585 12.324,10.611 L12.324,10.611 Z" id="Clip-11"></path>
                <path d="M15.693,13.005 C15.426,14.505 14.005,15.697 12.477,15.679 C10.935,15.714 9.494,14.505 9.235,12.987 C9.098,12.374 9.237,11.751 9.403,11.16 C8.814,11.164 8.228,11.162 7.641,11.164 C7.646,12.797 7.624,14.431 7.646,16.064 C7.605,16.687 8.171,17.254 8.795,17.215 C11.244,17.228 13.691,17.228 16.137,17.215 C16.758,17.253 17.321,16.69 17.286,16.067 C17.308,14.435 17.286,12.798 17.292,11.164 C16.703,11.162 16.115,11.164 15.527,11.16 C15.695,11.758 15.836,12.388 15.693,13.005 L15.693,13.005 Z" id="Clip-14"></path>
            </g>
        </g>
    </g>
</svg>