<?xml version="1.0" encoding="UTF-8" standalone="no"?>
<svg width="110px" height="15px" viewBox="0 0 110 15" version="1.1" xmlns="http://www.w3.org/2000/svg" xmlns:xlink="http://www.w3.org/1999/xlink">
    <!-- Generator: Sketch 41 (35326) - http://www.bohemiancoding.com/sketch -->
    <title>logo</title>
    <desc>Created with Sketch.</desc>
    <defs></defs>
    <g id="Page-1" stroke="none" stroke-width="1" fill="none" fill-rule="evenodd">
        <g id="logo" fill="#000000">
            <g id="pixel-perfect">
                <g id="Homepage-Final">
                    <g id="fixed-header">
                        <g id="logo">
                            <g id="Logo">
                                <path d="M0.649597132,2.02413894 C0.0821524611,1.0855268 1.38751865,-0.0222343379 2.16440629,0.728986988 C4.0282874,2.48681154 5.71357364,4.43119787 7.60180858,6.14756436 C9.36583878,4.32423583 11.0982089,2.46525336 12.9076998,0.692503797 C13.738166,-0.0479383334 15.0459675,1.25218848 14.312105,2.11700521 C12.4482239,4.13269941 10.469068,6.04806472 8.59625716,8.06210061 C8.45256958,10.0753073 8.66282427,12.1125599 8.49640634,14.1241082 C8.22526688,15.000533 6.88255822,15.000533 6.61466596,14.1241082 C6.50182645,12.1092431 6.67717415,10.0753073 6.53105111,8.06956326 C4.61196785,6.01489833 2.55000894,4.09621622 0.649597132,2.02413894" id="Fill-11"></path>
                                <path d="M21.3646541,2.44684601 C21.3581598,4.1739917 21.3581598,5.90694128 21.3646541,7.6382328 C23.1481675,7.64735348 24.9349279,7.63491622 26.720065,7.64735348 C27.8606367,7.73275734 28.8899925,6.76844121 29.1116127,5.65819253 C29.4866619,4.27266186 28.5230613,2.63174928 27.0999848,2.44684601 C25.1890198,2.42694613 23.2756191,2.43855435 21.3646541,2.44684601 M19.422029,1.47257993 C19.370074,0.908749421 19.9399541,0.428664264 20.4700561,0.505776474 C22.6813855,0.517384701 24.8927146,0.501630647 27.1024203,0.514068129 C29.6360321,0.692338035 31.6574014,3.3589249 31.0867096,5.91440391 C30.7303316,7.99145605 28.7714704,9.61495626 26.7135704,9.57681482 C24.9324927,9.57101068 23.1481675,9.56520655 21.3646541,9.57681482 C21.3354295,11.0916949 21.4076792,12.6115499 21.3329941,14.1280881 C21.0935147,15.0683586 19.5251268,14.9696882 19.4301468,13.9813263 C19.4033576,9.81146779 19.4228408,5.63746362 19.422029,1.47257993" id="Fill-12"></path>
                                <path d="M39.7631732,2.44361221 C39.7664203,4.17407447 39.7664203,5.90702427 39.7631732,7.64163236 C41.6481609,7.64494893 43.5347723,7.64743648 45.4124538,7.64163236 C46.8899205,7.50979558 47.8681333,5.79591641 47.4792836,4.38302345 C47.2438631,3.33662024 46.3038046,2.42205403 45.2176229,2.43449152 C43.3975788,2.446929 41.5832173,2.42951644 39.7631732,2.44361221 M37.7734639,1.66337031 C37.6776722,1.07383581 38.185044,0.452792966 38.7752189,0.512492612 L45.4075829,0.512492612 C47.7463641,0.648475213 49.7709804,2.92369736 49.5095826,5.34236451 C49.4689928,7.55374118 47.5271794,9.43179426 45.4059595,9.57109366 C43.5250306,9.57689779 41.6457255,9.56446026 39.7631732,9.5752395 C39.7160892,11.1067027 39.871142,12.6572368 39.6852409,14.1828959 C39.348346,15.1555035 37.7418041,14.8694425 37.7815819,13.82221 C37.7685933,9.77092176 37.7815819,5.71382934 37.7734639,1.66337031" id="Fill-13"></path>
                                <path d="M55.8468593,0.59333591 C56.437846,0.257525234 57.3105254,0.754193476 57.2463935,1.47141915 C57.2869833,3.65792086 57.1863207,5.85105572 57.2926659,8.03672842 C57.4322946,10.3036589 59.2036311,12.2778948 61.3565112,12.75798 C64.1742511,13.4428683 67.2339061,11.1709627 67.4896215,8.22743582 C67.5919075,5.92236381 67.4522787,3.60651264 67.5545651,1.30392822 C67.6747106,0.248404325 69.3664912,0.244258498 69.4793307,1.30392822 C69.4947548,3.67367492 69.5101788,6.04756744 69.4671538,8.41814313 C69.2146855,12.0440711 65.9366579,15.0547603 62.385867,14.9817939 C58.8318291,15.0506144 55.5676018,12.0067586 55.3240633,8.38165997 C55.2721085,6.07658801 55.309451,3.77234529 55.3029567,1.47141915 C55.2639905,1.08585855 55.5497423,0.779897471 55.8468593,0.59333591" id="Fill-14"></path>
                                <path d="M76.963024,1.47274592 C76.8883393,0.573104505 78.157174,0.146085628 78.6937708,0.825999079 C82.10818,4.30931103 85.5160946,7.80423121 88.9223859,11.2999804 C88.9443049,7.95679713 88.8955971,4.61693017 88.9483635,1.27623419 C89.1350762,0.161010651 90.9112837,0.311918275 90.9015426,1.46196672 C90.9250841,5.57958802 90.9250841,9.70384247 90.9015426,13.8239513 C90.8991065,14.7219344 89.6854735,15.1373449 89.132641,14.4507983 C85.7287849,10.9699738 82.3298002,7.47422442 78.9178263,3.99588756 C78.8804836,7.32580434 78.9356853,10.6524046 78.8918487,13.9773465 C78.7717028,15.0245787 77.0791106,15.0502827 76.9727658,13.9864671 C76.9411057,9.81660861 76.963024,5.64260424 76.963024,1.47274592" id="Fill-15"></path>
                                <path d="M103.318676,8.40404739 C104.819684,8.42145971 106.324752,8.41565566 107.825761,8.40902226 C107.823325,6.99198347 107.833066,5.57328639 107.823325,4.16039344 C106.297962,5.54592389 104.817249,6.98617936 103.318676,8.40404739 M108.149666,0.789018381 C108.679769,0.138125719 109.832517,0.630648356 109.817094,1.46727332 C109.843883,5.58157806 109.843883,9.70334518 109.817094,13.8217956 C109.830894,14.8839527 108.238152,15.1559182 107.91587,14.150144 C107.708051,12.9055708 107.883398,11.6129064 107.825761,10.3484335 C105.644468,10.335167 103.462363,10.3426294 101.277823,10.3451169 C99.8141566,11.7397683 98.4698244,13.2662567 96.9850521,14.6327165 C96.078277,15.3001925 94.9279635,13.9610949 95.6626382,13.1178366 C99.8036035,8.98943605 103.978665,4.89005637 108.149666,0.789018381" id="Fill-16"></path>
                            </g>
                        </g>
                    </g>
                </g>
            </g>
        </g>
    </g>
</svg>