<?xml version="1.0" encoding="UTF-8" standalone="no"?>
<svg width="93px" height="46px" viewBox="0 0 93 46" version="1.1" xmlns="http://www.w3.org/2000/svg" xmlns:xlink="http://www.w3.org/1999/xlink">
    <!-- Generator: Sketch 39.1 (31720) - http://www.bohemiancoding.com/sketch -->
    <title>Logo</title>
    <desc>Created with Sketch.</desc>
    <defs></defs>
    <g id="Page-1" stroke="none" stroke-width="1" fill="none" fill-rule="evenodd">
        <g id="WEB_Buttons-guideline" transform="translate(-225.000000, -578.000000)">
            <g id="Logo" transform="translate(225.000000, 579.000000)">
                <polygon id="Stroke-10" stroke="#3EBBED" stroke-linecap="round" stroke-linejoin="round" points="0.54185537 43.6532162 69.5772035 43.6532162 69.5772035 15.1369599 0.54185537 15.1369599"></polygon>
                <path d="M10.5357546,26.846513 C10.2805306,26.4269273 10.8676553,25.9317273 11.2170821,26.2675441 C12.0554144,27.0533405 12.8134187,27.9225352 13.6627048,28.6897987 C14.4561264,27.8747202 15.235308,27.0437034 16.0491768,26.2512351 C16.422702,25.9202369 17.0109221,26.5014297 16.680847,26.8880268 C15.8425147,27.7890981 14.9523344,28.6453196 14.1099857,29.5456496 C14.0453582,30.4456089 14.1399261,31.3563174 14.065075,32.2555354 C13.9431225,32.6473216 13.339202,32.6473216 13.21871,32.2555354 C13.1679573,31.3548347 13.2468248,30.4456089 13.1811019,29.5489856 C12.3179409,28.6304933 11.3905176,27.7727891 10.5357546,26.846513" id="Fill-11" fill="#3EBBED"></path>
                <path d="M19.8529269,27.0354748 C19.8500059,27.8075569 19.8500059,28.5822335 19.8529269,29.3561689 C20.6551116,29.3602461 21.4587567,29.3546863 22.2616717,29.3602461 C22.7746755,29.398424 23.2376569,28.9673479 23.3373367,28.4710359 C23.5060255,27.8516652 23.0726194,27.1181317 22.4325512,27.0354748 C21.5730416,27.026579 20.7124365,27.0317682 19.8529269,27.0354748 M18.9791773,26.5999508 C18.9558091,26.3479029 19.2121285,26.1332915 19.4505566,26.1677628 C20.4451634,26.172952 21.4397701,26.1659095 22.4336466,26.1714694 C23.5732089,26.251161 24.4823759,27.4431994 24.2256914,28.5855695 C24.0654005,29.5140695 23.1843483,30.2398192 22.2587506,30.2227689 C21.4576614,30.2201743 20.6551116,30.2175797 19.8529269,30.2227689 C19.8397823,30.8999624 19.8722786,31.5793798 19.8386869,32.2573145 C19.7309744,32.6776415 19.0255484,32.6335331 18.9828285,32.1917079 C18.9707793,30.3276653 18.9795424,28.4617695 18.9791773,26.5999508" id="Fill-12" fill="#3EBBED"></path>
                <path d="M28.1281719,27.0340292 C28.1296324,27.8075939 28.1296324,28.5822706 28.1281719,29.3576886 C28.9759975,29.3591712 29.8245534,29.3602832 30.6690928,29.3576886 C31.3336245,29.2987539 31.7736029,28.5326023 31.5987069,27.9009999 C31.49282,27.4332286 31.0700026,27.0243921 30.5814622,27.029952 C29.7628468,27.0355119 28.9467873,27.027728 28.1281719,27.0340292 M27.2332449,26.6852394 C27.1901599,26.4217011 27.4183645,26.1440777 27.683812,26.1707651 L30.666902,26.1707651 C31.7188338,26.2315531 32.6294612,27.2486406 32.5118903,28.329852 C32.4936339,29.3183988 31.6202494,30.1579407 30.6661718,30.2202114 C29.8201718,30.222806 28.9749021,30.2172461 28.1281719,30.2220647 C28.1069946,30.9066713 28.1767339,31.5998031 28.0931197,32.2818151 C27.9415919,32.7165977 27.219005,32.5887205 27.2368962,32.1205785 C27.2310542,30.3095401 27.2368962,28.4959071 27.2332449,26.6852394" id="Fill-13" fill="#3EBBED"></path>
                <path d="M35.3622565,26.2069043 C35.6280692,26.0567876 36.020581,26.2788121 35.9917359,26.5994319 C36.0099923,27.5768589 35.9647165,28.5572511 36.0125482,29.5343075 C36.0753501,30.5476884 36.8720579,31.4302267 37.8403755,31.6448381 C39.1077323,31.9510022 40.4838971,30.9353973 40.5989122,29.619559 C40.6449182,28.5891278 40.5821163,27.553878 40.6281224,26.5245588 C40.6821612,26.0527103 41.4430865,26.050857 41.4938392,26.5245588 C41.5007766,27.5839014 41.507714,28.6450973 41.4883623,29.7048105 C41.3748077,31.325701 39.9004237,32.6715627 38.3033569,32.6389447 C36.7048296,32.6697094 35.2366527,31.3090213 35.1271145,29.6885015 C35.1037464,28.6580703 35.1205422,27.6280098 35.1176212,26.5994319 C35.1000951,26.4270756 35.2286199,26.2903025 35.3622565,26.2069043" id="Fill-14" fill="#3EBBED"></path>
                <path d="M44.8598382,26.600025 C44.8262465,26.1978603 45.3969404,26.006971 45.6382896,26.3109112 C47.174015,27.8680484 48.7068194,29.4303748 50.2388935,30.9930718 C50.2487519,29.498576 50.2268443,28.0055627 50.2505776,26.5121788 C50.3345569,26.0136429 51.1334554,26.0811028 51.1290739,26.5952064 C51.1396626,28.4358975 51.1396626,30.2795538 51.1290739,32.1213569 C51.1279785,32.5227803 50.5821132,32.7084803 50.3334615,32.4015749 C48.8024827,30.8455497 47.2736947,29.2828526 45.7390647,27.7279394 C45.7222689,29.2165047 45.7470975,30.7035874 45.7273806,32.1899288 C45.6733418,32.6580707 44.9120514,32.6695611 44.8642197,32.194006 C44.8499797,30.3299634 44.8598382,28.4640675 44.8598382,26.600025" id="Fill-15" fill="#3EBBED"></path>
                <path d="M56.7140245,29.6985093 C57.3891448,29.7062931 58.0660908,29.7036985 58.7412112,29.7007332 C58.7401158,29.0672775 58.7444974,28.4330805 58.7401158,27.8014781 C58.0540416,28.4208487 57.3880495,29.0646829 56.7140245,29.6985093 M58.886897,26.2943798 C59.1253251,26.0034127 59.6438059,26.223584 59.6368685,26.5975786 C59.6489177,28.4367871 59.6489177,30.2793315 59.6368685,32.1203932 C59.6430756,32.595207 58.9266959,32.7167831 58.7817403,32.2671741 C58.6882678,31.7108153 58.7671353,31.1329584 58.7412112,30.5677039 C57.7601142,30.5617734 56.778652,30.5651093 55.7960944,30.5662213 C55.1377699,31.1896692 54.5331191,31.8720519 53.8653013,32.4828974 C53.4574541,32.7812777 52.9400687,32.1826639 53.2705089,31.805704 C55.1330233,29.9601943 57.010873,28.1276577 58.886897,26.2943798" id="Fill-16" fill="#3EBBED"></path>
                <polyline id="Stroke-17" stroke="#3EBBED" stroke-linecap="round" stroke-linejoin="round" points="91.6464101 0.370473369 91.6464101 28.3944949 69.5773861 43.6530309 69.5416036 15.1371452 91.6464101 0.370473369 30.0121923 0.370473369 0.579280918 15.1371452"></polyline>
            </g>
        </g>
    </g>
</svg>