<?xml version="1.0" encoding="UTF-8"?>
<svg width="37px" height="21px" viewBox="0 0 37 21" version="1.1" xmlns="http://www.w3.org/2000/svg" xmlns:xlink="http://www.w3.org/1999/xlink">
    <!-- Generator: sketchtool 39.1 (31720) - http://www.bohemiancoding.com/sketch -->
    <title>996BA519-F69E-49D5-ACC7-C9ED96F5FE0C</title>
    <desc>Created with sketchtool.</desc>
    <defs></defs>
    <g id="Page-1" stroke="none" stroke-width="1" fill="none" fill-rule="evenodd" stroke-linejoin="round">
        <g id="web---Listing-individual-product" transform="translate(-757.000000, -418.000000)" stroke="#3EBBED" stroke-width="1.5">
            <g id="Page-1" transform="translate(757.000000, 418.000000)">
                <path d="M26.2656,16.9697 C26.2656,16.9697 24.6876,15.6687 22.4186,16.7567 C20.1506,17.8427 19.9696,19.6407 19.9696,19.6407 C19.9696,19.6407 18.8846,18.1387 16.8906,17.6367 C15.6476,17.3237 13.6316,17.8917 13.3866,18.8097" id="Stroke-1" stroke-linecap="round"></path>
                <path d="M9.4258,6.3486 C9.4258,6.3486 8.7158,5.1846 7.0598,5.3156 C5.4028,5.4456 4.8998,6.5016 4.8998,6.5016 C4.8998,6.5016 4.5428,5.3286 3.4028,4.5546 C2.6888,4.0706 1.3028,3.9436 0.9498,4.4466" id="Stroke-3" stroke-linecap="round"></path>
                <path d="M18.6855,6.5166 C18.5575,6.1956 18.4875,5.8456 18.4875,5.4826 C18.4875,3.8316 19.9325,2.4946 21.7165,2.4946 C21.8305,2.4946 21.9435,2.4996 22.0545,2.5106 C22.5715,1.5806 23.5785,0.9506 24.7365,0.9506 C26.3845,0.9506 27.7295,2.2326 27.7855,3.8346 C28.3315,3.3246 29.0725,3.0096 29.8885,3.0096 C31.5745,3.0096 32.9395,4.3476 32.9395,5.9976 C32.9395,6.1616 32.9255,6.3216 32.9005,6.4776 C33.6015,6.1786 34.2895,6.0636 34.8575,6.6346 C36.2445,8.0276 34.6745,9.3816 34.6745,9.3816 C34.5185,9.5456 34.2075,9.6776 33.9845,9.6776 L18.3065,9.6776 C18.0815,9.6776 17.7715,9.5536 17.6205,9.3826 C17.6205,9.3826 16.8225,8.7536 17.2065,7.6936 C17.4325,7.0716 17.8265,6.7586 18.6855,6.5166 L18.6855,6.5166 Z" id="Stroke-5"></path>
            </g>
        </g>
    </g>
</svg>