<?xml version="1.0" encoding="UTF-8"?>
<svg width="102px" height="60px" viewBox="0 0 102 60" version="1.1" xmlns="http://www.w3.org/2000/svg" xmlns:xlink="http://www.w3.org/1999/xlink">
    <!-- Generator: sketchtool 39.1 (31720) - http://www.bohemiancoding.com/sketch -->
    <title>A9B12C64-04FA-441D-BAA9-EA223DBF552B</title>
    <desc>Created with sketchtool.</desc>
    <defs>
        <path d="M23.5300577,10.3286842 C15.8409808,11.3107895 8.58871154,9.11842105 3.47080769,4.89157895 C1.08334615,8.59026316 -0.05125,12.9165789 0.515653846,17.3723684 C1.93488462,28.5307895 13.1759808,33.645 26.0271154,32.0068421 C38.8790385,30.3671053 48.4777692,22.5931579 47.0585385,11.4339474 C46.5066154,7.10921053 44.4305962,3.29921053 41.3477115,0.350526316 C37.4290577,5.56263158 31.0653846,9.36789474 23.5300577,10.3286842 L23.5300577,10.3286842 Z" id="path-1"></path>
        <path d="M23.5308462,10.3286842 C15.8409808,11.3107895 8.58792308,9.11842105 3.47159615,4.89078947 C1.08334615,8.58947368 -0.05125,12.9165789 0.515653846,17.3723684 C1.93567308,28.5315789 13.1751923,33.6457895 26.0271154,32.0068421 C38.8798269,30.3678947 48.4777692,22.5923684 47.0585385,11.4339474 C46.5066154,7.10842105 44.4305962,3.29842105 41.3469231,0.351315789 C37.4298462,5.56184211 31.0645962,9.36710526 23.5308462,10.3286842 L23.5308462,10.3286842 Z" id="path-3"></path>
        <path d="M21.1630962,1.56710526 C8.43811538,3.19263158 0.200269231,6.14842105 0.592923077,9.23763158 C0.985576923,12.3228947 10.783,13.4968421 22.4900769,12.0055263 C34.2018846,10.5102632 43.3906154,6.91342105 42.9963846,3.82578947 C42.7377692,1.78342105 38.8396154,0.745263158 32.5508462,0.745263158 C29.3268269,0.745263158 25.4751923,1.01842105 21.1630962,1.56710526 L21.1630962,1.56710526 Z" id="path-5"></path>
        <path d="M21.1638846,1.56789474 C8.43732692,3.19184211 0.201057692,6.14763158 0.592923077,9.23684211 C0.985576923,12.3228947 10.7822115,13.4968421 22.4908654,12.0055263 C34.2018846,10.5102632 43.3898269,6.91263158 42.9955962,3.825 C42.7377692,1.78342105 38.8396154,0.744473684 32.5508462,0.744473684 C29.3268269,0.744473684 25.4759808,1.01763158 21.1638846,1.56789474 L21.1638846,1.56789474 Z" id="path-7"></path>
    </defs>
    <g id="Page-1" stroke="none" stroke-width="1" fill="none" fill-rule="evenodd">
        <g id="web---Listing-individual-product" transform="translate(-710.000000, -446.000000)">
            <g id="Page-1" transform="translate(711.000000, 446.000000)">
                <g id="Group-3" transform="translate(3.230769, 11.818421)">
                    <mask id="mask-2" fill="white">
                        <use xlink:href="#path-1"></use>
                    </mask>
                    <g id="Clip-2"></g>
                    <polygon id="Stroke-1" stroke="#3EBBED" stroke-width="1.9" stroke-linecap="round" stroke-linejoin="round" mask="url(#mask-2)" points="-7.07076538 0.755526316 50.2417154 -6.55815789 55.3690808 33.7421053 -1.94182308 41.055"></polygon>
                </g>
                <g id="Group-6" transform="translate(3.230769, 11.818421)">
                    <mask id="mask-4" fill="white">
                        <use xlink:href="#path-3"></use>
                    </mask>
                    <g id="Clip-5"></g>
                </g>
                <g id="Group-11" transform="translate(3.230769, 11.818421)" stroke="#3EBBED" stroke-width="1.6" stroke-linecap="round" stroke-linejoin="round">
                    <path d="M41.3465288,0.351552632 C44.4309904,3.29786842 46.5070096,7.10944737 47.0581442,11.4341842 C48.4781635,22.5926053 38.8794327,30.3673421 26.0259327,32.0070789 C13.1755865,33.6468158 1.93606731,28.5310263 0.516048077,17.3733947 C-0.0508557692,12.9176053 1.08452885,8.5905 3.47199038,4.89023684 C8.58752885,9.11865789 15.841375,11.3110263 23.5304519,10.3281316 C31.0642019,9.36655263 37.4294519,5.56286842 41.3465288,0.351552632 L41.3465288,0.351552632 Z" id="Stroke-7"></path>
                    <path d="M41.3465288,0.351552632 C44.4309904,3.29786842 46.5070096,7.10944737 47.0581442,11.4341842 C48.4781635,22.5926053 38.8794327,30.3673421 26.0259327,32.0070789 C13.1755865,33.6468158 1.93606731,28.5310263 0.516048077,17.3733947 C-0.0508557692,12.9176053 1.08452885,8.5905 3.47199038,4.89023684 C8.58752885,9.11865789 15.841375,11.3110263 23.5304519,10.3281316 C31.0642019,9.36655263 37.4294519,5.56286842 41.3465288,0.351552632 L41.3465288,0.351552632 Z" id="Stroke-9"></path>
                </g>
                <g id="Group-14" transform="translate(4.019231, 10.239474)">
                    <mask id="mask-6" fill="white">
                        <use xlink:href="#path-5"></use>
                    </mask>
                    <g id="Clip-13"></g>
                    <polygon id="Stroke-12" stroke="#3EBBED" stroke-width="1.9" stroke-linecap="round" stroke-linejoin="round" mask="url(#mask-6)" points="-6.11057692 -0.431763158 47.0648462 -7.2165 49.7661154 14.0037632 -3.40930769 20.7885"></polygon>
                </g>
                <g id="Group-17" transform="translate(4.019231, 10.239474)">
                    <mask id="mask-8" fill="white">
                        <use xlink:href="#path-7"></use>
                    </mask>
                    <g id="Clip-16"></g>
                </g>
                <g id="Group-50" transform="translate(0.000000, 0.765789)">
                    <path d="M26.5104115,21.4785 C38.2222192,19.9840263 47.4093731,16.3863947 47.0159308,13.2995526 C46.6240654,10.2119211 37.9099885,9.41692105 25.1818538,11.0416579 C12.4560846,12.6656053 4.21981538,15.6213947 4.61246923,18.7098158 C5.00512308,21.7958684 14.8017577,22.9713947 26.5104115,21.4785 L26.5104115,21.4785 Z" id="Stroke-18" stroke="#3EBBED" stroke-width="1.6" stroke-linecap="round" stroke-linejoin="round"></path>
                    <path d="M26.5104115,21.4785 C38.2222192,19.9840263 47.4093731,16.3863947 47.0159308,13.2995526 C46.6240654,10.2119211 37.9099885,9.41692105 25.1818538,11.0416579 C12.4560846,12.6656053 4.21981538,15.6213947 4.61246923,18.7098158 C5.00512308,21.7958684 14.8017577,22.9713947 26.5104115,21.4785" id="Fill-20" fill="#FFFFFF"></path>
                    <path d="M26.5104115,21.4785 C38.2222192,19.9840263 47.4093731,16.3863947 47.0159308,13.2995526 C46.6240654,10.2119211 37.9099885,9.41692105 25.1818538,11.0416579 C12.4560846,12.6656053 4.21981538,15.6213947 4.61246923,18.7098158 C5.00512308,21.7958684 14.8017577,22.9713947 26.5104115,21.4785 L26.5104115,21.4785 Z" id="Stroke-22" stroke="#3EBBED" stroke-width="1.6" stroke-linecap="round" stroke-linejoin="round"></path>
                    <path d="M40.2453327,22.8022105 L45.312775,21.9914211" id="Stroke-24" stroke="#3EBBED" stroke-width="1.6" stroke-linecap="round" stroke-linejoin="round"></path>
                    <path d="M38.9779596,30.0370263 L44.0840365,29.3865" id="Stroke-26" stroke="#3EBBED" stroke-width="1.6" stroke-linecap="round" stroke-linejoin="round"></path>
                    <path d="M17.0241942,29.5512632 L25.1043481,28.5194211" id="Stroke-28" stroke="#3EBBED" stroke-width="1.6" stroke-linecap="round" stroke-linejoin="round"></path>
                    <path d="M20.442175,39.2130789 L25.9385404,38.5120263" id="Stroke-30" stroke="#3EBBED" stroke-width="1.6" stroke-linecap="round" stroke-linejoin="round"></path>
                    <path d="M7.99772885,27.4141579 L12.9587288,26.7817895" id="Stroke-32" stroke="#3EBBED" stroke-width="1.6" stroke-linecap="round" stroke-linejoin="round"></path>
                    <path d="M14.3970404,34.7028947 L19.8918288,34.0026316" id="Stroke-34" stroke="#3EBBED" stroke-width="1.6" stroke-linecap="round" stroke-linejoin="round"></path>
                    <path d="M37.0769,2.23886842 L23.8039385,18.3828158" id="Stroke-36" stroke="#3EBBED" stroke-width="1.6" stroke-linecap="round" stroke-linejoin="round"></path>
                    <path d="M35.5476788,0.185842105 L39.9331019,3.13768421" id="Stroke-38" stroke="#3EBBED" stroke-width="1.6" stroke-linecap="round" stroke-linejoin="round"></path>
                    <path d="M5.862575,17.0838947 C5.862575,17.0838947 10.6690365,19.7073158 20.5319019,19.0181053 C30.3939788,18.3288947 39.3201519,16.9417895 46.0741135,11.3886316" id="Stroke-40" stroke="#3EBBED" stroke-width="1.6" stroke-linecap="round" stroke-linejoin="round"></path>
                    <path d="M0.650528846,57.2415 C5.40889423,57.2793947 5.44122115,52.7975526 10.0710673,52.8236053 C14.7017019,52.8488684 14.8775288,57.3551842 19.7107981,57.3922895 C24.5456442,57.4317632 25.3482981,52.9451842 30.4827596,52.9854474 C35.6148558,53.0265 34.7995865,57.5130789 39.9025096,57.5541316 C45.0062212,57.5943947 45.8553942,53.1078158 50.8952404,53.1472895 C55.9319327,53.1875526 55.4391442,57.6772895 60.4908173,57.7183421 C65.5424904,57.7562368 65.1143558,53.2609737 70.347375,53.3012368 C75.5827596,53.3438684 75.7514904,57.7917632 80.8969904,57.8320263 C86.0432788,57.8738684 87.116375,53.5499211 90.8505288,53.4646579 C94.7549904,53.3770263 96.4273173,56.7465 97.9955673,58.0151842 C99.1664327,58.9641316 100.583298,58.0357105 100.583298,58.0357105 L100.744933,37.5157105 C100.744933,37.5157105 99.3288558,38.4433421 98.1587788,37.4943947 C96.5897404,36.2249211 94.9182019,32.8554474 91.0137404,32.9438684 C87.2787981,33.0275526 86.2064904,37.3530789 81.0594135,37.3120263 C75.9147019,37.2701842 75.7451827,32.8230789 70.511375,32.7820263 C65.2767788,32.7401842 65.704125,37.2378158 60.6524519,37.1959737 C55.6015673,37.1565 56.0935673,32.6659737 51.056875,32.6257105 C46.0186058,32.5862368 45.1686442,37.0728158 40.0649327,37.0325526 C34.9627981,36.9930789 35.7780673,32.5057105 30.6451827,32.4654474 C25.5107212,32.4236053 24.7088558,36.9109737 19.8747981,36.8722895 C15.0399519,36.8343947 14.8649135,32.3265 10.2342788,32.3020263 C5.60443269,32.2775526 5.57210577,36.7586053 0.812951923,36.7207105" id="Fill-42" fill="#FFFFFF"></path>
                    <path d="M20,42.4071011 C25.1021346,42.4465748 25.9528846,37.9607853 30.9895769,38.000259 C36.0278462,38.0397327 35.5350577,42.5294695 40.5875192,42.5705222 C45.6399808,42.6107853 45.2118462,38.1131537 50.4432885,38.1549958 C55.6794615,38.1968379 55.8489808,42.6431537 60.9944808,42.6849958 C66.1407692,42.7244695 67.2138654,38.4013116 70.9488077,38.3176274" id="Stroke-44" stroke="#3EBBED" stroke-width="1.6" stroke-linecap="round" stroke-linejoin="round"></path>
                    <path d="M0.650528846,36.7020789 C5.40889423,36.7399737 5.44122115,32.2589211 10.0710673,32.2841842 C14.7017019,32.3094474 14.8775288,36.8157632 19.7107981,36.8536579 C24.5456442,36.8923421 25.3475096,32.4057632 30.4827596,32.4460263 C35.6148558,32.4862895 34.7995865,36.9736579 39.9025096,37.0147105 C45.0062212,37.0549737 45.8561827,32.5683947 50.8952404,32.6078684 C55.9319327,32.6481316 55.4391442,37.1378684 60.4908173,37.1789211 C65.5424904,37.2176053 65.1143558,32.7215526 70.347375,32.7618158 C75.5827596,32.8044474 75.7522788,37.2523421 80.8969904,37.2926053" id="Stroke-48" stroke="#3EBBED" stroke-width="1.6" stroke-linecap="round" stroke-linejoin="round"></path>
                </g>
            </g>
        </g>
    </g>
</svg>