<?xml version="1.0" encoding="UTF-8" standalone="no"?>
<svg width="14px" height="13px" viewBox="0 0 14 13" version="1.1" xmlns="http://www.w3.org/2000/svg" xmlns:xlink="http://www.w3.org/1999/xlink">
    <!-- Generator: Sketch 41 (35326) - http://www.bohemiancoding.com/sketch -->
    <title>profile</title>
    <desc>Created with Sketch.</desc>
    <defs></defs>
    <g id="Page-1" stroke="none" stroke-width="1" fill="none" fill-rule="evenodd">
        <g id="100-Basic-Element-Icons-Dark" transform="translate(-236.000000, -951.000000)" fill="#000000">
            <path d="M242.813756,958.29569 C244.83431,958.29569 246.473204,956.659483 246.473204,954.642241 C246.473204,952.625 244.83431,951 242.813756,951 C240.793203,951 239.154309,952.636207 239.154309,954.642241 C239.154309,956.648276 240.793203,958.29569 242.813756,958.29569 L242.813756,958.29569 Z M242.813756,951.952586 C244.295496,951.952586 245.507828,953.162931 245.507828,954.642241 C245.507828,956.121552 244.295496,957.331897 242.813756,957.331897 C241.332017,957.331897 240.119685,956.121552 240.119685,954.642241 C240.119685,953.162931 241.332017,951.952586 242.813756,951.952586 Z M236.482688,964 L249.189726,964 C249.459133,964 249.672414,963.787069 249.672414,963.518103 C249.672414,960.996552 247.618184,958.934483 245.081267,958.934483 L240.591147,958.934483 C238.065455,958.934483 236,960.985345 236,963.518103 C236,963.787069 236.213281,964 236.482688,964 L236.482688,964 Z M240.591147,959.898276 L245.081267,959.898276 C246.922216,959.898276 248.437631,961.265517 248.673362,963.036207 L236.999052,963.036207 C237.234783,961.276724 238.750198,959.898276 240.591147,959.898276 Z" id="profile"></path>
        </g>
    </g>
</svg>