<?xml version="1.0" encoding="UTF-8" standalone="no"?>
<svg width="13px" height="13px" viewBox="0 0 13 13" version="1.1" xmlns="http://www.w3.org/2000/svg" xmlns:xlink="http://www.w3.org/1999/xlink">
    <!-- Generator: Sketch 41 (35326) - http://www.bohemiancoding.com/sketch -->
    <title>search</title>
    <desc>Created with Sketch.</desc>
    <defs></defs>
    <g id="Page-1" stroke="none" stroke-width="1" fill="none" fill-rule="evenodd">
        <g id="100-Basic-Element-Icons-Dark" transform="translate(-572.000000, -1104.000000)" fill="#000000">
            <path d="M577.058671,1114.11734 C578.292494,1114.11734 579.41415,1113.6799 580.289042,1112.9396 L584.21484,1116.8654 C584.304573,1116.95513 584.416739,1117 584.540121,1117 C584.663503,1117 584.775669,1116.95513 584.865401,1116.8654 C585.044866,1116.68594 585.044866,1116.39431 584.865401,1116.21484 L580.939603,1112.28904 C581.66868,1111.41415 582.117343,1110.28128 582.117343,1109.05867 C582.117343,1106.26575 579.851596,1104 577.058671,1104 C574.276963,1104 572,1106.27696 572,1109.05867 C572,1111.8516 574.276963,1114.11734 577.058671,1114.11734 L577.058671,1114.11734 Z M577.058671,1104.91976 C579.346851,1104.91976 581.197584,1106.78171 581.197584,1109.05867 C581.197584,1111.34685 579.346851,1113.19758 577.058671,1113.19758 C574.770492,1113.19758 572.919758,1111.33563 572.919758,1109.05867 C572.919758,1106.78171 574.781708,1104.91976 577.058671,1104.91976 L577.058671,1104.91976 Z" id="search"></path>
        </g>
    </g>
</svg>