<?xml version="1.0" encoding="UTF-8" standalone="no"?>
<svg width="79px" height="71px" viewBox="0 0 79 71" version="1.1" xmlns="http://www.w3.org/2000/svg" xmlns:xlink="http://www.w3.org/1999/xlink">
    <!-- Generator: Sketch 39.1 (31720) - http://www.bohemiancoding.com/sketch -->
    <title>Group 8</title>
    <desc>Created with Sketch.</desc>
    <defs></defs>
    <g id="Page-1" stroke="none" stroke-width="1" fill="none" fill-rule="evenodd">
        <g id="WEB_Buttons-guideline" transform="translate(-71.000000, -904.000000)">
            <g id="Group-8" transform="translate(72.000000, 905.000000)">
                <path d="M71.9233478,36.8818463 C71.9233478,54.437578 57.5837826,68.6695293 39.8947391,68.6695293 C22.2051304,68.6695293 7.86613043,54.437578 7.86613043,36.8818463 C7.86613043,19.3255537 22.2051304,5.09360244 39.8947391,5.09360244 C57.5837826,5.09360244 71.9233478,19.3255537 71.9233478,36.8818463" id="Fill-1" fill="#FFFFFF"></path>
                <path d="M71.9702609,36.8314146 C71.9702609,54.3871463 57.6306957,68.6190976 39.9416522,68.6190976 C22.2520435,68.6190976 7.91304348,54.3871463 7.91304348,36.8314146 C7.91304348,19.275122 22.2520435,5.04317073 39.9416522,5.04317073 C57.6306957,5.04317073 71.9702609,19.275122 71.9702609,36.8314146 L71.9702609,36.8314146 Z" id="Stroke-3" stroke="#FEA3A3" stroke-width="0.84" stroke-linecap="round" stroke-linejoin="round"></path>
                <path d="M61.6335087,32.6805317 C63.6055522,32.6805317 65.2045522,31.0963366 65.2045522,29.1413366 C65.2045522,27.1874585 63.6055522,25.6021415 61.6335087,25.6021415 C59.6609,25.6021415 58.0613348,27.1874585 58.0613348,29.1413366 C58.0613348,31.0963366 59.6609,32.6805317 61.6335087,32.6805317" id="Fill-5" fill="#FFFFFF"></path>
                <path d="M61.6335087,32.6805317 C63.6055522,32.6805317 65.2045522,31.0963366 65.2045522,29.1413366 C65.2045522,27.1874585 63.6055522,25.6021415 61.6335087,25.6021415 C59.6609,25.6021415 58.0613348,27.1874585 58.0613348,29.1413366 C58.0613348,31.0963366 59.6609,32.6805317 61.6335087,32.6805317 L61.6335087,32.6805317 Z" id="Stroke-7" stroke="#FEA3A3" stroke-width="0.84" stroke-linecap="round" stroke-linejoin="round"></path>
                <path d="M63.5179435,35.0548049 L61.2531174,35.0548049 C61.1332913,35.0548049 60.9631609,34.9880488 60.8806391,34.9010976 C60.8806391,34.9010976 60.2063348,34.3547073 60.5019435,33.5502683 C60.6765957,33.0784878 60.9784217,32.8400732 61.6414217,32.6577561 C61.5419435,32.4131707 61.4876826,32.1483902 61.4876826,31.8718293 C61.4876826,30.6214146 62.6005957,29.6066098 63.9740739,29.6066098 C64.0616826,29.6066098 64.1487261,29.6105366 64.2335087,29.6189512 C64.6325522,28.9132439 65.4074652,28.4341707 66.2982478,28.4341707 C67.5682913,28.4341707 68.6032043,29.4069024 68.6444652,30.6230976 C69.0672478,30.2354634 69.636987,29.9964878 70.2655087,29.9964878 C71.5615522,29.9964878 72.6134217,31.0112927 72.6134217,32.2628293 C72.6134217,32.3873659 72.6026826,32.5085366 72.5834652,32.6280244 C73.1232478,32.4008293 73.6534217,32.3133171 74.0909,32.7463902 C75.1585957,33.8038293 73.8874217,34.9010976 73.8874217,34.9010976 C73.8009435,34.9869268 73.6347696,35.0548049 73.5126826,35.0548049 L69.8025957,35.0548049" id="Fill-9" fill="#FFFFFF"></path>
                <path d="M63.5179435,35.0548049 L61.2531174,35.0548049 C61.1332913,35.0548049 60.9631609,34.9880488 60.8806391,34.9010976 C60.8806391,34.9010976 60.2063348,34.3547073 60.5019435,33.5502683 C60.6765957,33.0784878 60.9784217,32.8400732 61.6414217,32.6577561 C61.5419435,32.4131707 61.4876826,32.1483902 61.4876826,31.8718293 C61.4876826,30.6214146 62.6005957,29.6066098 63.9740739,29.6066098 C64.0616826,29.6066098 64.1487261,29.6105366 64.2335087,29.6189512 C64.6325522,28.9132439 65.4074652,28.4341707 66.2982478,28.4341707 C67.5682913,28.4341707 68.6032043,29.4069024 68.6444652,30.6230976 C69.0672478,30.2354634 69.636987,29.9964878 70.2655087,29.9964878 C71.5615522,29.9964878 72.6134217,31.0112927 72.6134217,32.2628293 C72.6134217,32.3873659 72.6026826,32.5085366 72.5834652,32.6280244 C73.1232478,32.4008293 73.6534217,32.3133171 74.0909,32.7463902 C75.1585957,33.8038293 73.8874217,34.9010976 73.8874217,34.9010976 C73.8009435,34.9869268 73.6347696,35.0548049 73.5126826,35.0548049 L69.8025957,35.0548049" id="Stroke-11" stroke="#FEA3A3" stroke-width="0.84" stroke-linecap="round" stroke-linejoin="round"></path>
                <path d="M72.1502261,35.0548049 L68.8567043,35.0548049" id="Fill-13" fill="#FFFFFF"></path>
                <path d="M72.1502261,35.0548049 L68.8567043,35.0548049" id="Stroke-15" stroke="#FEA3A3" stroke-width="0.84" stroke-linecap="round" stroke-linejoin="round"></path>
                <path d="M11.5753696,25.466722 L9.54058696,25.466722 M8.53280435,25.466722 L7.1338913,25.466722 C7.05928261,25.466722 6.95415217,25.4252098 6.90328261,25.3719171 C6.90328261,25.3719171 6.48615217,25.0420634 6.66871739,24.5551366 C6.77723913,24.270161 6.96376087,24.1265512 7.37297826,24.0166 C7.31193478,23.8685024 7.27802174,23.7080634 7.27802174,23.5420146 C7.27802174,22.7852585 7.96645652,22.1715512 8.81484783,22.1715512 C8.86967391,22.1715512 8.92336957,22.1732341 8.97536957,22.1782829 C9.22123913,21.7525024 9.7011087,21.462478 10.2505,21.462478 C11.035587,21.462478 11.675413,22.0509415 11.7019783,22.7863805 C11.9619783,22.5513317 12.3152391,22.407722 12.702413,22.407722 C13.5038913,22.407722 14.1538913,23.0214293 14.1538913,23.7776244 C14.1538913,23.8522341 14.1476739,23.9268439 14.1346739,23.9975268 C14.4692826,23.8617707 14.7965435,23.8079171 15.0672826,24.0704537 C15.7257609,24.7088439 14.9406739,25.3719171 14.9406739,25.3719171 C14.8875435,25.4240878 14.7852391,25.466722 14.7095,25.466722 L12.4158478,25.466722" id="Fill-17" fill="#FFFFFF"></path>
                <polygon id="Fill-23" fill="#FFFFFF" points="4.68056522 27.394122 17.2724783 27.394122 17.2724783 19.5354146 4.68056522 19.5354146"></polygon>
                <path d="M11.5753696,25.466722 L9.54058696,25.466722 M8.53280435,25.466722 L7.1338913,25.466722 C7.05928261,25.466722 6.95415217,25.4252098 6.90328261,25.3719171 C6.90328261,25.3719171 6.48615217,25.0420634 6.66871739,24.5551366 C6.77723913,24.270161 6.96376087,24.1265512 7.37297826,24.0166 C7.31193478,23.8685024 7.27802174,23.7080634 7.27802174,23.5420146 C7.27802174,22.7852585 7.96645652,22.1715512 8.81484783,22.1715512 C8.86967391,22.1715512 8.92336957,22.1732341 8.97536957,22.1782829 C9.22123913,21.7525024 9.7011087,21.462478 10.2505,21.462478 C11.035587,21.462478 11.675413,22.0509415 11.7019783,22.7863805 C11.9619783,22.5513317 12.3152391,22.407722 12.702413,22.407722 C13.5038913,22.407722 14.1538913,23.0214293 14.1538913,23.7776244 C14.1538913,23.8522341 14.1476739,23.9268439 14.1346739,23.9975268 C14.4692826,23.8617707 14.7965435,23.8079171 15.0672826,24.0704537 C15.7257609,24.7088439 14.9406739,25.3719171 14.9406739,25.3719171 C14.8875435,25.4240878 14.7852391,25.466722 14.7095,25.466722 L12.4158478,25.466722" id="Stroke-30" stroke="#FEA3A3" stroke-width="0.84" stroke-linecap="round" stroke-linejoin="round"></path>
                <path d="M8.53291739,25.466722 L7.13343913,25.466722 C7.05939565,25.466722 6.95426522,25.4252098 6.90339565,25.3719171 C6.90339565,25.3719171 6.48626522,25.0420634 6.66883043,24.5551366 C6.77791739,24.270161 6.96387391,24.1265512 7.3730913,24.0166 C7.31204783,23.8685024 7.27813478,23.7080634 7.27813478,23.5420146 C7.27813478,22.7852585 7.96656957,22.1715512 8.81496087,22.1715512 C8.86978696,22.1715512 8.92291739,22.1732341 8.97548261,22.1782829 C9.22135217,21.7525024 9.70065652,21.462478 10.250613,21.462478 C11.0357,21.462478 11.6755261,22.0509415 11.7015261,22.7863805 C11.9615261,22.5513317 12.314787,22.407722 12.7025261,22.407722 C13.5040043,22.407722 14.1540043,23.0214293 14.1540043,23.7776244 C14.1540043,23.8522341 14.147787,23.9268439 14.134787,23.9975268 C14.4693957,23.8617707 14.7966565,23.8079171 15.0673957,24.0704537 C15.7264391,24.7088439 14.940787,25.3719171 14.940787,25.3719171 C14.8882217,25.4240878 14.7853522,25.466722 14.709613,25.466722 L12.4159609,25.466722" id="Fill-32" fill="#FFFFFF"></path>
                <path d="M8.53291739,25.466722 L7.13343913,25.466722 C7.05939565,25.466722 6.95426522,25.4252098 6.90339565,25.3719171 C6.90339565,25.3719171 6.48626522,25.0420634 6.66883043,24.5551366 C6.77791739,24.270161 6.96387391,24.1265512 7.3730913,24.0166 C7.31204783,23.8685024 7.27813478,23.7080634 7.27813478,23.5420146 C7.27813478,22.7852585 7.96656957,22.1715512 8.81496087,22.1715512 C8.86978696,22.1715512 8.92291739,22.1732341 8.97548261,22.1782829 C9.22135217,21.7525024 9.70065652,21.462478 10.250613,21.462478 C11.0357,21.462478 11.6755261,22.0509415 11.7015261,22.7863805 C11.9615261,22.5513317 12.314787,22.407722 12.7025261,22.407722 C13.5040043,22.407722 14.1540043,23.0214293 14.1540043,23.7776244 C14.1540043,23.8522341 14.147787,23.9268439 14.134787,23.9975268 C14.4693957,23.8617707 14.7966565,23.8079171 15.0673957,24.0704537 C15.7264391,24.7088439 14.940787,25.3719171 14.940787,25.3719171 C14.8882217,25.4240878 14.7853522,25.466722 14.709613,25.466722 L12.4159609,25.466722" id="Stroke-34" stroke="#FEA3A3" stroke-width="0.84" stroke-linecap="round" stroke-linejoin="round"></path>
                <path d="M11.5753696,25.466722 L9.54058696,25.466722" id="Fill-36" fill="#FFFFFF"></path>
                <path d="M11.5753696,25.466722 L9.54058696,25.466722" id="Stroke-38" stroke="#FEA3A3" stroke-width="0.84" stroke-linecap="round" stroke-linejoin="round"></path>
                <path d="M15.8106565,40.549 L14.1568304,40.549 C14.069787,40.549 13.9454391,40.5007561 13.8855261,40.4384878 C13.8855261,40.4384878 13.3932217,40.044122 13.6085696,39.4646341 C13.7363087,39.1246829 13.9578739,38.9530244 14.4400043,38.8211951 C14.368787,38.6439268 14.3292217,38.4543171 14.3292217,38.2540488 C14.3292217,37.353122 15.1414391,36.6210488 16.1447,36.6210488 C16.2091348,36.6210488 16.2718739,36.6238537 16.334613,36.6300244 C16.6245696,36.1206585 17.1909174,35.7767805 17.8420478,35.7767805 C18.7695696,35.7767805 19.5247,36.477439 19.5552217,37.3542439 C19.8638304,37.0743171 20.2803957,36.9032195 20.7399174,36.9032195 C21.6866565,36.9032195 22.4542217,37.6341707 22.4542217,38.5356585 C22.4542217,38.6259756 22.4468739,38.7140488 22.4321783,38.7993171 C22.8272652,38.6360732 23.2138739,38.5732439 23.5332217,38.8851463 C24.3126565,39.6469512 23.3840043,40.4384878 23.3840043,40.4384878 C23.3223957,40.4996341 23.2003087,40.549 23.1115696,40.549 L20.4019174,40.549" id="Fill-40" fill="#FFFFFF"></path>
                <path d="M15.8106565,40.549 L14.1568304,40.549 C14.069787,40.549 13.9454391,40.5007561 13.8855261,40.4384878 C13.8855261,40.4384878 13.3932217,40.044122 13.6085696,39.4646341 C13.7363087,39.1246829 13.9578739,38.9530244 14.4400043,38.8211951 C14.368787,38.6439268 14.3292217,38.4543171 14.3292217,38.2540488 C14.3292217,37.353122 15.1414391,36.6210488 16.1447,36.6210488 C16.2091348,36.6210488 16.2718739,36.6238537 16.334613,36.6300244 C16.6245696,36.1206585 17.1909174,35.7767805 17.8420478,35.7767805 C18.7695696,35.7767805 19.5247,36.477439 19.5552217,37.3542439 C19.8638304,37.0743171 20.2803957,36.9032195 20.7399174,36.9032195 C21.6866565,36.9032195 22.4542217,37.6341707 22.4542217,38.5356585 C22.4542217,38.6259756 22.4468739,38.7140488 22.4321783,38.7993171 C22.8272652,38.6360732 23.2138739,38.5732439 23.5332217,38.8851463 C24.3126565,39.6469512 23.3840043,40.4384878 23.3840043,40.4384878 C23.3223957,40.4996341 23.2003087,40.549 23.1115696,40.549 L20.4019174,40.549" id="Stroke-42" stroke="#FEA3A3" stroke-width="0.84" stroke-linecap="round" stroke-linejoin="round"></path>
                <path d="M19.407813,40.549 L17.0022478,40.549" id="Fill-44" fill="#FFFFFF"></path>
                <path d="M19.407813,40.549 L17.0022478,40.549" id="Stroke-46" stroke="#FEA3A3" stroke-width="0.84" stroke-linecap="round" stroke-linejoin="round"></path>
                <path d="M0.189347826,28.5405878 L5.58886957,28.5405878" id="Fill-48" fill="#FFFFFF"></path>
                <path d="M0.189347826,28.5405878 L5.58886957,28.5405878" id="Stroke-50" stroke="#FEA3A3" stroke-width="0.84" stroke-linecap="round" stroke-linejoin="round"></path>
                <path d="M11.1448435,32.2368 L14.640713,32.2368" id="Fill-52" fill="#FFFFFF"></path>
                <path d="M11.1448435,32.2368 L14.640713,32.2368" id="Stroke-54" stroke="#FEA3A3" stroke-width="0.84" stroke-linecap="round" stroke-linejoin="round"></path>
                <path d="M7.75517826,34.9113073 L11.251613,34.9113073" id="Fill-56" fill="#FFFFFF"></path>
                <path d="M7.75517826,34.9113073 L11.251613,34.9113073" id="Stroke-58" stroke="#FEA3A3" stroke-width="0.84" stroke-linecap="round" stroke-linejoin="round"></path>
                <path d="M65.5806478,24.2664585 L69.0776478,24.2664585" id="Fill-60" fill="#FFFFFF"></path>
                <path d="M65.5806478,24.2664585 L69.0776478,24.2664585" id="Stroke-62" stroke="#FEA3A3" stroke-width="0.84" stroke-linecap="round" stroke-linejoin="round"></path>
                <path d="M73.9954348,27.5681927 L77.4918696,27.5681927" id="Fill-64" fill="#FFFFFF"></path>
                <path d="M73.9954348,27.5681927 L77.4918696,27.5681927" id="Stroke-66" stroke="#FEA3A3" stroke-width="0.84" stroke-linecap="round" stroke-linejoin="round"></path>
                <path d="M38.8862783,48.6157732 C38.8862783,48.6157732 49.337713,35.4317244 45.7519739,13.798822" id="Stroke-68" stroke="#FEA3A3" stroke-width="0.84" stroke-linecap="round"></path>
                <path d="M31.7647652,48.8666415 C31.7647652,48.8666415 46.1738522,35.8845439 42.9430696,14.1899341" id="Stroke-70" stroke="#FEA3A3" stroke-width="0.84" stroke-linecap="round"></path>
                <path d="M51.0517348,20.0733902 C50.7041261,19.2902683 49.7788652,16.9442683 48.1103435,15.8273659 C46.3937783,14.6790488 43.842387,14.7918049 43.0109522,14.9090488 C40.2498652,15.2933171 37.0038217,16.5560732 34.5547348,18.2911707 C30.5292565,21.1426098 30.2941261,22.9697073 30.2941261,22.9697073 C30.2941261,22.9697073 29.3293,20.493 31.2798652,16.8113171 C33.2281696,13.1296341 37.6843435,11.3199268 37.6843435,11.3199268 C37.6843435,11.3199268 31.5596478,10.9513659 26.594213,14.6240732 C21.6270826,18.2950976 22.8869522,18.4072927 22.8869522,18.4072927 C22.8869522,18.4072927 22.0131261,13.8179512 26.3811261,9.97134146 C30.7502565,6.12865854 36.1870826,6.4815122 36.1870826,6.4815122 C36.1870826,6.4815122 35.6111261,5.06897561 31.0797783,4.12541463 C26.5473,3.18185366 22.1024304,4.52034146 22.1024304,4.52034146 C22.1024304,4.52034146 29.7396478,-0.58902439 35.8428652,0.908219512 C41.9477783,2.40546341 45.5403,6.65485366 45.5403,6.65485366 C45.5403,6.65485366 45.155387,4.45078049 49.3165174,1.58139024 C52.6761696,-0.734317073 59.0625609,0.222146341 59.0625609,0.222146341 C59.0625609,0.222146341 53.4058652,1.52473171 51.252387,4.85131707 C49.0977783,8.18014634 49.8009087,7.7465122 55.8351696,6.90392683 C61.8683,6.06302439 67.7471261,11.4579268 67.7471261,11.4579268 C67.7471261,11.4579268 61.3788217,10.6377805 56.4054739,10.9306098 C52.8734304,11.1387317 50.1513435,12.3706341 50.4322565,12.7851951 C51.109387,13.778122 52.5071696,15.2663902 53.5499957,17.5613415 C55.3168652,21.4460976 53.1995609,25.7925366 53.1995609,25.7925366 C53.1995609,25.7925366 52.3523,23.0117805 51.0517348,20.0733902" id="Fill-72" fill="#FFFFFF"></path>
                <path d="M51.0517348,20.0733902 C50.7041261,19.2902683 49.7788652,16.9442683 48.1103435,15.8273659 C46.3937783,14.6790488 43.842387,14.7918049 43.0109522,14.9090488 C40.2498652,15.2933171 37.0038217,16.5560732 34.5547348,18.2911707 C30.5292565,21.1426098 30.2941261,22.9697073 30.2941261,22.9697073 C30.2941261,22.9697073 29.3293,20.493 31.2798652,16.8113171 C33.2281696,13.1296341 37.6843435,11.3199268 37.6843435,11.3199268 C37.6843435,11.3199268 31.5596478,10.9513659 26.594213,14.6240732 C21.6270826,18.2950976 22.8869522,18.4072927 22.8869522,18.4072927 C22.8869522,18.4072927 22.0131261,13.8179512 26.3811261,9.97134146 C30.7502565,6.12865854 36.1870826,6.4815122 36.1870826,6.4815122 C36.1870826,6.4815122 35.6111261,5.06897561 31.0797783,4.12541463 C26.5473,3.18185366 22.1024304,4.52034146 22.1024304,4.52034146 C22.1024304,4.52034146 29.7396478,-0.58902439 35.8428652,0.908219512 C41.9477783,2.40546341 45.5403,6.65485366 45.5403,6.65485366 C45.5403,6.65485366 45.155387,4.45078049 49.3165174,1.58139024 C52.6761696,-0.734317073 59.0625609,0.222146341 59.0625609,0.222146341 C59.0625609,0.222146341 53.4058652,1.52473171 51.252387,4.85131707 C49.0977783,8.18014634 49.8009087,7.7465122 55.8351696,6.90392683 C61.8683,6.06302439 67.7471261,11.4579268 67.7471261,11.4579268 C67.7471261,11.4579268 61.3788217,10.6377805 56.4054739,10.9306098 C52.8734304,11.1387317 50.1513435,12.3706341 50.4322565,12.7851951 C51.109387,13.778122 52.5071696,15.2663902 53.5499957,17.5613415 C55.3168652,21.4460976 53.1995609,25.7925366 53.1995609,25.7925366 C53.1995609,25.7925366 52.3523,23.0117805 51.0517348,20.0733902 L51.0517348,20.0733902 Z" id="Stroke-74" stroke="#FEA3A3" stroke-width="0.84" stroke-linecap="round" stroke-linejoin="round"></path>
                <path d="M55.6562217,56.2601317 L59.1617,56.2472293" id="Stroke-76" stroke="#FEA3A3" stroke-width="0.84" stroke-linecap="round"></path>
                <path d="M61.5910043,56.2601317 L65.0964826,56.2472293" id="Stroke-78" stroke="#FEA3A3" stroke-width="0.84" stroke-linecap="round"></path>
                <path d="M48.6782174,56.2875073 L53.6317826,56.272361" id="Stroke-80" stroke="#FEA3A3" stroke-width="0.84" stroke-linecap="round"></path>
                <path d="M42.1915,56.3072537 L46.0790652,56.2943512" id="Stroke-82" stroke="#FEA3A3" stroke-width="0.84" stroke-linecap="round"></path>
                <path d="M33.2948087,56.3346293 L40.0915478,56.3138732" id="Stroke-84" stroke="#FEA3A3" stroke-width="0.84" stroke-linecap="round"></path>
                <path d="M25.4927174,56.3587512 L30.1433261,56.3475317" id="Stroke-86" stroke="#FEA3A3" stroke-width="0.84" stroke-linecap="round"></path>
                <path d="M14.6476087,56.3894366 L22.484913,56.3675585" id="Stroke-88" stroke="#FEA3A3" stroke-width="0.84" stroke-linecap="round"></path>
                <path d="M42.8058348,58.5999049 L47.7588348,58.5858805" id="Stroke-90" stroke="#FEA3A3" stroke-width="0.84" stroke-linecap="round"></path>
                <path d="M36.3185522,58.6201561 L40.204987,58.6083756" id="Stroke-92" stroke="#FEA3A3" stroke-width="0.84" stroke-linecap="round"></path>
                <path d="M27.4212957,58.6475878 L34.2174696,58.6273927" id="Stroke-94" stroke="#FEA3A3" stroke-width="0.84" stroke-linecap="round"></path>
                <path d="M19.6192043,58.6722146 L24.269813,58.6615561" id="Stroke-96" stroke="#FEA3A3" stroke-width="0.84" stroke-linecap="round"></path>
                <path d="M41.9707261,60.9451756 L46.6219,60.9345171" id="Stroke-98" stroke="#FEA3A3" stroke-width="0.84" stroke-linecap="round"></path>
                <path d="M31.9215565,60.9753 L38.9619043,60.9539829" id="Stroke-100" stroke="#FEA3A3" stroke-width="0.84" stroke-linecap="round"></path>
                <path d="M57.3077304,51.6770171 L62.2601652,51.6629927" id="Stroke-102" stroke="#FEA3A3" stroke-width="0.84" stroke-linecap="round"></path>
                <path d="M50.8215217,51.6978293 L54.7079565,51.6860488" id="Stroke-104" stroke="#FEA3A3" stroke-width="0.84" stroke-linecap="round"></path>
                <path d="M54.0014348,53.8716098 L56.0497826,53.8598293" id="Stroke-106" stroke="#FEA3A3" stroke-width="0.84" stroke-linecap="round"></path>
                <path d="M58.0992609,53.8716098 L60.1476087,53.8598293" id="Stroke-108" stroke="#FEA3A3" stroke-width="0.84" stroke-linecap="round"></path>
                <path d="M47.4307826,62.9173415 L49.4791304,62.905561" id="Stroke-110" stroke="#FEA3A3" stroke-width="0.84" stroke-linecap="round"></path>
                <path d="M24.2795348,62.9200902 L29.8373174,62.903261" id="Stroke-112" stroke="#FEA3A3" stroke-width="0.84" stroke-linecap="round"></path>
                <path d="M18.8509043,60.9753 L25.8912522,60.9539829" id="Stroke-114" stroke="#FEA3A3" stroke-width="0.84" stroke-linecap="round"></path>
                <path d="M34.3601304,62.9173415 L36.4084783,62.905561" id="Stroke-116" stroke="#FEA3A3" stroke-width="0.84" stroke-linecap="round"></path>
                <path d="M38.8112174,62.9173415 L44.6041304,62.905561" id="Stroke-118" stroke="#FEA3A3" stroke-width="0.84" stroke-linecap="round"></path>
                <path d="M40.9539565,51.7252049 L48.7200435,51.7044488" id="Stroke-120" stroke="#FEA3A3" stroke-width="0.84" stroke-linecap="round"></path>
                <path d="M63.115,53.8989854 L66.9302174,53.8782293" id="Stroke-122" stroke="#FEA3A3" stroke-width="0.84" stroke-linecap="round"></path>
                <path d="M34.1227957,51.7487659 L37.3224913,51.7392293" id="Stroke-124" stroke="#FEA3A3" stroke-width="0.84" stroke-linecap="round"></path>
                <path d="M24.0724957,51.7794512 L31.1128435,51.7586951" id="Stroke-126" stroke="#FEA3A3" stroke-width="0.84" stroke-linecap="round"></path>
                <path d="M16.7677391,51.8018902 L19.8996087,51.7929146" id="Stroke-128" stroke="#FEA3A3" stroke-width="0.84" stroke-linecap="round"></path>
                <path d="M11.538913,51.8018902 L14.2474348,51.7929146" id="Stroke-130" stroke="#FEA3A3" stroke-width="0.84" stroke-linecap="round"></path>
                <path d="M46.1601739,53.9674805 L50.5196957,53.9540171" id="Stroke-132" stroke="#FEA3A3" stroke-width="0.84" stroke-linecap="round"></path>
                <path d="M37.5687565,53.9937902 L42.5223217,53.9786439" id="Stroke-134" stroke="#FEA3A3" stroke-width="0.84" stroke-linecap="round"></path>
                <path d="M31.0825478,54.0134805 L34.9689826,54.0017" id="Stroke-136" stroke="#FEA3A3" stroke-width="0.84" stroke-linecap="round"></path>
                <path d="M22.185913,54.0409122 L28.9815217,54.0201561" id="Stroke-138" stroke="#FEA3A3" stroke-width="0.84" stroke-linecap="round"></path>
                <path d="M13.2345652,54.064978 L17.5833478,54.0548805" id="Stroke-140" stroke="#FEA3A3" stroke-width="0.84" stroke-linecap="round"></path>
                <path d="M10.2671739,49.0068854 L37.8673043,49.0068854 L37.9351304,49.0052024 C37.9351304,49.0052024 47.0560435,45.5305195 55.6812609,47.681861 C62.8821304,49.4786659 67.7000435,52.8456415 67.7000435,52.8456415" id="Stroke-142" stroke="#FEA3A3" stroke-width="0.84" stroke-linecap="round" stroke-linejoin="round"></path>
                <path d="M29.6021304,48.7560171 C29.6021304,48.7560171 35.2893478,43.5316512 34.8185217,32.5948707" id="Stroke-144" stroke="#FEA3A3" stroke-width="0.84" stroke-linecap="round"></path>
                <path d="M25.2216957,48.6623341 C25.2216957,48.6623341 34.847913,40.892261 33.4190435,32.5948707" id="Stroke-146" stroke="#FEA3A3" stroke-width="0.84" stroke-linecap="round"></path>
                <path d="M35.209087,36.0239463 C35.0960435,35.6161171 33.818087,32.950922 33.4037826,32.950922 C32.0274783,32.950922 30.3533043,33.3464098 29.0374783,34.0274341 C26.8732609,35.1465805 26.631913,36.0239463 26.631913,36.0239463 C26.631913,36.0239463 26.3323478,34.7466049 27.539087,33.0816293 C28.7463913,31.4155317 31.049087,30.8354829 31.049087,30.8354829 C31.049087,30.8354829 28.0822609,30.236922 25.4014348,31.6920927 C22.7211739,33.1489463 23.3293478,33.2897512 23.3293478,33.2897512 C23.3293478,33.2897512 23.2202609,30.9869463 25.6190435,29.4055561 C28.020087,27.8258488 30.6517391,28.3688732 30.6517391,28.3688732 C30.6517391,28.3688732 30.4691739,27.6396049 28.3202174,26.8693854 C26.1701304,26.1002878 24.7084783,25.6228976 24.7084783,25.6228976 C24.7084783,25.6228976 27.7742174,24.4751415 30.6517391,25.6228976 C33.5309565,26.7706537 34.918,29.0829951 34.918,29.0829951 C34.918,29.0829951 35.1531304,27.1330439 37.3857391,26.0144585 C37.8526087,25.7810927 38.7886087,25.2391902 40.3146957,25.0501415 C41.8407826,24.8622146 42.2353043,25.6228976 42.2353043,25.6228976 C42.2353043,25.6228976 40.0128696,27.1122878 38.7315217,28.5915805 C37.4490435,30.0703122 37.3088696,30.5286293 40.3146957,30.5286293 C41.6864783,30.5286293 43.8772609,29.7780439 44.5266957,30.3294829 C45.1778261,30.8775561 41.782,32.7484098 39.954087,32.7484098 C38.2024783,32.7484098 36.5073913,32.8606049 36.615913,33.0816293 C36.8781739,33.6134341 37.2297391,34.2176049 37.5813043,35.409678 C38.1747826,37.4297512 36.615913,39.850361 36.615913,39.850361 C36.615913,39.850361 35.6420435,37.5475561 35.209087,36.0239463" id="Fill-148" fill="#FFFFFF"></path>
                <path d="M35.209087,36.0239463 C35.0960435,35.6161171 33.818087,32.950922 33.4037826,32.950922 C32.0274783,32.950922 30.3533043,33.3464098 29.0374783,34.0274341 C26.8732609,35.1465805 26.631913,36.0239463 26.631913,36.0239463 C26.631913,36.0239463 26.3323478,34.7466049 27.539087,33.0816293 C28.7463913,31.4155317 31.049087,30.8354829 31.049087,30.8354829 C31.049087,30.8354829 28.0822609,30.236922 25.4014348,31.6920927 C22.7211739,33.1489463 23.3293478,33.2897512 23.3293478,33.2897512 C23.3293478,33.2897512 23.2202609,30.9869463 25.6190435,29.4055561 C28.020087,27.8258488 30.6517391,28.3688732 30.6517391,28.3688732 C30.6517391,28.3688732 30.4691739,27.6396049 28.3202174,26.8693854 C26.1701304,26.1002878 24.7084783,25.6228976 24.7084783,25.6228976 C24.7084783,25.6228976 27.7742174,24.4751415 30.6517391,25.6228976 C33.5309565,26.7706537 34.918,29.0829951 34.918,29.0829951 C34.918,29.0829951 35.1531304,27.1330439 37.3857391,26.0144585 C37.8526087,25.7810927 38.7886087,25.2391902 40.3146957,25.0501415 C41.8407826,24.8622146 42.2353043,25.6228976 42.2353043,25.6228976 C42.2353043,25.6228976 40.0128696,27.1122878 38.7315217,28.5915805 C37.4490435,30.0703122 37.3088696,30.5286293 40.3146957,30.5286293 C41.6864783,30.5286293 43.8772609,29.7780439 44.5266957,30.3294829 C45.1778261,30.8775561 41.782,32.7484098 39.954087,32.7484098 C38.2024783,32.7484098 36.5073913,32.8606049 36.615913,33.0816293 C36.8781739,33.6134341 37.2297391,34.2176049 37.5813043,35.409678 C38.1747826,37.4297512 36.615913,39.850361 36.615913,39.850361 C36.615913,39.850361 35.6420435,37.5475561 35.209087,36.0239463 L35.209087,36.0239463 Z" id="Stroke-150" stroke="#FEA3A3" stroke-width="0.84" stroke-linecap="round" stroke-linejoin="round"></path>
            </g>
        </g>
    </g>
</svg>