<?xml version="1.0" standalone="no"?>
<!DOCTYPE svg PUBLIC "-//W3C//DTD SVG 1.1//EN" "http://www.w3.org/Graphics/SVG/1.1/DTD/svg11.dtd" >
<svg xmlns="http://www.w3.org/2000/svg">
<metadata></metadata>
<defs>
<font id="bm_hanna_ttfregular" horiz-adv-x="520" >
<font-face units-per-em="2048" ascent="1638" descent="-410" />
<missing-glyph horiz-adv-x="500" />
<glyph horiz-adv-x="0" />
<glyph unicode="&#xd;" />
<glyph />
<glyph />
<glyph />
<glyph />
<glyph />
<glyph />
<glyph />
<glyph />
<glyph />
<glyph />
<glyph unicode="&#x9;" />
<glyph unicode="&#xa;" />
<glyph />
<glyph />
<glyph />
<glyph />
<glyph />
<glyph />
<glyph />
<glyph />
<glyph />
<glyph />
<glyph />
<glyph />
<glyph />
<glyph />
<glyph />
<glyph />
<glyph />
<glyph />
<glyph />
<glyph />
<glyph unicode=" " />
<glyph unicode="!" horiz-adv-x="696" d="M201 248v1143h305v-1143h-305zM217 63h277v-247h-277v247z" />
<glyph unicode="&#x22;" horiz-adv-x="796" d="M113 1028v348h225l-41 -348h-184zM461 1028v348h225l-41 -348h-184z" />
<glyph unicode="#" horiz-adv-x="1474" d="M51 293v205h228l88 368h-254v205h301l75 318h289l-73 -318h253l72 318h291l-70 -318h174v-205h-219l-80 -368h238v-205h-281l-86 -397h-301l88 397h-258l-90 -397h-299l94 397h-180zM573 498h258l82 368h-256z" />
<glyph unicode="$" horiz-adv-x="1273" d="M96 918q0 86 30 152.5t85 114.5t132 77.5t171 40.5v147h299v-156q168 -31 301 -123v-272q-59 49 -137 87t-164 61v-316q88 -27 163 -57.5t127 -78.5t79.5 -122t25.5 -188q-2 -86 -34.5 -149.5t-86 -107.5t-124 -72t-150.5 -42v-180h-299v172q-106 12 -207.5 48t-191.5 91 v311q84 -53 183 -98t216 -63v354q-86 27 -143.5 46t-91.5 36q-96 41 -139.5 116.5t-43.5 170.5zM410 918q0 -29 29.5 -53.5t74.5 -45.5v230q-104 -33 -104 -131zM813 197q53 10 83 39t36 86q4 49 -32 82.5t-87 56.5v-264z" />
<glyph unicode="%" horiz-adv-x="1484" d="M55 928v250q0 45 15.5 86t43 69.5t65.5 46t81 17.5h178q104 0 159.5 -66.5t55.5 -175.5v-229q0 -45 -19.5 -82t-49 -62.5t-66.5 -40t-74 -14.5h-186q-37 0 -72.5 10.5t-64.5 34t-47.5 61t-18.5 95.5zM240 946.5q0 -18.5 6 -36t21.5 -31t45.5 -13.5h58q47 0 66.5 30 t19.5 60v193q0 35 -16.5 62.5t-69.5 27.5h-39q-33 0 -51.5 -10t-27.5 -26.5t-11 -35t-2 -37.5v-153v-30.5zM246 -43l762 1370h256l-756 -1370h-262zM815 16v250q0 45 19.5 86t50 70t71.5 46t84 17h179q104 0 149 -66.5t45 -174.5v-230q0 -45 -15.5 -81.5t-40 -62.5t-57 -40 t-69.5 -14h-193q-37 0 -75.5 10t-71.5 33.5t-54.5 61.5t-21.5 95zM1020 66q0 -12 1 -31t9 -36t24.5 -30.5t47.5 -13.5h57q47 0 62.5 29.5t15.5 60.5v193q0 35 -16.5 62.5t-69.5 27.5h-39q-33 0 -51.5 -10.5t-27.5 -27t-11 -34.5t-2 -37v-153z" />
<glyph unicode="&#x26;" horiz-adv-x="1318" d="M57 156v280q0 59 12.5 96t33 61.5t47 42t55.5 40.5q-27 33 -42.5 76t-15.5 102v225q0 70 25 127.5t67 98.5t99 63.5t125 22.5h147q154 0 231 -85t77 -227v-229q0 -82 -22 -131t-73 -80q41 -33 63.5 -62.5t45.5 -80.5l43 -97l88 127l244 2l-234 -342l148 -311h-242 l-72 152q-147 -176 -305 -177h-178q-61 0 -126 16.5t-119 52.5t-88 94.5t-34 142.5zM319 184q0 -49 39 -86t113 -37h96q55 0 107.5 41t124.5 121l-78 172q-23 45 -43.5 73t-42 42t-45 19.5t-49.5 5.5h-88q-59 0 -96.5 -33t-37.5 -80v-238zM406 879q0 -45 26.5 -77t83.5 -32 h55q59 0 86 27.5t27 81.5v206q0 41 -31.5 73t-81.5 32h-55q-47 0 -78.5 -32t-31.5 -73v-206z" />
<glyph unicode="'" horiz-adv-x="354" d="M72 1028v348h225l-41 -348h-184z" />
<glyph unicode="(" horiz-adv-x="720" d="M141 483q0 98 19.5 220t58.5 246t98.5 240t139.5 202h196q-117 -213 -172 -439.5t-55 -464.5q0 -117 13.5 -221t41 -203.5t66.5 -198t92 -200.5h-203q-86 88 -143 183.5t-91 196.5t-47.5 211t-13.5 228z" />
<glyph unicode=")" horiz-adv-x="661" d="M55 1391h197q80 -86 139.5 -202t98 -240t58 -245.5t19.5 -220.5q0 -119 -14 -228.5t-48 -210.5t-90.5 -196.5t-142.5 -183.5h-202q51 102 91 200.5t67.5 198t41 204t13.5 220.5q0 238 -55.5 464.5t-172.5 439.5z" />
<glyph unicode="*" horiz-adv-x="1116" d="M80 551v164h307l-147 221l170 115l147 -234l154 234l166 -115l-144 -221h303v-164h-303l144 -223l-166 -113l-154 231l-147 -231l-170 113l147 223h-307z" />
<glyph unicode="+" horiz-adv-x="942" d="M123 506v221h244v283h243v-283h260v-221h-260v-273h-243v273h-244z" />
<glyph unicode="," horiz-adv-x="436" d="M106 -84v207h234v-170q0 -78 -48 -150.5t-126 -119.5l-60 59q33 33 61 73t32 101h-93z" />
<glyph unicode="-" horiz-adv-x="856" d="M100 516v213h668v-213h-668z" />
<glyph unicode="." horiz-adv-x="440" d="M106 -102v225h226v-225h-226z" />
<glyph unicode="/" horiz-adv-x="860" d="M98 -104l434 1493h277l-424 -1493h-287z" />
<glyph unicode="0" horiz-adv-x="1198" d="M94 264v760q0 102 45 173t114 114t148.5 62.5t147.5 19.5h94q84 0 165 -19.5t145.5 -63.5t104.5 -115t40 -173v-739q0 -84 -28 -155t-80 -122t-127 -79.5t-171 -28.5h-213q-76 0 -145.5 19.5t-122.5 62.5t-85 112.5t-32 171.5zM367 285.5q0 -31.5 13 -57t47.5 -41 t102.5 -15.5h86q33 0 55.5 15.5t37 41t19.5 57t5 66.5v672q0 35 -6 67.5t-19.5 59.5t-35 42t-54.5 15h-90q-35 0 -63.5 -15t-51 -42t-34.5 -59.5t-12 -67.5v-672v-66.5z" />
<glyph unicode="1" horiz-adv-x="790" d="M84 1114v279h559v-1495h-369v1216h-190z" />
<glyph unicode="2" horiz-adv-x="1175" d="M45 -102l637 747q27 33 48.5 72t36.5 76.5t23.5 71.5t8.5 59l-2 67q0 33 -19.5 64.5t-49.5 56.5t-64.5 40t-67.5 15h-55q-33 0 -66 -15t-59.5 -40t-43 -56.5t-16.5 -64.5v-39h-239v56q0 86 34.5 159.5t95 128t144.5 85t182 30.5q135 0 235.5 -37t165 -99.5t96.5 -143 t32 -166.5q0 -59 -7.5 -108.5t-22.5 -94.5t-43 -88t-66 -88q-47 -53 -138.5 -147.5t-246.5 -250.5h499v-290h-1032z" />
<glyph unicode="3" horiz-adv-x="1142" d="M45 59v328q18 -43 71.5 -86t118 -77t130 -54t112.5 -20q129 0 205 64.5t76 199.5q0 104 -54.5 172.5t-135.5 112.5t-174 70t-171 46h-2l291 393h-412v183h875l-352 -469q100 -16 185 -56.5t146.5 -105t95 -153.5t33.5 -201q0 -117 -39.5 -216.5t-116.5 -171 t-190.5 -110.5t-259.5 -37q-47 0 -105.5 15.5t-118.5 41t-114.5 59t-93.5 72.5z" />
<glyph unicode="4" horiz-adv-x="1312" d="M104 371v1011h291v-749h318v665h229v-665h330v-262h-330v-496h-229v496h-609z" />
<glyph unicode="5" horiz-adv-x="1239" d="M152 2v279q14 -23 41.5 -48.5t63.5 -49t78 -45t85 -36.5q16 -6 42.5 -11t55.5 -8t54.5 -3t39.5 2q47 6 80 29.5t52.5 56.5t27.5 69.5t8 71.5q0 39 -6 81t-24.5 81t-53 70.5t-94.5 52.5q-57 20 -116.5 28.5t-117 10.5t-111.5 0t-101 -4v764h866v-293h-662v-221 q70 2 122 -1.5t118 -11.5q96 -12 187.5 -43.5t163 -92t115.5 -154t44 -230.5q0 -133 -42 -219t-101.5 -136t-125 -73.5t-110.5 -32.5q-16 -4 -49 -7t-75 -5t-86 0t-81 10q-16 2 -49 10.5t-72.5 22.5t-84 35.5t-82.5 50.5z" />
<glyph unicode="6" horiz-adv-x="1146" d="M82.5 413.5q21.5 118.5 69.5 217.5l407 762h318l-252 -578q98 -2 178 -31.5t136 -85t87 -133.5t31 -176v-125q0 -72 -25.5 -140.5t-77 -123.5t-127 -90t-176.5 -37h-92h-64.5t-33.5 2q-61 6 -120.5 31.5t-109 65.5t-86 94.5t-53.5 117.5q-31 111 -9.5 229.5zM358 291 q0 -41 16.5 -74t43 -56.5t60.5 -36.5t67 -13h108q82 0 136.5 51t54.5 123v75q0 74 -46 133.5t-143 59.5l-100 2q-43 0 -80 -15.5t-62.5 -42t-40 -63.5t-14.5 -76v-67z" />
<glyph unicode="7" horiz-adv-x="1132" d="M66 1210v179h1040l-674 -1489h-299l584 1310h-651z" />
<glyph unicode="8" horiz-adv-x="1173" d="M90 256v121q0 78 38 148.5t108 111.5q-39 41 -78 100.5t-47 136.5v187q0 80 30.5 141.5t82.5 104.5t120 65.5t141 22.5h197q76 0 143.5 -22.5t118.5 -65.5t81 -104.5t30 -141.5v-187q-10 -78 -49 -137t-78 -100q86 -41 116.5 -110.5t30.5 -147.5v-123q0 -102 -37 -174 t-93 -118t-125.5 -67.5t-137.5 -21.5h-197q-66 0 -136 21.5t-127.5 67.5t-94.5 118t-37 174zM358 975q0 -23 14.5 -51.5t39 -56t57.5 -46t70 -18.5h90q37 0 69.5 18.5t56 46t37 56t13.5 51.5v90q0 66 -50 114t-126 48h-90q-37 0 -70 -13.5t-57.5 -37t-39 -53t-14.5 -62.5 v-86zM365 317q0 -33 13 -62.5t37.5 -51t57.5 -34.5t72 -13h90q74 0 125 48t51 113v105q0 23 -13.5 49.5t-37 49t-56 37.5t-69.5 15h-90q-39 0 -72 -15t-57.5 -37.5t-37.5 -49.5t-13 -49v-105z" />
<glyph unicode="9" horiz-adv-x="1097" d="M68 850v147q0 82 28.5 155t81.5 126t129 84t170 31h170q127 0 230.5 -65t144.5 -206q39 -137 13.5 -274t-97.5 -248l-461 -704h-309l319 577q-14 0 -37.5 2t-50 5t-49 7.5t-35.5 8.5q-53 16 -99 49t-79 79t-51 103t-18 123zM283 895q0 -86 46 -124t111 -42l131 -6 q33 -2 67 9t61.5 31.5t44 49.5t16.5 64v88q0 51 -16.5 88t-43 60.5t-59.5 34.5t-66 11h-124q-33 0 -63 -14.5t-53.5 -38t-37.5 -54t-14 -65.5v-92z" />
<glyph unicode=":" horiz-adv-x="399" d="M86 123v225h225v-225h-225zM86 778v226h225v-226h-225z" />
<glyph unicode=";" horiz-adv-x="399" d="M86 -33q33 33 60.5 73t31.5 101h-92v207h233v-170q0 -78 -48 -150.5t-126 -119.5zM86 778v226h225v-226h-225z" />
<glyph unicode="&#x3c;" horiz-adv-x="944" d="M117 352v336l712 610v-309q-133 -129 -243 -229q-47 -43 -93.5 -85t-83 -76t-62 -56.5t-32.5 -24.5q6 0 32 -21.5t62.5 -55t83 -76.5t93.5 -89q111 -106 243 -241v-299z" />
<glyph unicode="=" horiz-adv-x="1073" d="M94 293v205h873v-205h-873zM94 702v205h873v-205h-873z" />
<glyph unicode="&#x3e;" horiz-adv-x="937" d="M117 35q133 135 243 241q47 45 92.5 88.5t83 77t63.5 55t32 21.5q-6 2 -32 24.5t-63.5 56.5t-82.5 76t-93 85q-111 100 -243 229v309l712 -610v-336l-712 -616v299z" />
<glyph unicode="?" horiz-adv-x="1071" d="M96 973q0 178 121 299q129 119 309 119q94 0 181.5 -29t150.5 -86q43 -39 73 -95.5t42 -119t7 -126t-32 -118.5l-256 -586h-262l289 639q12 27 16 62t0 69.5t-17 67.5t-36 59q-66 61 -156 62q-49 0 -76.5 -15.5t-56.5 -46.5q-55 -61 -55 -155h-242zM416 68h268v-236h-268 v236z" />
<glyph unicode="@" horiz-adv-x="1488" d="M92 223v725q0 100 45 181t118 139.5t163 90.5t180 32h332q100 0 186 -32t148.5 -90.5t97.5 -139t35 -181.5v-571q0 -96 -40 -148.5t-95 -74.5q-41 -16 -89.5 -15.5t-93.5 14t-80.5 39t-52.5 62.5q-27 -37 -64.5 -56.5t-72.5 -19.5h-158q-31 0 -63.5 13.5t-59 41t-44 71.5 t-17.5 106v270q0 49 16.5 92t47 76t71.5 52.5t90 19.5h94q20 0 53 -8.5t56 -30.5v84h180v-508q0 -45 15.5 -74t35 -36t35 11.5t15.5 65.5v502q0 39 -23 73.5t-56.5 61t-75.5 42t-81 15.5h-340q-39 0 -82 -15.5t-80 -42t-60.5 -61t-23.5 -73.5v-682q0 -41 19.5 -81t53.5 -71 t79 -50t94 -19h692v-207h-731q-68 0 -149.5 20.5t-152.5 68.5t-119 126t-48 192zM690 436q0 -43 17.5 -75.5t76.5 -32.5h19q45 0 71.5 35.5t26.5 72.5v232q0 41 -23.5 72.5t-74.5 31.5h-37q-35 0 -55.5 -31.5t-20.5 -72.5v-232z" />
<glyph unicode="A" horiz-adv-x="1433" d="M33 -102l532 1493h289l528 -1493h-272l-92 309h-553l-103 -309h-329zM547 383h383l-187 633h-4z" />
<glyph unicode="B" horiz-adv-x="1282" d="M90 -102v1491h608q143 0 237.5 -32t150 -86t77 -123t21.5 -142q0 -80 -20.5 -134.5t-50.5 -90.5t-62.5 -55t-57.5 -32q137 -53 187 -141q46 -81 45 -193v-18q-4 -113 -47 -196t-121 -138t-187.5 -82.5t-244.5 -27.5h-535zM428 780h281q59 0 111 13.5t90 40t59.5 68.5 t21.5 97q0 100 -76.5 150.5t-216.5 50.5h-270v-420zM436 145h297q70 0 121 19.5t85 52.5t50.5 74t16.5 84q0 57 -20.5 100t-56.5 70.5t-82 42t-97 14.5h-314v-457z" />
<glyph unicode="C" horiz-adv-x="1333" d="M90 317v607q0 96 34 181t97.5 147.5t154.5 99.5t204 37h225q84 0 154.5 -26t126 -70t95.5 -105.5t64 -132.5l-280 -88q-27 57 -77 93t-110 36h-155q-53 0 -92 -19.5t-65 -50.5t-38 -69.5t-12 -79.5v-490q0 -51 7 -93t27.5 -73t56.5 -48t93 -17h174q94 0 139.5 58 t51.5 140h295q0 -106 -35 -190t-96.5 -143.5t-145.5 -91t-182 -31.5h-277q-68 0 -143.5 20.5t-140 68.5t-107.5 129t-43 201z" />
<glyph unicode="D" horiz-adv-x="1308" d="M84 -102v1491h618q86 0 178.5 -20.5t169 -75t126.5 -148.5q48 -90 47 -231v-11l-2 -493q0 -135 -52.5 -232.5t-132.5 -159t-177 -91t-191 -29.5h-584zM414 221h260q55 0 107.5 11.5t92 38t64.5 71.5t25 115v370q0 139 -69 204t-239 65h-241v-875z" />
<glyph unicode="E" horiz-adv-x="1169" d="M88 -100v1489h1016v-236h-678v-365h559v-202h-559v-463h678v-223h-1016z" />
<glyph unicode="F" horiz-adv-x="1134" d="M117 -102v1491h999v-203h-653v-410h575v-198h-575v-680h-346z" />
<glyph unicode="G" horiz-adv-x="1286" d="M68 352v568q0 98 34.5 184t101 148.5t161 99.5t215.5 37h145q100 0 179 -25t138.5 -70t99.5 -105.5t64 -133.5l-291 -88q-12 27 -26.5 51t-36 41.5t-51 28t-74.5 10.5h-125q-111 0 -167 -59.5t-56 -141.5v-514q0 -117 53 -175t152 -58h139q72 0 114 20t63.5 57t27.5 87.5 t6 109.5l-2 92h-242v174h535v-332q0 -221 -94.5 -334.5t-286.5 -129.5q-62 -7 -125 -7q-12 0 -23 1q-75 1 -170 6q-84 2 -165.5 29.5t-146 82.5t-105.5 140t-41 206z" />
<glyph unicode="H" horiz-adv-x="1325" d="M84 -102v1493h360v-594h525v594h278v-1493h-278v671h-525v-671h-360z" />
<glyph unicode="I" horiz-adv-x="501" d="M104 -102v1491h299v-1491h-299z" />
<glyph unicode="J" horiz-adv-x="1122" d="M70 455h290q0 -88 5.5 -153.5t24 -110t54 -66t97.5 -21.5q61 0 96 18.5t52.5 48.5t21.5 70t4 83v1065h319v-1065q0 -238 -120.5 -353.5t-346.5 -115.5q-186 0 -286.5 53t-147.5 139t-55 193.5t-8 214.5z" />
<glyph unicode="K" horiz-adv-x="1185" d="M78 -100v1489h303v-414l727 409v-335l-563 -334l590 -463v-352l-754 551v-551h-303z" />
<glyph unicode="L" horiz-adv-x="1146" d="M84 -104v1493h332v-1274h680v-219h-1012z" />
<glyph unicode="M" horiz-adv-x="1449" d="M74 -102v1493h344l323 -363l320 361h305v-1491h-305v1101l-324 -284l-319 282v-1099h-344z" />
<glyph unicode="N" horiz-adv-x="1359" d="M84 -102v1493h362l543 -1035v1035h299v-1493h-315l-527 933v-933h-362z" />
<glyph unicode="O" horiz-adv-x="1320" d="M72 305v641q0 100 39 182t105.5 140.5t154.5 90.5t186 32h209q100 0 186 -32t148.5 -90.5t97.5 -139t35 -181.5v-649q0 -90 -38 -165t-98.5 -127t-133 -80.5t-140.5 -28.5h-303q-68 0 -146.5 20.5t-146 68.5t-111.5 125.5t-44 192.5zM375 346q0 -84 47 -143.5t162 -59.5 h129q98 0 157.5 52.5t59.5 150.5v580q0 39 -13.5 73.5t-40 61t-66.5 42t-95 15.5h-115q-55 0 -97 -16.5t-71 -43t-43 -61t-14 -73.5v-578z" />
<glyph unicode="P" horiz-adv-x="1286" d="M76 -102v1495h614q74 0 165 -15.5t172 -68t136.5 -153.5t55.5 -275q0 -121 -39 -203t-109 -133t-167 -73.5t-212 -25.5h-291v-548h-325zM401 639h261q121 0 187 57.5t66 180.5t-55 182t-180 61h-279v-481z" />
<glyph unicode="Q" horiz-adv-x="1415" d="M66 340v618q0 98 31.5 183.5t96 148t162 99t226.5 36.5h215q94 0 182 -30.5t156.5 -90t109.5 -146.5t41 -200v-616q0 -45 -8 -79t-21.5 -60.5t-29 -47t-27.5 -36.5q53 -63 103.5 -121.5t99.5 -99.5h-309q-10 8 -23 20l-24.5 24.5t-32.5 34.5q-23 -20 -53.5 -35.5 t-64.5 -24.5t-68.5 -14t-63.5 -5h-242q-70 0 -149.5 23.5t-148 76.5t-113.5 137t-45 205zM375 393q0 -43 8 -86t30.5 -76.5t63.5 -54t107 -20.5h121q41 0 77.5 5t73.5 15q-55 49 -90 101.5t-54.5 102.5t-26.5 95t-7 80h258q0 -66 26.5 -132.5t73.5 -109.5q4 12 10.5 29.5 t6.5 30.5v524q0 111 -72 177.5t-199 66.5h-178q-111 0 -170 -61.5t-59 -141.5v-545z" />
<glyph unicode="R" horiz-adv-x="1316" d="M72 -102v1491h710q147 0 237.5 -48.5t139.5 -115t64.5 -138t15.5 -120.5q0 -123 -54.5 -219.5t-164.5 -133.5q45 -20 84 -42.5t66.5 -62.5t43 -104.5t15.5 -168.5v-338h-350q14 27 23 53t12.5 58t4.5 73t1 98q0 76 -9.5 132.5t-37 94t-79 56t-137.5 18.5h-231v-583h-354z M426 733h274q121 0 180.5 46t59.5 157q0 29 -8 62.5t-31.5 63.5t-66.5 49t-111 19h-297v-397z" />
<glyph unicode="S" horiz-adv-x="1302" d="M76 53v330q111 -72 245 -125t293 -53q55 0 107.5 7t94.5 22.5t69.5 42t34.5 67.5q1 8 1 16q0 39 -25 69q-30 36 -73 60.5t-90 40t-78 21.5q-160 41 -259 72.5t-128 48.5q-190 106 -190 303q0 104 50 182t130 130t178.5 78t194.5 26q135 0 262 -36t235 -112v-287 q-43 37 -95 71t-109.5 58.5t-119.5 38.5q-40 9 -79 8q-20 0 -41 -2q-100 -10 -159.5 -43.5t-59.5 -111.5q0 -39 35 -70t83 -54.5t96 -39.5t77 -25q104 -31 192 -61.5t151.5 -78.5t97.5 -122q30 -67 30 -168v-24q-4 -117 -62.5 -199t-146.5 -134t-192.5 -76.5t-198.5 -24.5 q-137 0 -284.5 40.5t-266.5 114.5z" />
<glyph unicode="T" horiz-adv-x="1359" d="M35 1075v316h1294v-316h-475v-1177h-317v1177h-502z" />
<glyph unicode="U" horiz-adv-x="1366" d="M74 381v999h332v-981q0 -29 7 -59.5t26.5 -58t52 -45t86.5 -17.5h204q51 0 86 17.5t56.5 45t31 61.5t9.5 69v968h329v-1040q0 -117 -37.5 -201t-101 -137t-147.5 -78.5t-179 -25.5h-272q-111 0 -203 35.5t-156 100.5q-66 64 -98 152q-27 74 -27 162q0 16 1 33z" />
<glyph unicode="V" horiz-adv-x="1462" d="M20 1391h367q74 -291 131 -525q25 -98 48.5 -194.5t42 -173t30.5 -126.5t12 -57q2 6 21.5 56.5t48.5 127t63.5 173t71.5 194.5q84 233 193 525h399l-623 -1493h-344z" />
<glyph unicode="W" horiz-adv-x="1972" d="M33 1391h370l316 -996l221 652h94l295 -725l316 1069h297l-492 -1493h-250l-213 530l-213 -530h-250z" />
<glyph unicode="X" horiz-adv-x="1372" d="M18 -102l439 778l-412 713h438l244 -445l231 445h330l-381 -682l445 -809h-445l-274 508l-264 -508h-351z" />
<glyph unicode="Y" horiz-adv-x="1378" d="M27 1389h364l307 -693l291 693h350l-460 -963v-528h-398v551z" />
<glyph unicode="Z" horiz-adv-x="1179" d="M57 -102v309l678 973h-678v211h1065v-193l-731 -989h733v-311h-1067z" />
<glyph unicode="[" horiz-adv-x="655" d="M96 -205v1678h496v-185h-258v-1308h258v-185h-496z" />
<glyph unicode="\" horiz-adv-x="860" d="M57 -104l475 1493h277l-465 -1493h-287z" />
<glyph unicode="]" horiz-adv-x="724" d="M96 -20h258v1308h-258v185h496v-1678h-496v185z" />
<glyph unicode="^" horiz-adv-x="1032" d="M29 924l319 479h279l319 -479h-250q-68 104 -103.5 158.5t-51.5 80.5q-20 29 -21 33l-176 -272h-315z" />
<glyph unicode="_" horiz-adv-x="1132" d="M121 4h872v-184h-872v184z" />
<glyph unicode="`" horiz-adv-x="452" d="M72 1376h237l62 -409h-197z" />
<glyph unicode="a" horiz-adv-x="1091" d="M57 180v371q0 59 20.5 111.5t58.5 92.5t92.5 62.5t123.5 22.5h111q14 0 38.5 -3t51.5 -12.5t52.5 -25t45.5 -39.5v114h254v-591q0 -88 34 -197t99 -213h-241l-56 119q-37 -45 -85 -68.5t-97 -23.5h-244q-43 0 -89 16t-83 50t-61.5 87t-24.5 127zM285 207q0 -16 3 -40 t15 -44.5t35.5 -34.5t64.5 -14h68q61 0 100 29.5t39 103.5v287q0 47 -14 79.5t-36.5 52t-49.5 29t-51 9.5h-56q-49 0 -83.5 -40t-34.5 -89v-328z" />
<glyph unicode="b" horiz-adv-x="989" d="M82 -102v1491h268v-574q29 27 69 43t99 16h139q51 0 99.5 -18t85.5 -52t59.5 -80t22.5 -103v-443q0 -59 -27 -109.5t-70 -89t-96 -60t-108 -21.5h-109q-51 0 -90 15t-74 42v-57h-268zM365 264q0 -25 13 -47t33.5 -38.5t47 -27t51.5 -10.5h94q78 0 113 38t35 102v286 q0 74 -42 113t-106 39h-90q-78 0 -113.5 -42t-35.5 -91v-322z" />
<glyph unicode="c" horiz-adv-x="911" d="M61 176v406q0 63 33 111t82 80t109.5 47.5t115.5 15.5h125q57 0 109.5 -26t94.5 -67t69.5 -91t36.5 -99l-215 -29q-10 43 -50.5 71t-85.5 28h-71q-25 0 -50.5 -9.5t-46 -26t-34 -37t-13.5 -44.5v-295q0 -16 10.5 -37.5t30 -41t46 -33t57.5 -13.5h86q63 0 102 30.5 t39 73.5v35h209v-49q0 -61 -25.5 -112.5t-64.5 -88t-87 -57t-93 -20.5h-213q-47 0 -100.5 14t-98.5 46t-76 85t-31 133z" />
<glyph unicode="d" horiz-adv-x="1011" d="M57 178v443q0 57 22.5 103t59.5 80t85 52t100 18h159q57 0 91 -8t77 -30v553h269v-1491h-269v71q-35 -33 -79 -52t-93 -19h-100q-78 0 -137.5 21.5t-100.5 60t-62.5 89t-21.5 109.5zM268 276q0 -63 24.5 -109t102.5 -46h99h-2q51 0 98 36t47 101v307q0 49 -36 91t-114 42 h-71q-63 0 -105.5 -38.5t-42.5 -112.5v-271z" />
<glyph unicode="e" horiz-adv-x="1017" d="M57 188v363q0 68 31 126t82 102t119.5 68.5t144.5 24.5h117q72 0 137.5 -22.5t115.5 -63.5t79.5 -101t29.5 -134v-232h-608v-94q0 -18 7 -44.5t25.5 -50.5t51.5 -40t84 -16h80q147 0 147 135h232v-62q0 -74 -29 -122t-76 -76.5t-108.5 -39.5t-126.5 -11h-197 q-51 0 -105 14t-102.5 48t-83 90t-47.5 138zM305 473h375v62q0 27 -13.5 52t-36 44.5t-51 31t-57.5 11.5h-65q-29 0 -56.5 -11.5t-49 -31t-34 -45t-12.5 -51.5v-62z" />
<glyph unicode="f" horiz-adv-x="684" d="M31 438v176h164v265q0 121 67.5 167t167.5 46h193v-191h-117q-72 0 -72 -86v-201h213v-176h-213v-540h-239v540h-164z" />
<glyph unicode="g" horiz-adv-x="946" d="M59 174v344q0 59 23.5 111.5t63.5 90.5t93.5 60.5t114.5 22.5h127q70 0 142 -37v108h254v-1069q0 -80 -32 -133t-78 -87t-100.5 -48t-97.5 -14h-211q-43 0 -90 16.5t-85 51t-63.5 88t-25.5 124.5h236q2 -20 6 -40.5t15 -37t29.5 -26.5t47.5 -10h88q47 0 77 29.5t30 64.5 v178q-18 -20 -59.5 -31.5t-67.5 -11.5h-156q-59 0 -109.5 18.5t-89.5 52.5t-60.5 81t-21.5 104zM289 199q0 -43 26.5 -84t87.5 -41h84q47 0 84 28.5t37 106.5v293q0 66 -46 95.5t-95 29.5h-43q-61 0 -98 -36t-37 -102v-290z" />
<glyph unicode="h" horiz-adv-x="1060" d="M96 -102v1493h277v-564q31 16 75 29.5t89 13.5h110q61 0 121.5 -20.5t110 -64.5t80 -114.5t30.5 -170.5v-602h-227v565q0 55 -13.5 90t-36 55.5t-50 28.5t-54.5 8h-96q-18 0 -43 -5t-46.5 -15.5t-35.5 -26.5t-14 -37v-663h-277z" />
<glyph unicode="i" horiz-adv-x="522" d="M133 -102v972h248v-972h-248zM133 1057v241h248v-241h-248z" />
<glyph unicode="j" horiz-adv-x="667" d="M74 -299q92 16 145 63.5t53 133.5v972h232v-991q0 -86 -36 -160.5t-95.5 -130t-137 -87t-161.5 -31.5v231zM266 1059v239h238v-239h-238z" />
<glyph unicode="k" horiz-adv-x="972" d="M100 -102v1491h260v-818l553 308v-277l-366 -215l366 -217v-279l-553 318v-311h-260z" />
<glyph unicode="l" horiz-adv-x="495" d="M117 -102v1493h268v-1493h-268z" />
<glyph unicode="m" horiz-adv-x="1427" d="M88 -102v995h297v-107q10 16 49 32t74 16h102q55 0 104.5 -25t82.5 -66q29 41 82 66t96 25h92q57 0 106.5 -26t85 -72t56 -110.5t20.5 -140.5v-587h-198v548q0 63 -22.5 111.5t-84.5 50.5h-5q-110 0 -110 -166v-544h-225v548q0 63 -33.5 112.5t-103.5 49.5 q-55 0 -88 -18.5t-51.5 -48t-23.5 -66.5t-5 -74v-503h-297z" />
<glyph unicode="n" horiz-adv-x="1081" d="M76 -102v997h301v-82q29 16 67.5 27.5t73.5 11.5h150q70 0 131 -24.5t106 -69.5t72 -111.5t27 -148.5v-600h-209v546q0 31 -11.5 62t-32 53.5t-46 36.5t-52.5 14h-139q-23 0 -46.5 -10t-44 -28.5t-33.5 -43t-13 -51.5v-579h-301z" />
<glyph unicode="o" horiz-adv-x="1009" d="M59 207v364q0 63 30 118.5t80 96.5t117.5 63.5t143.5 22.5h127q86 0 156.5 -24.5t122 -65.5t79 -98t27.5 -121v-377q0 -63 -22.5 -116.5t-65.5 -91t-102.5 -59t-133.5 -21.5h-229q-66 0 -126 18t-105 56t-72 96.5t-27 138.5zM315 229q0 -16 5.5 -41.5t20.5 -48t43 -39 t71 -16.5h92q35 0 60.5 13.5t43 33t25.5 43t8 45.5v291q0 49 -40 95t-112 46h-57q-29 0 -56.5 -8t-51 -25.5t-38 -44t-14.5 -65.5v-279z" />
<glyph unicode="p" horiz-adv-x="1032" d="M68 -530v1433h268v-72q35 27 85 42.5t101 15.5h123q61 0 116.5 -23.5t98.5 -63.5t67.5 -92.5t24.5 -111.5v-434q0 -57 -26.5 -103.5t-68.5 -78t-94 -48t-104 -16.5h-190q-43 0 -77 12.5t-56 30.5v-491h-268zM350 244q0 -66 34 -105t93 -39h115q31 0 59.5 7.5t51 26t36 48 t13.5 74.5v217q0 92 -41 132t-107 40h-112q-25 0 -50.5 -10t-45 -28.5t-33 -41t-13.5 -47.5v-274z" />
<glyph unicode="q" horiz-adv-x="1021" d="M57 164v434q0 59 24.5 111.5t68 92.5t98.5 63.5t117 23.5h122q51 0 101.5 -15.5t85.5 -42.5v72h268v-1433h-268v491q-23 -18 -56.5 -30.5t-76.5 -12.5h-191q-51 0 -103 16.5t-94 48t-69 77.5t-27 104zM258 256q0 -45 13.5 -74.5t36 -48t51 -26t59.5 -7.5h114q59 0 93 39 t34 105v274q0 25 -13 47.5t-32.5 41t-45 28.5t-50.5 10h-112q-66 0 -107 -40t-41 -132v-217z" />
<glyph unicode="r" horiz-adv-x="907" d="M80 -102v974h280v-137q31 23 76 47.5t105.5 44t137.5 34t169 16.5v-261q-43 0 -100.5 -4t-123 -17t-133 -40t-131.5 -74v-583h-280z" />
<glyph unicode="s" horiz-adv-x="964" d="M74 -12v190q98 -41 198 -78q80 -30 155 -30q18 0 36 2q29 0 55.5 3t48 11t38 25.5t22.5 46.5q3 12 3 23q0 21 -10 39q-16 28 -42.5 48.5t-59.5 32.5t-57 18q-82 20 -152.5 40t-122 50.5t-81 78t-29.5 120.5q0 98 54 162t136 97.5t176 38.5q20 1 39 1q71 0 133 -14 q59 -14 114.5 -34.5t102.5 -55.5v-207q-35 29 -67.5 50.5t-79.5 41.5q-31 14 -67.5 23.5t-73.5 10.5h-8q-33 0 -65 -7q-36 -8 -64 -31q-23 -18 -29 -39.5t1 -42t23.5 -38t38.5 -23.5q84 -27 148.5 -48.5t136.5 -50.5q57 -25 92 -55.5t53.5 -66t24.5 -74.5t6 -78 q0 -80 -40 -137.5t-102.5 -94t-139 -53t-150.5 -16.5q-111 0 -206 31t-189 90z" />
<glyph unicode="t" horiz-adv-x="829" d="M51 688v203h217v438h301v-438h219v-203h-219v-790h-301v790h-217z" />
<glyph unicode="u" horiz-adv-x="1081" d="M80 266v606h250v-544q0 -104 27.5 -151.5t103.5 -47.5h82q63 0 101 46t38 136v561h322v-974h-293v86q-51 -53 -106.5 -69.5t-100.5 -16.5h-84q-68 0 -130.5 17t-108.5 59t-73.5 113t-27.5 179z" />
<glyph unicode="v" horiz-adv-x="1300" d="M29 870h338q90 -209 138 -321.5t69.5 -164.5t25.5 -60l4 -9l238 555h424l-430 -972h-375z" />
<glyph unicode="w" horiz-adv-x="1583" d="M27 870h290q51 -133 100.5 -263t102.5 -263q2 8 13.5 35t25.5 64.5t31.5 83.5t36.5 94l-95 249h218q51 -133 100 -263t102 -263l205 526h379l-371 -972h-262l-129 338l-129 -338h-248z" />
<glyph unicode="x" horiz-adv-x="1251" d="M39 -102l338 489l-338 485h332l200 -294l228 294h407l-385 -493l371 -481h-395l-234 303l-205 -303h-319z" />
<glyph unicode="y" horiz-adv-x="1206" d="M43 872h266l240 -653l237 653h381l-559 -1554h-375l195 541z" />
<glyph unicode="z" horiz-adv-x="1148" d="M63 -102l506 796h-487v178h971l-512 -704h518v-270h-996z" />
<glyph unicode="{" horiz-adv-x="747" d="M43 635.5q0 21.5 6 41t19 32.5l172 143v430q0 27 10 53.5t30.5 48t51 35t71.5 13.5h271v-144h-111q-41 0 -53 -16.5t-12 -57.5v-419l-181 -107q-23 -20 -24.5 -56t16.5 -59l189 -153v-430q0 -39 12 -54.5t51 -15.5h113v-123h-258q-37 0 -69 13.5t-56.5 34t-37.5 47 t-13 55.5v440l-170 172q-12 14 -19.5 34.5t-7.5 42z" />
<glyph unicode="|" horiz-adv-x="620" d="M164 -184v1573h295v-1573h-295z" />
<glyph unicode="}" horiz-adv-x="747" d="M53 -80h113q39 0 51 15.5t12 54.5v430l189 153q18 23 16 59t-24 56l-181 107v419q0 41 -12 57.5t-53 16.5h-111v144h271q41 0 71.5 -13.5t51 -35t30.5 -48t10 -53.5v-430l172 -143q12 -12 18.5 -32t6.5 -41.5t-7 -42t-20 -34.5l-170 -172v-440q0 -29 -13 -55.5t-37.5 -47 t-56.5 -34t-69 -13.5h-258v123z" />
<glyph unicode="~" horiz-adv-x="1220" d="M84 641q59 115 146 179.5t186 68.5q76 4 130 -27t102 -69.5t99.5 -70.5t124.5 -30q41 2 68 19.5t44 42t26.5 50t13.5 44.5l129 -139q-37 -106 -103.5 -181t-156.5 -75q-84 0 -146.5 31.5t-113.5 69.5t-99.5 70.5t-105.5 34.5q-61 0 -131 -33.5t-113 -117.5z" />
<glyph unicode="&#xa0;" />
<glyph unicode="&#xad;" horiz-adv-x="856" d="M100 516v213h668v-213h-668z" />
<glyph unicode="&#x2000;" horiz-adv-x="736" />
<glyph unicode="&#x2001;" horiz-adv-x="1473" />
<glyph unicode="&#x2002;" horiz-adv-x="736" />
<glyph unicode="&#x2003;" horiz-adv-x="1473" />
<glyph unicode="&#x2004;" horiz-adv-x="491" />
<glyph unicode="&#x2005;" horiz-adv-x="368" />
<glyph unicode="&#x2006;" horiz-adv-x="245" />
<glyph unicode="&#x2007;" horiz-adv-x="245" />
<glyph unicode="&#x2008;" horiz-adv-x="184" />
<glyph unicode="&#x2009;" horiz-adv-x="294" />
<glyph unicode="&#x200a;" horiz-adv-x="81" />
<glyph unicode="&#x2010;" horiz-adv-x="856" d="M100 516v213h668v-213h-668z" />
<glyph unicode="&#x2011;" horiz-adv-x="856" d="M100 516v213h668v-213h-668z" />
<glyph unicode="&#x2012;" horiz-adv-x="856" d="M100 516v213h668v-213h-668z" />
<glyph unicode="&#x2013;" horiz-adv-x="1212" d="M100 516v213h1024v-213h-1024z" />
<glyph unicode="&#x2014;" horiz-adv-x="2236" d="M100 516v213h2048v-213h-2048z" />
<glyph unicode="&#x202f;" horiz-adv-x="294" />
<glyph unicode="&#x205f;" horiz-adv-x="368" />
<glyph unicode="&#x25fc;" horiz-adv-x="870" d="M0 0v870h870v-870h-870z" />
</font>
</defs>
</svg>
