<?xml version="1.0" standalone="no"?>
<!DOCTYPE svg PUBLIC "-//W3C//DTD SVG 1.1//EN" "http://www.w3.org/Graphics/SVG/1.1/DTD/svg11.dtd" >
<svg xmlns="http://www.w3.org/2000/svg">
<metadata></metadata>
<defs>
<font id="bulky_pixelsregular" horiz-adv-x="1810" >
<font-face units-per-em="2048" ascent="1638" descent="-410" />
<missing-glyph horiz-adv-x="500" />
<glyph horiz-adv-x="0" />
<glyph unicode="&#xd;" horiz-adv-x="1269" />
<glyph horiz-adv-x="0" />
<glyph horiz-adv-x="0" />
<glyph unicode="&#x9;" horiz-adv-x="1269" />
<glyph unicode="!" horiz-adv-x="985" d="M0 0v410h410v-410h-410zM0 614v1024h410v-1024h-410z" />
<glyph unicode="&#x22;" horiz-adv-x="1601" d="M0 1229v409h410v-614h-205v205h-205zM614 1229v409h410v-614h-205v205h-205z" />
<glyph unicode="#" horiz-adv-x="2203" d="M0 203v411h205v410h-205v410h205v204h409v-204h410v204h410v-204h204v-410h-204v-410h204v-409q-205 4 -204 0v-205h-410q4 0 0 205h-410v-205h-411v203h-203zM614 614h410v410h-410v-410z" />
<glyph unicode="$" horiz-adv-x="1646" d="M0 184v369h737v184h-737v717h369v184h368v-184h348v-369h-716v-184h716v-717h-348v-184h-368v184h-369z" />
<glyph unicode="%" horiz-adv-x="2732" d="M0 737v901h901v-553h369v553h368v-553h-368v-184h921v-901h-921v553h-348v-553h-369v553h369v184h-922zM369 1085h184v185h-184v-185zM1638 369h185v184h-185v-184z" />
<glyph unicode="&#x26;" horiz-adv-x="1990" d="M0 0v1024h205v614h819v-614h-205v-205h205v-205h205v205h205v-409h-205v-205h205v-205h-410v205h-205v-205h-819zM410 410h409v204h-205v205h-204v-409zM614 1229h205v205h-205v-205z" />
<glyph unicode="'" horiz-adv-x="987" d="M0 1229v409h410v-614h-205v205h-205z" />
<glyph unicode="(" horiz-adv-x="1372" d="M0 410v819h205v205h205v204h409v-409h-205v-205h-204v-410h204v-204h205v-410h-409v205h-205v205h-205z" />
<glyph unicode=")" horiz-adv-x="1378" d="M0 0v410h205v204h205v410h-205v205h-205v409h410v-204h204v-205h205v-819h-205v-205h-204v-205h-410z" />
<glyph unicode="*" horiz-adv-x="2172" d="M0 819v410h410v-205h204v614h410v-614h205v205h409v-410h-409v-409h205v-410h-410v410h-410v-410h-409v410h205v409h-410z" />
<glyph unicode="+" horiz-adv-x="1753" d="M0 410v409h410v410h409v-410h410v-409h-410v-410h-409v410h-410z" />
<glyph unicode="," horiz-adv-x="995" d="M0 0v410h410v-615h-205v205h-205z" />
<glyph unicode="-" horiz-adv-x="1517" d="M0 410v409h942v-409h-942z" />
<glyph unicode="&#xad;" horiz-adv-x="1517" d="M0 410v409h942v-409h-942z" />
<glyph unicode="." horiz-adv-x="993" d="M0 0v410h410v-410h-410z" />
<glyph unicode="/" horiz-adv-x="1363" d="M0 0v614h205v615h205v409h409v-614h-205v-614h-204v-410h-410z" />
<glyph unicode="0" d="M0 0v1638h1229v-1638h-1229zM410 410h409v819h-409v-819z" />
<glyph unicode="1" horiz-adv-x="1196" d="M0 1024v410h205v204h409v-1638h-409v1024h-205z" />
<glyph unicode="2" horiz-adv-x="1597" d="M0 0h1024v410h-614v204h614v1024h-819v-409h409v-205h-614v-1024z" />
<glyph unicode="3" horiz-adv-x="1605" d="M0 0h1024v1638h-1024v-409h614v-205h-409v-410h409v-204h-614v-410z" />
<glyph unicode="4" horiz-adv-x="1599" d="M0 614h614v-614h410v1434h-410v-410h-204v614h-410v-1024z" />
<glyph unicode="5" horiz-adv-x="1599" d="M0 0v410h614v204h-614v1024h1024v-409h-614v-205h614v-1024h-1024z" />
<glyph unicode="6" horiz-adv-x="1599" d="M0 0v1638h819v-409h-409v-205h614v-1024h-1024zM410 410h204v204h-204v-204z" />
<glyph unicode="7" horiz-adv-x="1605" d="M0 1229v409h1024v-1638h-410v1229h-614z" />
<glyph unicode="8" d="M0 0v1024h205v614h1024v-1638h-1229zM410 410h409v204h-409v-204zM614 1024h205v205h-205v-205z" />
<glyph unicode="9" horiz-adv-x="1605" d="M0 614v1024h1024v-1638h-819v410h409v204h-614zM410 1024h204v205h-204v-205z" />
<glyph unicode=":" horiz-adv-x="958" d="M0 0v410h410v-410h-410zM0 819v410h410v-410h-410z" />
<glyph unicode=";" horiz-adv-x="962" d="M0 0v410h410v-615h-205v205h-205zM0 819v410h410v-410h-410z" />
<glyph unicode="&#x3c;" horiz-adv-x="1722" d="M0 696v246h225v225h246v226h225v245h471v-471h-245v-225h-226v-246h226v-225h245v-471h-471v246h-225v225h-246v225h-225z" />
<glyph unicode="=" horiz-adv-x="1722" d="M0 246v450h1167v-450h-1167zM0 942v451h1167v-451h-1167z" />
<glyph unicode="&#x3e;" horiz-adv-x="1683" d="M0 0v471h225v225h246v246h-246v225h-225v471h471v-225h225v-246h246v-225h225v-246h-225v-225h-246v-246h-225v-225h-471z" />
<glyph unicode="?" horiz-adv-x="1357" d="M0 0v410h410v-410h-410zM0 614v410h410v205h-410v409h819v-1024h-819z" />
<glyph unicode="@" horiz-adv-x="2187" d="M0 205v1229h205v204h1229v-204h204v-820h-1024v410h410v-205h205v410h-819v-819h1228v-410h-1433v205h-205z" />
<glyph unicode="A" d="M0 0v1638h1229v-1638h-410v410h-409v-410h-410zM410 819h409v410h-409v-410z" />
<glyph unicode="B" horiz-adv-x="2009" d="M0 0v1638h1229v-614h205v-1024h-1434zM410 410h614v204h-614v-204zM410 1024h409v205h-409v-205z" />
<glyph unicode="C" horiz-adv-x="1554" d="M0 0v1638h1024v-409h-614v-819h614v-410h-1024z" />
<glyph unicode="D" horiz-adv-x="1808" d="M0 0v1638h1024v-409h205v-1229h-1229zM410 410h409v819h-409v-819z" />
<glyph unicode="E" horiz-adv-x="1576" d="M0 0v1638h1024v-409h-614v-205h614v-410h-614v-204h614v-410h-1024z" />
<glyph unicode="F" horiz-adv-x="1531" d="M0 0v1638h1024v-409h-614v-205h409v-410h-409v-614h-410z" />
<glyph unicode="G" horiz-adv-x="1806" d="M0 0v1638h1024v-409h-614v-819h409v204h-205v410h615v-1024h-1229z" />
<glyph unicode="H" d="M0 0v1638h410v-614h409v614h410v-1638h-410v614h-409v-614h-410z" />
<glyph unicode="I" horiz-adv-x="991" d="M0 0v1638h410v-1638h-410z" />
<glyph unicode="J" horiz-adv-x="1576" d="M0 0v410h410v819h-410v409h1024v-409h-205v-1229h-819z" />
<glyph unicode="K" horiz-adv-x="1804" d="M0 0v1638h410v-614h204v614h410v-614h205v-1024h-410v614h-409v-614h-410z" />
<glyph unicode="L" horiz-adv-x="1343" d="M0 0v1638h410v-1228h409v-410h-819z" />
<glyph unicode="M" horiz-adv-x="2621" d="M0 0v1638h1229v-204h819v-1434h-410v1024h-409v-1024h-410v1229h-409v-1229h-410z" />
<glyph unicode="N" d="M0 0v1638h1229v-1638h-410v1229h-409v-1229h-410z" />
<glyph unicode="O" d="M0 0v1638h1229v-1638h-1229zM410 410h409v819h-409v-819z" />
<glyph unicode="P" horiz-adv-x="1769" d="M0 0v1638h1229v-1228h-819v-410h-410zM410 819h409v410h-409v-410z" />
<glyph unicode="Q" horiz-adv-x="2009" d="M0 0v1638h1229v-1228h205v-410h-1434zM410 410h409v819h-409v-819z" />
<glyph unicode="R" horiz-adv-x="1804" d="M0 0v1638h1024v-819h205v-819h-410v410h-409v-410h-410zM410 819h204v410h-204v-410z" />
<glyph unicode="S" horiz-adv-x="1806" d="M0 0v410h819v204h-819v1024h1024v-409h-614v-205h819v-1024h-1229z" />
<glyph unicode="T" horiz-adv-x="1744" d="M0 1229v409h1229v-409h-410v-1229h-409v1229h-410z" />
<glyph unicode="U" horiz-adv-x="2009" d="M0 0v1638h410v-1228h409v1228h410v-1228h205v-410h-1434z" />
<glyph unicode="V" horiz-adv-x="1802" d="M0 410v1228h410v-1024h409v1024h410v-1228h-205v-205h-205v-205h-409v205h-205v205h-205z" />
<glyph unicode="W" horiz-adv-x="2629" d="M0 410v1228h410v-819h409v615h410v-820h409v1024h410v-1638h-410v205h-819v205h-819z" />
<glyph unicode="X" horiz-adv-x="1804" d="M0 0h410v410h409v-410h410v614h-205v205h-205v205h205v205h205v409h-410v-204h-409v204h-410v-409h205v-205h205v-205h-205v-205h-205v-614z" />
<glyph unicode="Y" d="M0 0v410h819v204h-819v1024h410v-614h409v614h410v-1638h-1229z" />
<glyph unicode="Z" horiz-adv-x="1792" d="M0 0v614h205v205h205v205h204v205h-614v409h1229v-614h-205v-205h-205v-205h-205v-204h615v-410h-1229z" />
<glyph unicode="[" horiz-adv-x="1189" d="M0 0v1638h614v-409h-204v-819h204v-410h-614z" />
<glyph unicode="\" horiz-adv-x="1378" d="M0 1024v614h410v-409h204v-615h205v-614h-409v410h-205v614h-205z" />
<glyph unicode="]" horiz-adv-x="1196" d="M0 0v410h205v819h-205v409h614v-1638h-614z" />
<glyph unicode="^" horiz-adv-x="2611" d="M0 471v594h287v287h307v286h860v-286h287v-287h307v-594h-594v307h-266v287h-307v-287h-308v-307h-573z" />
<glyph unicode="_" horiz-adv-x="2639" d="M0 0v573h2048v-573h-2048z" />
<glyph unicode="a" horiz-adv-x="1804" d="M0 0v1229h1024v-819h205v-410h-1229zM410 410h204v409h-204v-409z" />
<glyph unicode="b" horiz-adv-x="1802" d="M0 0v1638h410v-409h819v-1229h-1229zM410 410h409v409h-409v-409z" />
<glyph unicode="c" horiz-adv-x="1564" d="M0 0v1229h1024v-410h-614v-409h614v-410h-1024z" />
<glyph unicode="d" d="M0 0v1229h819v409h410v-1638h-1229zM410 410h409v409h-409v-409z" />
<glyph unicode="e" horiz-adv-x="1785" d="M0 0v1413h1208v-799h-819v-204h819v-410h-1208zM389 819h410v185h-410v-185z" />
<glyph unicode="f" horiz-adv-x="1355" d="M0 -205v1843h614v-409h-204v-205h409v-410h-409v-819h-410z" />
<glyph unicode="g" d="M0 0h819v205h-819v1229h819v204h410v-2048h-1229v410zM410 614h409v410h-409v-410z" />
<glyph unicode="h" horiz-adv-x="1802" d="M0 0v1638h410v-409h819v-1229h-410v819h-409v-819h-410z" />
<glyph unicode="i" horiz-adv-x="987" d="M0 0v1024h410v-1024h-410zM0 1229v409h410v-409h-410z" />
<glyph unicode="j" horiz-adv-x="1189" d="M0 0h205v1024h409v-1434h-614v410zM205 1229v409h409v-409h-409z" />
<glyph unicode="k" horiz-adv-x="1804" d="M0 0v1638h410v-614h204v410h410v-410h205v-1024h-410v614h-409v-614h-410z" />
<glyph unicode="l" horiz-adv-x="1189" d="M0 0v1638h410v-1228h204v-410h-614z" />
<glyph unicode="m" horiz-adv-x="2596" d="M0 0v1434h410v-205h819v-205h819v-1024h-410v614h-409v-614h-410v819h-409v-819h-410z" />
<glyph unicode="n" horiz-adv-x="1806" d="M0 0v1434h410v-205h819v-1229h-410v819h-409v-819h-410z" />
<glyph unicode="o" horiz-adv-x="1806" d="M0 0v1229h1229v-1229h-1229zM410 410h409v409h-409v-409z" />
<glyph unicode="p" horiz-adv-x="1806" d="M0 -410v1844h410v-205h819v-1229h-819v-410h-410zM410 410h409v409h-409v-409z" />
<glyph unicode="q" d="M0 0v1229h819v205h410v-1844h-410v410h-819zM410 410h409v409h-409v-409z" />
<glyph unicode="r" horiz-adv-x="1566" d="M0 0v1229h1024v-615h-410v205h-204v-819h-410z" />
<glyph unicode="s" horiz-adv-x="1597" d="M0 0v410h614v204h-614v820h819v-410h-409v-205h614v-819h-1024z" />
<glyph unicode="t" horiz-adv-x="1548" d="M0 0v1638h410v-409h409v-410h-409v-409h614v-410h-1024z" />
<glyph unicode="u" horiz-adv-x="1601" d="M0 0v1229h410v-819h204v819h410v-1229h-1024z" />
<glyph unicode="v" horiz-adv-x="1599" d="M0 410v819h410v-819h204v819h410v-819h-205v-205h-205v-205h-204v205h-205v205h-205z" />
<glyph unicode="w" horiz-adv-x="2629" d="M0 410v1024h410v-615h409v410h410v-615h409v820h410v-1434h-410v205h-819v205h-819z" />
<glyph unicode="x" horiz-adv-x="1806" d="M0 0v410h205v204h205v205h-205v205h-205v410h410v-205h409v205h410v-410h-205v-205h-205v-205h205v-204h205v-410h-410v205h-409v-205h-410z" />
<glyph unicode="y" horiz-adv-x="1806" d="M0 0h819v205h-819v1024h410v-615h409v615h410v-1639h-1229v410z" />
<glyph unicode="z" horiz-adv-x="1599" d="M0 0v410h205v204h205v205h-410v410h1024v-410h-205v-205h-205v-204h410v-410h-1024z" />
<glyph unicode="~" horiz-adv-x="2600" d="M0 881v512h266v245h758v-245h246v-267h266v267h512v-512h-266v-267h-758v267h-266v245h-246v-245h-512z" />
<glyph unicode="&#xa3;" horiz-adv-x="1574" d="M0 0v410h205v204h-205v410h205v614h819v-409h-410v-205h205v-410h-205v-204h410v-410h-1024z" />
<glyph unicode="&#x2000;" horiz-adv-x="819" />
<glyph unicode="&#x2001;" horiz-adv-x="1638" />
<glyph unicode="&#x2002;" horiz-adv-x="819" />
<glyph unicode="&#x2003;" horiz-adv-x="1638" />
<glyph unicode="&#x2004;" horiz-adv-x="546" />
<glyph unicode="&#x2005;" horiz-adv-x="409" />
<glyph unicode="&#x2006;" horiz-adv-x="273" />
<glyph unicode="&#x2007;" horiz-adv-x="273" />
<glyph unicode="&#x2008;" horiz-adv-x="204" />
<glyph unicode="&#x2009;" horiz-adv-x="327" />
<glyph unicode="&#x200a;" horiz-adv-x="91" />
<glyph unicode="&#x2010;" horiz-adv-x="1517" d="M0 410v409h942v-409h-942z" />
<glyph unicode="&#x2011;" horiz-adv-x="1517" d="M0 410v409h942v-409h-942z" />
<glyph unicode="&#x2012;" horiz-adv-x="1517" d="M0 410v409h942v-409h-942z" />
<glyph unicode="&#x2013;" horiz-adv-x="1599" d="M0 410v409h1024v-409h-1024z" />
<glyph unicode="&#x2014;" horiz-adv-x="2623" d="M0 410v409h2048v-409h-2048z" />
<glyph unicode="&#x202f;" horiz-adv-x="327" />
<glyph unicode="&#x205f;" horiz-adv-x="409" />
<glyph unicode="&#x25fc;" horiz-adv-x="1433" d="M0 0v1434h1434v-1434h-1434z" />
</font>
</defs>
</svg>
